<?xml version="1.0" encoding="utf-8"?>
<!-- Generator: Adobe Illustrator 19.0.0, SVG Export Plug-In . SVG Version: 6.00 Build 0)  -->
<!DOCTYPE svg PUBLIC "-//W3C//DTD SVG 1.1//EN" "http://www.w3.org/Graphics/SVG/1.1/DTD/svg11.dtd">
<svg version="1.1" id="Layer_1" xmlns="http://www.w3.org/2000/svg" xmlns:xlink="http://www.w3.org/1999/xlink" x="0px" y="0px"
	 viewBox="0 0 15.6 26.7" enable-background="new 0 0 15.6 26.7" xml:space="preserve">
<path d="M15.3,2.8L4.8,13.4l10.5,10.5c0.2,0.2,0.3,0.4,0.3,0.6s-0.1,0.5-0.3,0.6L14,26.5c-0.2,0.2-0.4,0.3-0.6,0.3s-0.5-0.1-0.6-0.3
	L0.3,14C0.1,13.8,0,13.6,0,13.4s0.1-0.5,0.3-0.6L12.7,0.3C12.9,0.1,13.1,0,13.4,0s0.5,0.1,0.6,0.3l1.3,1.3c0.2,0.2,0.3,0.4,0.3,0.6
	C15.6,2.4,15.5,2.7,15.3,2.8z"/>
</svg>
