<?xml version="1.0" encoding="utf-8"?>
<!-- Generator: Adobe Illustrator 22.0.1, SVG Export Plug-In . SVG Version: 6.00 Build 0)  -->
<svg version="1.1" id="Behance" xmlns="http://www.w3.org/2000/svg" xmlns:xlink="http://www.w3.org/1999/xlink" x="0px" y="0px"
	 viewBox="0 0 227 143" style="enable-background:new 0 0 227 143;" xml:space="preserve">
<style type="text/css">
	.st0{fill:none;stroke:#FFFFFF;stroke-width:2;stroke-miterlimit:10;}
</style>
<path class="st0" d="M66.3,1c6.6,0,12.6,0.6,18.1,1.8c5.4,1.1,10.1,3.1,14,5.7c3.9,2.6,6.9,6.1,9,10.6c2.1,4.3,3.2,9.8,3.2,16.2
	c0,7-1.6,12.8-4.7,17.4c-3.2,4.6-7.9,8.5-14.1,11.4c8.5,2.4,14.8,6.8,19,12.9c4.2,6.2,6.3,13.6,6.3,22.2c0,7-1.3,13.1-4,18.1
	c-2.7,5.1-6.4,9.3-10.9,12.5c-4.6,3.2-9.8,5.6-15.7,7.2c-5.8,1.5-11.9,2.3-18.1,2.3H1V1H66.3z M62.3,56.9c5.4,0,9.9-1.3,13.4-3.9
	c3.5-2.6,5.2-6.8,5.2-12.6c0-3.2-0.6-5.9-1.7-7.9c-1.2-2.1-2.7-3.7-4.7-4.8c-2-1.2-4.2-2-6.7-2.4c-2.5-0.5-5.1-0.7-7.8-0.7H31.5
	v32.3H62.3z M64,115.8c3,0,5.9-0.3,8.5-0.9c2.7-0.6,5.1-1.5,7.2-2.9c2-1.3,3.7-3.2,5-5.5c1.2-2.3,1.8-5.3,1.8-9c0-7.1-2-12.2-6-15.3
	c-4-3-9.3-4.5-15.9-4.5H31.5v38.1H64z"/>
<path class="st0" d="M160.3,115.4c4.1,4,10.1,6.1,17.8,6.1c5.6,0,10.4-1.4,14.4-4.2c4-2.8,6.4-5.8,7.4-8.9h24.2
	c-3.9,12.1-9.8,20.7-17.9,25.9c-8,5.2-17.7,7.8-29,7.8c-7.9,0-15-1.3-21.4-3.8c-6.4-2.5-11.7-6.1-16.2-10.8
	c-4.4-4.7-7.8-10.2-10.2-16.7c-2.4-6.5-3.6-13.6-3.6-21.4c0-7.5,1.3-14.5,3.7-21c2.5-6.5,6-12.1,10.5-16.8c4.6-4.7,10-8.4,16.2-11.2
	c6.3-2.7,13.2-4.1,20.9-4.1c8.5,0,15.9,1.6,22.3,5c6.3,3.3,11.5,7.7,15.6,13.3c4.1,5.5,7,11.9,8.8,19c1.8,7.1,2.4,14.5,1.9,22.3
	h-72.3C153.5,103.8,156.2,111.3,160.3,115.4z M192,62.7c-3.3-3.6-8.8-5.6-15.6-5.6c-4.4,0-8,0.7-11,2.2c-2.8,1.5-5.2,3.3-7,5.5
	c-1.8,2.2-3,4.6-3.7,7.1c-0.7,2.4-1.1,4.6-1.3,6.6h44.8C197.7,71.6,195.2,66.4,192,62.7z"/>
<rect x="147.9" y="10.3" class="st0" width="56.1" height="13.7"/>
</svg>
