<?xml version="1.0" encoding="utf-8"?>
<!-- Generator: Adobe Illustrator 22.0.1, SVG Export Plug-In . SVG Version: 6.00 Build 0)  -->
<svg version="1.1" xmlns="http://www.w3.org/2000/svg" xmlns:xlink="http://www.w3.org/1999/xlink" x="0px" y="0px"
	 viewBox="0 0 146.6 143" style="enable-background:new 0 0 146.6 143;" xml:space="preserve">
<style type="text/css">
	.st4{fill-rule:evenodd;clip-rule:evenodd;fill:none;stroke:#FFFFFF;stroke-width:2;stroke-miterlimit:10;}
</style>
<g id="Github">
	<path class="st4" d="M73.3,1C33.4,1,1,33.4,1,73.3c0,31.9,20.7,59,49.4,68.6c3.6,0.7,4.9-1.6,4.9-3.5c0-1.7-0.1-7.4-0.1-13.5
		c-20.1,4.4-24.4-8.5-24.4-8.5c-3.3-8.4-8-10.6-8-10.6c-6.6-4.5,0.5-4.4,0.5-4.4c7.3,0.5,11.1,7.4,11.1,7.4c6.4,11.1,16.9,7.9,21,6
		c0.6-4.7,2.5-7.9,4.6-9.7c-16.1-1.8-32.9-8-32.9-35.7c0-7.9,2.8-14.3,7.4-19.4c-0.8-1.8-3.2-9.2,0.7-19.1c0,0,6.1-1.9,19.9,7.4
		c5.8-1.6,12-2.4,18.1-2.4c6.1,0,12.3,0.8,18.1,2.4c13.8-9.4,19.9-7.4,19.9-7.4c3.9,10,1.5,17.3,0.7,19.1c4.6,5.1,7.4,11.5,7.4,19.4
		c0,27.8-16.9,33.9-33,35.7c2.6,2.2,4.9,6.6,4.9,13.4c0,9.7-0.1,17.5-0.1,19.8c0,1.9,1.3,4.2,5,3.5c28.7-9.6,49.4-36.7,49.4-68.6
		C145.6,33.4,113.2,1,73.3,1z"/>
</g>
</svg>
