<?xml version="1.0" encoding="utf-8"?>
<!-- Generator: Adobe Illustrator 22.0.1, SVG Export Plug-In . SVG Version: 6.00 Build 0)  -->
<svg version="1.1" id="Layer_1" xmlns="http://www.w3.org/2000/svg" xmlns:xlink="http://www.w3.org/1999/xlink" x="0px" y="0px"
	 viewBox="0 0 142 142" style="enable-background:new 0 0 142 142;" xml:space="preserve">
<style type="text/css">
	.st0{fill:none;stroke:#5A132B;stroke-width:2;stroke-miterlimit:10;}
</style>
<g id="instagram">
	<g>
		<g>
			<path class="st0" d="M71,13.2c18.8,0,21.1,0.1,28.5,0.4c6.9,0.3,10.6,1.5,13.1,2.4c3.3,1.3,5.6,2.8,8.1,5.3s4,4.8,5.3,8.1
				c1,2.5,2.1,6.2,2.4,13.1c0.3,7.4,0.4,9.7,0.4,28.5s-0.1,21.1-0.4,28.5c-0.3,6.9-1.5,10.6-2.4,13.1c-1.3,3.3-2.8,5.6-5.3,8.1
				s-4.8,4-8.1,5.3c-2.5,1-6.2,2.1-13.1,2.4c-7.4,0.3-9.7,0.4-28.5,0.4s-21.1-0.1-28.5-0.4c-6.9-0.3-10.6-1.5-13.1-2.4
				c-3.3-1.3-5.6-2.8-8.1-5.3s-4-4.8-5.3-8.1c-1-2.5-2.1-6.2-2.4-13.1c-0.3-7.4-0.4-9.7-0.4-28.5s0.1-21.1,0.4-28.5
				c0.3-6.9,1.5-10.6,2.4-13.1c1.3-3.3,2.8-5.6,5.3-8.1s4.8-4,8.1-5.3c2.5-1,6.2-2.1,13.1-2.4C49.9,13.3,52.2,13.2,71,13.2 M71,0.5
				c-19.1,0-21.5,0.1-29.1,0.4c-7.5,0.3-12.6,1.5-17.1,3.3c-4.6,1.8-8.6,4.2-12.5,8.1c-3.9,4-6.3,7.9-8.1,12.5
				c-1.7,4.5-2.9,9.6-3.3,17.1c-0.3,7.6-0.4,10-0.4,29.1s0.1,21.5,0.4,29.1c0.3,7.5,1.5,12.6,3.3,17.1c1.8,4.6,4.2,8.6,8.1,12.5
				c3.9,3.9,7.9,6.3,12.5,8.1c4.5,1.7,9.6,2.9,17.1,3.3c7.5,0.3,9.9,0.4,29.1,0.4s21.5-0.1,29.1-0.4c7.5-0.3,12.6-1.5,17.1-3.3
				c4.6-1.8,8.6-4.2,12.5-8.1c3.9-3.9,6.3-7.9,8.1-12.5c1.7-4.5,2.9-9.6,3.3-17.1c0.3-7.5,0.4-9.9,0.4-29.1s-0.1-21.5-0.4-29.1
				c-0.3-7.5-1.5-12.6-3.3-17.1c-1.8-4.6-4.2-8.6-8.1-12.5c-3.9-3.9-7.9-6.3-12.5-8.1c-4.5-1.7-9.6-2.9-17.1-3.3
				C92.5,0.6,90.1,0.5,71,0.5L71,0.5z"/>
			<path class="st0" d="M71,34.8C51,34.8,34.8,51,34.8,71S51,107.2,71,107.2S107.2,91,107.2,71S91,34.8,71,34.8z M71,94.5
				C58,94.5,47.5,84,47.5,71S58,47.5,71,47.5S94.5,58,94.5,71S84,94.5,71,94.5z"/>
			<circle class="st0" cx="108.6" cy="33.4" r="8.5"/>
		</g>
	</g>
</g>
</svg>
