<?xml version="1.0" encoding="utf-8"?>
<!-- Generator: Adobe Illustrator 22.0.1, SVG Export Plug-In . SVG Version: 6.00 Build 0)  -->
<svg version="1.1" id="Layer_1" xmlns="http://www.w3.org/2000/svg" xmlns:xlink="http://www.w3.org/1999/xlink" x="0px" y="0px"
	 viewBox="0 0 99.3 60.7" style="enable-background:new 0 0 99.3 60.7;" xml:space="preserve">
<style type="text/css">
	.st0{fill:none;stroke:#2785BE;stroke-width:6;stroke-linecap:round;stroke-linejoin:round;stroke-dasharray:30,30;}
	.st1{fill:#FFFFFF;}
</style>
<title>james_stone_logo</title>
<path class="st0" d="M-730.6-20.3"/>
<path class="st0" d="M-4.6-2.1"/>
<path class="st1" d="M90.9,53.2c-0.4,0-0.7-0.3-0.7-0.7v0c0-2.5-0.1-5-0.4-7.5c0-0.4,0.2-0.7,0.6-0.7c0,0,0,0,0,0
	c0.4,0,0.7,0.2,0.7,0.6c0,0,0,0,0,0c0.3,2.5,0.4,5.1,0.4,7.6C91.5,52.9,91.3,53.2,90.9,53.2C90.9,53.2,90.9,53.2,90.9,53.2z
	 M89.4,38.5c-0.3,0-0.6-0.2-0.6-0.5c-0.5-2.4-1.2-4.9-2-7.2c-0.1-0.3,0.1-0.7,0.4-0.8c0.3-0.1,0.7,0.1,0.8,0.4
	c0.8,2.4,1.5,4.9,2,7.4c0.1,0.4-0.1,0.7-0.5,0.8L89.4,38.5z M84.4,24.6c-0.2,0-0.5-0.1-0.6-0.3c-1.1-2.2-2.6-4.2-4.3-6
	c-0.2-0.3-0.2-0.7,0.1-0.9c0.2-0.2,0.6-0.2,0.9,0c1.8,1.9,3.3,4,4.5,6.3c0.2,0.3,0,0.7-0.3,0.9C84.7,24.5,84.5,24.6,84.4,24.6z
	 M58.5,23.3h-0.1c-0.3,0-0.5-0.2-0.5-0.4c-0.4-1.1-0.8-2.1-1.2-3.1c-0.1-0.3,0.1-0.7,0.4-0.8c0.3-0.1,0.7,0,0.8,0.3
	c0.3,0.6,0.5,1.3,0.8,2c0.6-0.9,1.2-1.6,1.9-2.4c0.2-0.3,0.7-0.3,0.9-0.1c0.3,0.2,0.3,0.7,0.1,0.9c-0.9,1-1.7,2.1-2.5,3.3
	C58.9,23.3,58.7,23.4,58.5,23.3z M8.7,23.3c-0.3,0-0.6-0.2-0.6-0.5c-0.5-1.9-1-3.6-1.6-5.4c-0.1-0.3,0.1-0.7,0.4-0.8
	s0.7,0.1,0.8,0.4c0.4,1,0.7,2.1,1,3.2c0.2-0.1,0.4-0.2,0.6-0.1c0.4,0.1,0.6,0.5,0.5,0.8c-0.2,0.6-0.3,1.2-0.4,1.8
	C9.3,23.1,9,23.3,8.7,23.3L8.7,23.3z M66.7,15.4c-0.4,0-0.7-0.3-0.6-0.7c0-0.2,0.1-0.5,0.3-0.6c1.5-0.8,3.3-1.2,5-1.3l0,0
	c0.9,0,1.9,0.1,2.8,0.4c0.4,0.1,0.6,0.4,0.5,0.8c-0.1,0.4-0.4,0.6-0.8,0.5c0,0-0.1,0-0.1,0c-0.8-0.2-1.6-0.3-2.4-0.3l0,0
	c-1.6,0-3.1,0.4-4.4,1.1C66.9,15.4,66.8,15.5,66.7,15.4L66.7,15.4z M11.9,14.8c-0.1,0-0.2,0-0.3-0.1c-0.3-0.2-0.4-0.6-0.2-0.9
	c1.3-2.2,2.9-4.3,4.7-6.1c0.3-0.3,0.7-0.3,0.9,0c0.3,0.3,0.3,0.7,0,0.9c0,0,0,0,0,0c-1.8,1.7-3.3,3.7-4.5,5.9
	C12.3,14.7,12.1,14.8,11.9,14.8L11.9,14.8z M54.1,13.8c-0.2,0-0.4-0.1-0.6-0.3c-1.3-2.1-2.8-4.1-4.6-5.8c-0.3-0.3-0.3-0.7,0-0.9
	c0.3-0.3,0.7-0.3,0.9,0c1.8,1.8,3.4,3.9,4.8,6.1c0.2,0.3,0.1,0.7-0.2,0.9c0,0,0,0,0,0C54.3,13.8,54.2,13.8,54.1,13.8L54.1,13.8z
	 M4.4,11.2c-0.3,0-0.5-0.1-0.6-0.3C2.7,8.6,1.5,6.4,0.1,4.4C-0.1,4.1,0,3.7,0.3,3.4C0.6,3.2,1,3.3,1.2,3.6c0,0,0,0,0,0
	C2.6,5.7,3.9,8,5,10.3c0.2,0.3,0,0.7-0.3,0.9C4.6,11.2,4.5,11.2,4.4,11.2L4.4,11.2z M22.2,4.4c-0.2,0-0.5-0.1-0.6-0.3
	c-0.2-0.3-0.1-0.7,0.2-0.9c0,0,0,0,0,0c2.2-1.3,4.7-2.2,7.2-2.8c0.4-0.1,0.7,0.1,0.8,0.5c0.1,0.4-0.1,0.7-0.5,0.8l0,0
	c-2.4,0.5-4.7,1.4-6.8,2.7C22.5,4.4,22.3,4.4,22.2,4.4z M43.6,3.6c-0.1,0-0.2,0-0.3-0.1c-2.2-1.1-4.6-1.9-7-2.2
	c-0.4,0-0.6-0.4-0.6-0.7S36.1,0,36.5,0c2.6,0.3,5.1,1.1,7.4,2.3c0.3,0.2,0.5,0.6,0.3,0.9C44.1,3.4,43.8,3.6,43.6,3.6L43.6,3.6z"/>
<path class="st1" d="M3.9,38.5c-1.2,0-2.4-0.3-3.4-1l-0.3-0.2l1.1-4.2l0.6,0.4c0,0,0,0,0.2,0.1l0.4,0.2c0.2,0.1,0.4,0.1,0.7,0.2
	C3.4,34,3.6,34,3.9,34c0.3,0,0.6,0,0.8-0.1c0.2-0.1,0.3-0.3,0.4-0.4c0.1-0.3,0.2-0.7,0.2-1c0-0.5,0.1-1,0.1-1.7v-7.9h4.9v7.8
	c0,1-0.1,2.1-0.2,3.1c-0.1,0.9-0.4,1.7-0.9,2.5c-0.5,0.7-1.2,1.3-2,1.7C6.2,38.3,5,38.5,3.9,38.5z M1.3,36.9
	c0.8,0.4,1.7,0.7,2.6,0.7c1,0,2-0.1,3-0.5c0.6-0.3,1.2-0.7,1.5-1.3c0.4-0.6,0.6-1.4,0.7-2.1c0.1-1,0.2-2,0.2-3v-6.9h-3v6.9
	c0,0.7,0,1.3-0.1,1.8c0,0.5-0.1,0.9-0.3,1.3c-0.2,0.4-0.4,0.7-0.8,0.9c-0.4,0.2-0.8,0.3-1.2,0.3c-0.3,0-0.6,0-0.9,0
	c-0.3-0.1-0.5-0.1-0.8-0.2l-0.3-0.1L1.3,36.9z"/>
<path class="st1" d="M27.3,38.2h-5l-0.9-2.8h-3.2l-0.9,2.8h-5.1l5.4-15.4h4.3L27.3,38.2z M22.9,37.3h3l-4.7-13.6h-3l-4.7,13.6h3.1
	l0.9-2.8h4.6L22.9,37.3z M21.7,32.7h-3.9l2-6.6L21.7,32.7z M19.1,31.8h1.3l-0.7-2.4L19.1,31.8z"/>
<path class="st1" d="M45.7,38.2h-4.9v-6L39.1,36h-2.7l-1.7-3.7v6h-5V22.8h5.1l2.8,6.2l2.8-6.2h5.1L45.7,38.2z M41.7,37.3h3V23.7
	h-3.5l-3.4,7.5l-3.4-7.5h-3.6v13.6h3.1v-7.2l0.9-0.2L37,35h1.5l2.3-5.1l0.9,0.2L41.7,37.3z"/>
<path class="st1" d="M61,38.2H49.7V22.8h11.1v4.4h-6.2v1.1h5.3v4.2h-5.3v1.4H61V38.2z M50.6,37.3H60v-2.5h-6.3v-3.2h5.3v-2.3h-5.3
	v-3h6.2v-2.5h-9.2V37.3z"/>
<path class="st1" d="M70.1,38.4c-0.6,0-1.1,0-1.7-0.1c-0.6-0.1-1.2-0.2-1.7-0.4c-0.6-0.1-1.1-0.3-1.6-0.5c-0.5-0.2-1-0.5-1.5-0.7
	l-0.4-0.2l2.1-4.3l0.4,0.3c0.5,0.3,0.9,0.6,1.4,0.8c0.5,0.2,0.9,0.4,1.4,0.5c0.5,0.1,1,0.2,1.6,0.2c0.2,0,0.4,0,0.7-0.1
	c0,0,0,0,0-0.1c0-0.1,0-0.1-0.1-0.2c-0.2-0.1-0.4-0.2-0.6-0.3c-0.3-0.1-0.6-0.2-1-0.3s-0.8-0.2-1.3-0.4c-0.6-0.2-1.2-0.4-1.7-0.7
	c-0.5-0.2-0.9-0.6-1.2-0.9c-0.3-0.4-0.6-0.8-0.8-1.3c-0.2-0.5-0.2-1-0.2-1.6c0-0.8,0.2-1.6,0.5-2.3c0.3-0.7,0.8-1.2,1.3-1.7
	c0.6-0.5,1.2-0.8,1.9-1c0.7-0.2,1.5-0.3,2.2-0.3c0.6,0,1.1,0.1,1.6,0.2c0.5,0.1,1,0.2,1.5,0.4c0.5,0.1,0.9,0.3,1.4,0.5
	c0.4,0.2,0.8,0.4,1.1,0.5l0.4,0.2l-2.2,4.1l-0.4-0.3c-0.4-0.2-0.8-0.4-1.2-0.6c-0.3-0.1-0.8-0.3-1.2-0.4c-0.4-0.1-0.8-0.2-1.2-0.2
	c-0.2,0-0.4,0-0.6,0.1c0,0-0.1,0-0.1,0.1c0,0,0,0.1,0,0.1c0.1,0.1,0.2,0.2,0.4,0.2c0.3,0.1,0.5,0.2,0.8,0.3l1.2,0.4
	c0.6,0.2,1.3,0.4,1.9,0.7c0.5,0.2,1,0.6,1.5,0.9c0.4,0.4,0.8,0.9,1,1.4c0.2,0.6,0.4,1.3,0.3,1.9c0,0.8-0.2,1.7-0.5,2.4
	c-0.3,0.6-0.8,1.2-1.4,1.6c-0.6,0.4-1.2,0.7-1.9,0.8C71.5,38.3,70.8,38.4,70.1,38.4z M64.4,36.1c0.3,0.2,0.7,0.3,1,0.5
	c0.5,0.2,1,0.4,1.5,0.5c0.5,0.1,1.1,0.3,1.6,0.3c0.5,0.1,1,0.1,1.6,0.1c0.6,0,1.3-0.1,1.9-0.2c0.6-0.1,1.1-0.4,1.6-0.7
	c0.5-0.3,0.9-0.8,1.1-1.3c0.3-0.6,0.4-1.3,0.4-2c0-0.5-0.1-1.1-0.3-1.5c-0.2-0.4-0.4-0.7-0.8-1c-0.4-0.3-0.8-0.6-1.3-0.8
	c-0.6-0.3-1.2-0.5-1.8-0.7L70,29c-0.3-0.1-0.6-0.2-0.9-0.3c-0.2-0.1-0.5-0.2-0.7-0.4c-0.2-0.2-0.3-0.5-0.3-0.8c0-0.4,0.2-0.8,0.6-1
	c0.3-0.2,0.7-0.2,1.1-0.2c0.5,0,1,0.1,1.5,0.2c0.4,0.1,0.9,0.3,1.3,0.5c0.3,0.1,0.6,0.3,0.9,0.4l1.3-2.4L74,24.6
	c-0.4-0.2-0.8-0.3-1.3-0.5c-0.5-0.2-0.9-0.3-1.4-0.4c-0.5-0.1-1-0.1-1.5-0.1c-0.6,0-1.3,0.1-1.9,0.3c-0.6,0.2-1.1,0.5-1.6,0.9
	c-0.5,0.4-0.8,0.8-1.1,1.4c-0.3,0.6-0.4,1.3-0.4,1.9c0,0.4,0.1,0.9,0.2,1.3c0.1,0.3,0.3,0.7,0.6,0.9c0.3,0.3,0.6,0.6,1,0.8
	c0.5,0.3,1,0.5,1.6,0.7c0.4,0.2,0.8,0.3,1.2,0.4c0.4,0.1,0.8,0.2,1.1,0.3c0.3,0.1,0.6,0.3,0.9,0.5c0.3,0.2,0.4,0.5,0.4,0.9
	c0,0.3-0.2,0.7-0.5,0.8c-0.4,0.2-0.8,0.3-1.2,0.3c-0.6,0-1.2-0.1-1.8-0.3c-0.5-0.2-1-0.3-1.6-0.6c-0.4-0.2-0.7-0.4-1.1-0.6
	L64.4,36.1z"/>
<path class="st1" d="M7.3,60.4c-0.6,0-1.1,0-1.7-0.1c-0.6-0.1-1.2-0.2-1.7-0.4c-0.6-0.1-1.1-0.3-1.6-0.5c-0.5-0.2-1-0.5-1.5-0.7
	l-0.3-0.2l2.1-4.3L3,54.3c0.5,0.3,0.9,0.6,1.4,0.8c0.5,0.2,0.9,0.4,1.4,0.5c0.5,0.2,1,0.2,1.6,0.2c0.5,0,0.6-0.1,0.6-0.1
	s0.1,0,0.1-0.1c0-0.1,0-0.1-0.1-0.2c-0.2-0.1-0.4-0.2-0.6-0.3c-0.3-0.1-0.6-0.2-1-0.3s-0.8-0.2-1.3-0.4c-0.6-0.2-1.2-0.4-1.8-0.7
	c-0.5-0.2-0.9-0.5-1.3-0.9c-0.3-0.4-0.6-0.8-0.7-1.3c-0.2-0.5-0.2-1-0.2-1.6c0-0.8,0.2-1.6,0.5-2.3C2,47.1,2.4,46.5,3,46
	c0.6-0.5,1.2-0.8,1.9-1c0.7-0.2,1.5-0.3,2.2-0.3c0.6,0,1.1,0.1,1.6,0.2c0.5,0.1,1,0.2,1.5,0.4c0.5,0.2,0.9,0.3,1.4,0.5
	c0.4,0.2,0.8,0.4,1.1,0.5l0.4,0.2L11,50.7l-0.4-0.3c-0.4-0.2-0.8-0.4-1.2-0.6c-0.4-0.2-0.8-0.3-1.2-0.5c-0.4-0.1-0.8-0.2-1.2-0.2
	c-0.2,0-0.4,0-0.6,0.1c0,0-0.1,0-0.1,0.1s0,0.1,0,0.1c0.1,0.1,0.2,0.2,0.4,0.2C6.9,49.9,7.2,50,7.4,50l1.1,0.4
	c0.6,0.2,1.3,0.4,1.9,0.7c0.5,0.2,1,0.6,1.5,0.9c0.4,0.4,0.8,0.9,1,1.4c0.2,0.6,0.4,1.3,0.3,1.9c0,0.8-0.2,1.7-0.5,2.4
	c-0.3,0.6-0.8,1.2-1.4,1.6c-0.6,0.4-1.2,0.7-1.9,0.8C8.7,60.3,8,60.4,7.3,60.4z M1.6,58c0.3,0.2,0.7,0.3,1,0.5
	c0.5,0.2,1,0.4,1.5,0.5c0.5,0.1,1.1,0.2,1.6,0.3c0.5,0.1,1,0.1,1.6,0.1c0.6,0,1.3-0.1,1.9-0.2c0.6-0.1,1.1-0.4,1.6-0.7
	c0.5-0.3,0.9-0.8,1.1-1.3c0.3-0.6,0.5-1.3,0.4-2c0-0.5-0.1-1.1-0.3-1.5c-0.2-0.4-0.4-0.8-0.8-1c-0.4-0.3-0.8-0.6-1.3-0.8
	c-0.6-0.3-1.2-0.5-1.8-0.7l-1.1-0.3c-0.3-0.1-0.6-0.2-0.9-0.3c-0.3-0.1-0.5-0.2-0.7-0.4c-0.2-0.2-0.3-0.5-0.3-0.8
	c0-0.4,0.2-0.8,0.6-1c0.3-0.2,0.7-0.2,1.1-0.2c0.5,0,1,0.1,1.5,0.2c0.4,0.1,0.9,0.3,1.3,0.5c0.3,0.1,0.6,0.3,0.9,0.4l1.3-2.4
	l-0.7-0.3c-0.4-0.2-0.8-0.3-1.3-0.5c-0.5-0.2-0.9-0.3-1.4-0.4c-0.5-0.1-1-0.1-1.5-0.1c-0.6,0-1.3,0.1-1.9,0.3
	c-0.6,0.2-1.1,0.5-1.6,0.8c-0.5,0.4-0.8,0.8-1.1,1.4c-0.3,0.6-0.4,1.3-0.4,1.9c0,0.4,0.1,0.9,0.2,1.3c0.1,0.3,0.3,0.7,0.6,0.9
	c0.3,0.3,0.6,0.6,1,0.8c0.5,0.3,1,0.5,1.6,0.7c0.4,0.2,0.8,0.3,1.2,0.4s0.8,0.2,1.1,0.3c0.3,0.1,0.6,0.3,0.8,0.5
	C8.8,55,9,55.4,8.9,55.7c0,0.3-0.2,0.7-0.5,0.8c-0.4,0.2-0.8,0.3-1.2,0.3c-0.6,0-1.2-0.1-1.8-0.3C5,56.4,4.5,56.2,4,56
	c-0.4-0.2-0.7-0.4-1.1-0.6L1.6,58z"/>
<path class="st1" d="M24.6,60.2h-4.9v-11h-4.2v-4.4h13.3v4.4h-4.2V60.2z M20.6,59.3h3v-11h4.2v-2.6H16.4v2.5h4.2L20.6,59.3z"/>
<path class="st1" d="M38.5,60.3c-1.1,0-2.2-0.2-3.2-0.7c-1.8-0.9-3.3-2.4-4-4.3c-0.8-1.9-0.8-4,0-5.8c0.4-0.9,0.9-1.8,1.6-2.5
	c0.7-0.7,1.5-1.3,2.5-1.7c1-0.4,2.1-0.7,3.2-0.6c1.1,0,2.2,0.2,3.2,0.7c0.9,0.4,1.8,1,2.5,1.8c0.7,0.7,1.2,1.6,1.6,2.5
	c0.4,0.9,0.6,1.9,0.6,2.9c0,1-0.2,2-0.6,2.9c-0.4,0.9-0.9,1.8-1.6,2.5c-0.7,0.7-1.5,1.3-2.5,1.7C40.7,60.1,39.6,60.4,38.5,60.3z
	 M38.6,45.6c-1,0-1.9,0.2-2.8,0.6c-0.8,0.4-1.6,0.9-2.2,1.5c-0.6,0.6-1.1,1.4-1.4,2.2c-0.3,0.8-0.5,1.7-0.5,2.6
	c0,0.9,0.2,1.8,0.5,2.6c0.3,0.8,0.8,1.6,1.4,2.2c0.6,0.7,1.4,1.2,2.2,1.6c0.9,0.4,1.8,0.6,2.8,0.6c1,0,1.9-0.1,2.8-0.5
	c0.8-0.4,1.6-0.9,2.2-1.5c0.6-0.6,1.1-1.4,1.4-2.2c0.3-0.8,0.5-1.7,0.5-2.6c0-0.9-0.2-1.7-0.5-2.5c-0.3-0.8-0.8-1.6-1.4-2.2
	c-0.6-0.7-1.3-1.2-2.1-1.6C40.5,45.8,39.6,45.6,38.6,45.6z M38.6,56.8c-0.6,0-1.2-0.1-1.7-0.4c-0.5-0.2-0.9-0.6-1.2-1
	c-0.3-0.4-0.5-0.9-0.7-1.4c-0.1-0.5-0.2-1-0.2-1.6c0-0.5,0.1-1,0.2-1.5c0.1-0.5,0.4-1,0.7-1.4c0.3-0.4,0.7-0.8,1.2-1
	c0.5-0.3,1.1-0.4,1.7-0.4c1.1,0,2.2,0.5,2.8,1.3c0.3,0.4,0.5,0.8,0.7,1.3c0.1,0.5,0.2,1,0.2,1.5c0,0.5-0.1,1-0.2,1.5
	c-0.1,0.5-0.4,1-0.7,1.4C40.7,56.3,39.7,56.8,38.6,56.8L38.6,56.8z M38.6,49.2c-0.4,0-0.9,0.1-1.3,0.3c-0.3,0.2-0.6,0.4-0.9,0.7
	c-0.2,0.3-0.4,0.7-0.5,1.1c-0.1,0.4-0.2,0.8-0.2,1.3c0,0.4,0.1,0.9,0.2,1.3c0.1,0.4,0.3,0.8,0.5,1.1c0.2,0.3,0.5,0.6,0.9,0.7
	c0.4,0.2,0.8,0.3,1.3,0.3c0.8,0,1.6-0.3,2.2-1c0.2-0.3,0.4-0.7,0.5-1.1c0.1-0.4,0.2-0.9,0.2-1.3c0-0.4-0.1-0.9-0.2-1.3
	c-0.1-0.4-0.3-0.7-0.5-1c-0.2-0.3-0.5-0.5-0.9-0.7C39.4,49.2,39,49.2,38.6,49.2L38.6,49.2z"/>
<path class="st1" d="M63.4,60.2h-3.9l-5.1-6.3v6.3h-4.9V44.8h3.8l5.1,6.5v-6.5h4.9V60.2z M60,59.3h2.5V45.7h-3.1V54l-6.5-8.3h-2.4
	v13.6h3v-8L60,59.3z"/>
<path class="st1" d="M78.7,60.2H67.4V44.8h11.1v4.4h-6.2v1.1h5.3v4.2h-5.3v1.3h6.3V60.2z M68.3,59.3h9.4v-2.5h-6.3v-3.2h5.3v-2.3
	h-5.3v-3h6.2v-2.5h-9.2V59.3z"/>
<circle class="st1" cx="90.9" cy="52.3" r="8.4"/>
</svg>
