<svg id="Layer_1" data-name="Layer 1" xmlns="http://www.w3.org/2000/svg" viewBox="0 0 99.27 60.71"><defs><style>.cls-1{fill:none;stroke:#2785be;stroke-linecap:round;stroke-linejoin:round;stroke-width:6px;stroke-dasharray:30 30;}.cls-2{fill:#2785be;}.cls-3{fill:#f0494d;}.cls-4{fill:#f04a4e;}</style></defs><title>james_stone_logo</title><path class="cls-1" d="M-726-18.19" transform="translate(-4.58 -2.11)"/><path class="cls-1" d="M0,0" transform="translate(-4.58 -2.11)"/><path class="cls-2" d="M95.46,55.3a.66.66,0,0,1-.66-.66,74.68,74.68,0,0,0-.38-7.49.65.65,0,0,1,.58-.72.66.66,0,0,1,.73.59,74.34,74.34,0,0,1,.39,7.62A.65.65,0,0,1,95.46,55.3ZM94,40.59a.65.65,0,0,1-.64-.52,58.35,58.35,0,0,0-2-7.21.66.66,0,0,1,1.25-.44,59.35,59.35,0,0,1,2,7.38.66.66,0,0,1-.5.78ZM89,26.67a.66.66,0,0,1-.58-.34,27.11,27.11,0,0,0-4.29-6,.66.66,0,0,1,.94-.92A28.08,28.08,0,0,1,89.6,25.7a.66.66,0,0,1-.27.89A.58.58,0,0,1,89,26.67ZM63.11,25.46H63a.65.65,0,0,1-.54-.44c-.36-1.06-.76-2.11-1.17-3.1a.66.66,0,0,1,1.22-.5c.26.64.52,1.29.77,2,.62-.85,1.24-1.64,1.87-2.36a.66.66,0,0,1,1,.87,34.06,34.06,0,0,0-2.51,3.29A.65.65,0,0,1,63.11,25.46Zm-49.85,0a.66.66,0,0,1-.64-.49c-.47-1.85-1-3.65-1.58-5.36a.65.65,0,1,1,1.24-.42c.36,1,.69,2.12,1,3.22a.7.7,0,0,1,.58-.12.67.67,0,0,1,.47.81c-.17.6-.31,1.22-.43,1.83a.64.64,0,0,1-.63.53Zm58-7.9a.66.66,0,0,1-.3-1.24,11.21,11.21,0,0,1,5-1.27h0a10.44,10.44,0,0,1,2.76.38.66.66,0,1,1-.35,1.27A9.09,9.09,0,0,0,76,16.37h0a9.75,9.75,0,0,0-4.45,1.12A.66.66,0,0,1,71.24,17.56Zm-54.77-.64a.66.66,0,0,1-.33-.09.66.66,0,0,1-.24-.9A29.76,29.76,0,0,1,20.59,9.8a.67.67,0,0,1,.93,0,.65.65,0,0,1,0,.93A28.37,28.37,0,0,0,17,16.59.65.65,0,0,1,16.47,16.92Zm42.19-1a.65.65,0,0,1-.56-.31,31.94,31.94,0,0,0-4.58-5.81.66.66,0,0,1,.93-.94,33.1,33.1,0,0,1,4.77,6.06.65.65,0,0,1-.22.9A.63.63,0,0,1,58.66,15.88ZM9,13.34A.65.65,0,0,1,8.37,13,49.18,49.18,0,0,0,4.69,6.47a.66.66,0,0,1,.18-.91.65.65,0,0,1,.91.17A51.27,51.27,0,0,1,9.56,12.4a.66.66,0,0,1-.6.94ZM26.78,6.53a.67.67,0,0,1-.57-.33.66.66,0,0,1,.25-.9,25.23,25.23,0,0,1,7.21-2.81A.66.66,0,0,1,34,3.78a24.15,24.15,0,0,0-6.84,2.66A.63.63,0,0,1,26.78,6.53Zm21.41-.86a.68.68,0,0,1-.31-.08,20.15,20.15,0,0,0-7-2.17.65.65,0,0,1,.16-1.3,21.52,21.52,0,0,1,7.41,2.3.66.66,0,0,1-.3,1.25Z" transform="translate(-4.58 -2.11)"/><path class="cls-3" d="M8.46,40.58a5.92,5.92,0,0,1-3.41-1l-.26-.18,1.08-4.2.55.36s0,0,.21.12l.45.17a4,4,0,0,0,.65.17,3.47,3.47,0,0,0,.73.08A1.77,1.77,0,0,0,9.27,36a.88.88,0,0,0,.38-.44,3.58,3.58,0,0,0,.23-1c0-.47.06-1.05.06-1.73V24.93h4.91v7.83a22.32,22.32,0,0,1-.19,3.08,6.12,6.12,0,0,1-.86,2.5,4.5,4.5,0,0,1-2,1.67A8.27,8.27,0,0,1,8.46,40.58ZM5.85,39a5.13,5.13,0,0,0,2.61.65,7.49,7.49,0,0,0,3-.49A3.64,3.64,0,0,0,13,37.84a5.16,5.16,0,0,0,.73-2.13,22,22,0,0,0,.18-3v-6.9H10.87v6.9c0,.71,0,1.32-.06,1.81a4.13,4.13,0,0,1-.31,1.33,1.75,1.75,0,0,1-.8.89,2.65,2.65,0,0,1-1.24.26A4.7,4.7,0,0,1,7.54,37c-.28-.06-.54-.13-.76-.2l-.32-.12Z" transform="translate(-4.58 -2.11)"/><path class="cls-3" d="M31.86,40.36h-5l-.88-2.84H22.77l-.85,2.84H16.85l5.37-15.43h4.3Zm-4.35-.94h3l-4.7-13.56h-3L18.16,39.42h3.06l.86-2.83h4.55Zm-1.24-4.56H22.39l2-6.61Zm-2.62-.93H25l-.67-2.37Z" transform="translate(-4.58 -2.11)"/><path class="cls-3" d="M50.27,40.36H45.36v-6L43.7,38.09H41l-1.66-3.68v6H34.39V24.93h5.12l2.82,6.17,2.85-6.17h5.09Zm-4-.94h3.05V25.86H45.78l-3.45,7.47-3.42-7.47H35.33V39.42h3.05V32.25l.89-.19,2.3,5.1h1.52l2.31-5.1.89.19Z" transform="translate(-4.58 -2.11)"/><path class="cls-3" d="M65.54,40.36H54.28V24.93H65.36v4.4H59.19v1.11h5.27V34.6H59.19V36h6.35Zm-10.33-.94h9.4V36.89H58.26V33.67h5.27v-2.3H58.26v-3h6.17V25.86H55.21Z" transform="translate(-4.58 -2.11)"/><path class="cls-3" d="M74.71,40.54a11.09,11.09,0,0,1-1.7-.13,13.16,13.16,0,0,1-1.72-.36,15,15,0,0,1-1.64-.54,11.32,11.32,0,0,1-1.48-.73l-.37-.22,2.13-4.34.44.27a10.32,10.32,0,0,0,1.43.77,10.57,10.57,0,0,0,1.42.53,5.48,5.48,0,0,0,1.55.22,1.32,1.32,0,0,0,.65-.09s0-.05,0-.07a.2.2,0,0,0-.09-.17,1.91,1.91,0,0,0-.56-.29c-.29-.11-.62-.21-1-.32s-.82-.24-1.26-.39a11.82,11.82,0,0,1-1.72-.74A5.08,5.08,0,0,1,69.57,33a3.6,3.6,0,0,1-.76-1.26,4.69,4.69,0,0,1-.24-1.56,5.21,5.21,0,0,1,.49-2.32,4.78,4.78,0,0,1,1.32-1.69,5.46,5.46,0,0,1,1.87-1,6.94,6.94,0,0,1,2.2-.34,8.07,8.07,0,0,1,1.64.16,12.55,12.55,0,0,1,1.52.4A14.28,14.28,0,0,1,79,25.9c.41.18.79.36,1.12.53l.42.21-2.16,4.14-.43-.25a12.58,12.58,0,0,0-1.21-.63c-.35-.15-.75-.3-1.19-.44a4,4,0,0,0-1.2-.19,1.42,1.42,0,0,0-.63.11s-.06,0-.06.14a.19.19,0,0,0,0,.14,1.58,1.58,0,0,0,.39.24,7.94,7.94,0,0,0,.79.27l1.15.35a16.51,16.51,0,0,1,1.86.7,6.31,6.31,0,0,1,1.49.94,3.83,3.83,0,0,1,1,1.38,4.85,4.85,0,0,1,.34,1.92,5.15,5.15,0,0,1-.53,2.42,4.61,4.61,0,0,1-1.42,1.58,6,6,0,0,1-1.93.83A8.8,8.8,0,0,1,74.71,40.54ZM69,38.19a9.93,9.93,0,0,0,1,.45,12.63,12.63,0,0,0,1.54.51,12.81,12.81,0,0,0,1.61.34,10.55,10.55,0,0,0,1.56.12,8.7,8.7,0,0,0,1.89-.22,5.13,5.13,0,0,0,1.62-.7,3.52,3.52,0,0,0,1.12-1.26,4.14,4.14,0,0,0,.42-2,3.91,3.91,0,0,0-.27-1.55,3,3,0,0,0-.76-1,5,5,0,0,0-1.26-.79,14.61,14.61,0,0,0-1.75-.66l-1.13-.34a7.06,7.06,0,0,1-.9-.32,2.21,2.21,0,0,1-.67-.43,1.12,1.12,0,0,1-.33-.8,1.06,1.06,0,0,1,.57-1,2.35,2.35,0,0,1,1.06-.21,5.12,5.12,0,0,1,1.48.23,13.53,13.53,0,0,1,1.29.48c.3.13.59.28.88.44l1.27-2.44-.66-.3c-.39-.18-.82-.34-1.27-.5a12.49,12.49,0,0,0-1.4-.37,7.85,7.85,0,0,0-1.46-.14,6.31,6.31,0,0,0-1.91.29,4.92,4.92,0,0,0-1.58.85,3.91,3.91,0,0,0-1.06,1.37,4.45,4.45,0,0,0-.4,1.92,4,4,0,0,0,.19,1.26,2.65,2.65,0,0,0,.56.92,4,4,0,0,0,1,.77,9.5,9.5,0,0,0,1.58.67c.43.15.83.28,1.21.38s.76.23,1.07.34A2.76,2.76,0,0,1,76,35a1.11,1.11,0,0,1,.42.88,1,1,0,0,1-.46.84,2,2,0,0,1-1.17.26A6.2,6.2,0,0,1,73,36.68a12,12,0,0,1-1.55-.57c-.37-.17-.74-.36-1.1-.56Z" transform="translate(-4.58 -2.11)"/><path class="cls-3" d="M11.87,62.51a11.09,11.09,0,0,1-1.7-.13A13.16,13.16,0,0,1,8.45,62a14.31,14.31,0,0,1-1.64-.54,11.32,11.32,0,0,1-1.48-.73L5,60.53l2.13-4.34.44.27A10.32,10.32,0,0,0,9,57.23a10.57,10.57,0,0,0,1.42.53,5.49,5.49,0,0,0,1.55.23c.5,0,.64-.09.65-.1s.05,0,.05-.07a.2.2,0,0,0-.09-.17,1.91,1.91,0,0,0-.56-.29c-.29-.11-.62-.21-1-.32s-.82-.24-1.26-.39A12.47,12.47,0,0,1,8,55.91,5,5,0,0,1,6.73,55,3.65,3.65,0,0,1,6,53.71a4.79,4.79,0,0,1-.24-1.57,5.21,5.21,0,0,1,.49-2.32,4.78,4.78,0,0,1,1.32-1.69,5.46,5.46,0,0,1,1.87-1,6.94,6.94,0,0,1,2.2-.34,8.07,8.07,0,0,1,1.64.16,12.55,12.55,0,0,1,1.52.4,14.28,14.28,0,0,1,1.36.53c.41.19.79.36,1.12.53l.42.21-2.16,4.15-.43-.26a10.6,10.6,0,0,0-1.21-.62,10.66,10.66,0,0,0-1.19-.45,4.28,4.28,0,0,0-1.2-.19,1.42,1.42,0,0,0-.63.11s-.06,0-.06.14,0,.12,0,.14a1.32,1.32,0,0,0,.39.24,6,6,0,0,0,.79.27l1.15.36a14.8,14.8,0,0,1,1.86.69,6.31,6.31,0,0,1,1.49.94,3.83,3.83,0,0,1,1,1.38,4.85,4.85,0,0,1,.34,1.92,5.12,5.12,0,0,1-.53,2.42,4.52,4.52,0,0,1-1.42,1.58,6,6,0,0,1-1.93.83A8.8,8.8,0,0,1,11.87,62.51ZM6.18,60.16a9.93,9.93,0,0,0,1,.45,14.65,14.65,0,0,0,1.54.52,14.82,14.82,0,0,0,1.61.33,10.55,10.55,0,0,0,1.56.12,8.7,8.7,0,0,0,1.89-.22,5.13,5.13,0,0,0,1.62-.7,3.4,3.4,0,0,0,1.11-1.26,4,4,0,0,0,.43-2,4,4,0,0,0-.27-1.55,3,3,0,0,0-.76-1.05A5,5,0,0,0,14.63,54a14.61,14.61,0,0,0-1.75-.66L11.75,53a7.06,7.06,0,0,1-.9-.32,2.21,2.21,0,0,1-.68-.43,1.15,1.15,0,0,1-.32-.8,1.06,1.06,0,0,1,.57-1,2.35,2.35,0,0,1,1.06-.21,5.18,5.18,0,0,1,1.48.23,13.53,13.53,0,0,1,1.29.48c.3.13.59.28.88.44L16.4,49l-.66-.3a12.46,12.46,0,0,0-1.27-.49,12.51,12.51,0,0,0-1.4-.38,7.94,7.94,0,0,0-1.46-.14A6.31,6.31,0,0,0,9.7,48a5.12,5.12,0,0,0-1.58.85,3.91,3.91,0,0,0-1.06,1.37,4.45,4.45,0,0,0-.4,1.92,4,4,0,0,0,.19,1.26,2.69,2.69,0,0,0,.56.93,4,4,0,0,0,1,.76,9.5,9.5,0,0,0,1.58.67c.43.15.83.28,1.21.39s.76.22,1.07.33a2.76,2.76,0,0,1,.84.46,1.11,1.11,0,0,1,.42.88,1,1,0,0,1-.46.84,2,2,0,0,1-1.17.26,6.2,6.2,0,0,1-1.81-.27,12,12,0,0,1-1.55-.57c-.37-.17-.74-.36-1.1-.56Z" transform="translate(-4.58 -2.11)"/><path class="cls-3" d="M29.18,62.33H24.27v-11H20.08V46.9H33.35v4.4H29.18Zm-4-.93h3.05v-11h4.16V47.83H21v2.54H25.2Z" transform="translate(-4.58 -2.11)"/><path class="cls-3" d="M43.09,62.45a7.46,7.46,0,0,1-3.2-.68,7.88,7.88,0,0,1-4-4.27,7.64,7.64,0,0,1,0-5.84,7.87,7.87,0,0,1,1.64-2.49A8.06,8.06,0,0,1,40,47.46a7.7,7.7,0,0,1,3.16-.64,7.61,7.61,0,0,1,3.2.67,7.87,7.87,0,0,1,2.45,1.79,7.71,7.71,0,0,1,1.57,2.51A7.81,7.81,0,0,1,51,54.67a7.52,7.52,0,0,1-.59,2.93,7.93,7.93,0,0,1-1.63,2.47,7.84,7.84,0,0,1-2.48,1.73A7.67,7.67,0,0,1,43.09,62.45Zm.08-14.7a6.87,6.87,0,0,0-2.78.56,7.19,7.19,0,0,0-2.21,1.52A6.78,6.78,0,0,0,36.74,52a6.69,6.69,0,0,0-.51,2.57,6.9,6.9,0,0,0,.49,2.57,7.09,7.09,0,0,0,1.4,2.21,7.17,7.17,0,0,0,2.17,1.56,6.53,6.53,0,0,0,2.8.59A6.71,6.71,0,0,0,45.87,61a7.3,7.3,0,0,0,2.19-1.53,7.13,7.13,0,0,0,1.44-2.18A6.66,6.66,0,0,0,50,54.67a6.83,6.83,0,0,0-.49-2.54,7.08,7.08,0,0,0-1.38-2.22A6.87,6.87,0,0,0,46,48.34,6.53,6.53,0,0,0,43.17,47.75Zm0,11.17a3.64,3.64,0,0,1-1.7-.38,3.55,3.55,0,0,1-1.18-1,4.16,4.16,0,0,1-.69-1.36,5.4,5.4,0,0,1-.22-1.56,5.58,5.58,0,0,1,.21-1.52,4,4,0,0,1,.68-1.38,3.58,3.58,0,0,1,1.18-1,3.64,3.64,0,0,1,1.7-.38A3.55,3.55,0,0,1,46,51.68,3.84,3.84,0,0,1,46.68,53a5.38,5.38,0,0,1,.22,1.55,5.72,5.72,0,0,1-.21,1.54A4.3,4.3,0,0,1,46,57.51a3.46,3.46,0,0,1-2.9,1.41Zm0-7.64a2.58,2.58,0,0,0-1.26.28,2.52,2.52,0,0,0-.88.73,3.25,3.25,0,0,0-.53,1.07,4.92,4.92,0,0,0-.17,1.27,4.57,4.57,0,0,0,.18,1.29A3.12,3.12,0,0,0,41,57a2.52,2.52,0,0,0,.88.73,2.7,2.7,0,0,0,1.26.28,2.61,2.61,0,0,0,2.15-1,3.26,3.26,0,0,0,.51-1.08A4.73,4.73,0,0,0,46,54.59a4.55,4.55,0,0,0-.18-1.28,3.08,3.08,0,0,0-.54-1.05,2.82,2.82,0,0,0-.89-.71A2.71,2.71,0,0,0,43.11,51.28Z" transform="translate(-4.58 -2.11)"/><path class="cls-3" d="M68,62.33H64.14l-5.07-6.28v6.28H54.16V46.9H58l5.13,6.49V46.9H68Zm-3.41-.93h2.48V47.83H64v8.25L57.5,47.83H55.09V61.4h3v-8Z" transform="translate(-4.58 -2.11)"/><path class="cls-3" d="M83.26,62.33H72V46.9H83.08v4.4H76.91v1.11h5.27v4.16H76.91v1.35h6.35ZM72.93,61.4h9.4V58.86H76V55.64h5.27v-2.3H76v-3h6.17V47.83H72.93Z" transform="translate(-4.58 -2.11)"/><circle class="cls-4" cx="90.88" cy="52.32" r="8.39"/></svg>