<svg xmlns="http://www.w3.org/2000/svg" viewBox="0 0 747 288"><defs><style>.cls-1{fill:#ef4425;}.cls-2{fill:#f1c12b;}.cls-3{fill:#4e95a5;}</style></defs><title>jds_logo</title><g id="J_Bottom" data-name="J Bottom"><path class="cls-1" d="M216,0V216c0,50-12.72,72-72,72C64.67,288,0,249.29,0,216H144V0Z"/></g><g id="D"><path class="cls-2" d="M288,0V288c149.78,0,216-19.94,216-99C504,83.2,387.81,0,288,0Zm54,180V108c25,0,54.06,21.46,54.06,47.95C396.06,175.75,379.51,180,342,180Z"/></g><g id="S"><path class="cls-3" d="M693,96.1c0,26.47,29,47.9,54,47.9v72c0,54-63,72-153,72l-62.92-.29V216c37.41,0,53.92-4.25,53.92-24,0-26.43-29-47.84-53.92-47.89V141C531.08,63.15,633.1,0,711,0h36V72.09C709.53,72.09,693,76.33,693,96.1Z"/></g></svg>