<?xml version="1.0" encoding="utf-8"?>
<!-- Generator: Adobe Illustrator 22.0.1, SVG Export Plug-In . SVG Version: 6.00 Build 0)  -->
<svg version="1.1" xmlns="http://www.w3.org/2000/svg" xmlns:xlink="http://www.w3.org/1999/xlink" x="0px" y="0px"
	 viewBox="0 0 143 143" style="enable-background:new 0 0 143 143;" xml:space="preserve">
<style type="text/css">
	.st0{display:none;}
	.st1{display:inline;fill:#212121;}
	.st2{display:inline;}
	.st3{fill:none;stroke:#FFFFFF;stroke-width:2;stroke-miterlimit:10;}
	.st4{display:inline;fill-rule:evenodd;clip-rule:evenodd;fill:none;stroke:#FFFFFF;stroke-width:2;stroke-miterlimit:10;}
</style>
<g id="Layer_5" class="st0">
	<rect x="83.1" y="58.1" class="st1" width="43.3" height="27.3"/>
</g>
<g id="B" class="st0">
</g>
<g id="E" class="st0">
</g>
<g id="Linkedin">
	<g>
		<g>
			<path class="st3" d="M131.6,1H11.4C5.7,1,1,5.6,1,11.2v120.7c0,5.6,4.7,10.2,10.4,10.2h120.2c5.8,0,10.4-4.6,10.4-10.2V11.2
				C142,5.6,137.3,1,131.6,1z M42.8,121.2H21.9V53.9h20.9V121.2z M32.4,44.7c-6.7,0-12.1-5.4-12.1-12.1c0-6.7,5.4-12.1,12.1-12.1
				c6.7,0,12.1,5.4,12.1,12.1C44.5,39.2,39.1,44.7,32.4,44.7z M121.2,121.2h-20.9V88.4c0-7.8-0.1-17.8-10.9-17.8
				c-10.9,0-12.6,8.5-12.6,17.3v33.3H55.9V53.9H76v9.2h0.3c2.8-5.3,9.6-10.9,19.8-10.9c21.2,0,25.1,13.9,25.1,32.1V121.2z"/>
		</g>
	</g>
</g>
</svg>
