<?xml version="1.0" encoding="utf-8"?>
<!-- Generator: Adobe Illustrator 18.1.1, SVG Export Plug-In . SVG Version: 6.00 Build 0)  -->
<!DOCTYPE svg PUBLIC "-//W3C//DTD SVG 1.1//EN" "http://www.w3.org/Graphics/SVG/1.1/DTD/svg11.dtd">
<svg version="1.1" id="Layer_1" xmlns="http://www.w3.org/2000/svg" xmlns:xlink="http://www.w3.org/1999/xlink" x="0px" y="0px"
	 viewBox="-234.15 347.66 123.3 98.93" enable-background="new -234.15 347.66 123.3 98.93" xml:space="preserve">
<g>
	<path fill="#333333" d="M-198.02,446.59c-15.05,0-22.51-8.6-22.51-22.94V385.8h-13.62v-14.77h13.62v-18.92l17.92-4.44v23.37h18.78
		v14.77h-18.78v36.27c0,5.73,2.58,8.17,8.31,8.17c3.73,0,6.74-0.14,11.61-0.72v15.05C-187.7,445.87-192.71,446.59-198.02,446.59z"/>
	<path fill="#333333" d="M-128.77,445.58v-45.74c0-8.75-2.87-14.05-12.33-14.05c-6.31,0-10.47,4.02-12.9,9.46
		c-2.58,5.88-2.44,13.62-2.44,19.93v30.4h-17.92v-74.56h15.05l1.29,9.61c4.44-7.89,13.33-11.47,21.94-11.47
		c15.91,0,25.23,11.18,25.23,26.67v49.75L-128.77,445.58L-128.77,445.58z"/>
</g>
</svg>
