<?xml version="1.0" encoding="utf-8"?>
<!-- Generator: Adobe Illustrator 15.0.0, SVG Export Plug-In . SVG Version: 6.00 Build 0)  -->
<!DOCTYPE svg PUBLIC "-//W3C//DTD SVG 1.1//EN" "http://www.w3.org/Graphics/SVG/1.1/DTD/svg11.dtd">
<svg version="1.1" id="Layer_1" xmlns="http://www.w3.org/2000/svg" xmlns:xlink="http://www.w3.org/1999/xlink" x="0px" y="0px"
	 width="287.93px" height="170.879px" viewBox="0 0 287.93 170.879" enable-background="new 0 0 287.93 170.879"
	 xml:space="preserve">
<g>
	<path fill="#E02424" d="M232.025,80.286c-0.266-43.777-35.966-79.053-79.74-78.789c-2.36,0.015-4.689,0.151-6.995,0.367
		c40.227,3.81,71.7,37.674,71.7,78.896c0,6.167-0.729,12.162-2.062,17.924c-3.426,24.112-17.893,45.926-39.924,58.159
		c7.322-2.143,14.207-5.307,20.483-9.334l19.884,11.449l-6.78-21.953C223.169,122.534,232.156,102.45,232.025,80.286z"/>
	<path fill="#FBB03B" d="M145.16,159.668c-2.449,0.227-4.93,0.357-7.438,0.357c-23.681,0-44.924-10.396-59.447-26.859l-5.684,1.41
		c3.354,4.557,7.154,8.699,11.318,12.379l-5.58,22.428l19.384-12.646c19.21,10.75,42.766,13.512,65.152,5.596
		c4.266-1.508,8.309-3.359,12.137-5.484c-6.91,2.021-14.209,3.137-21.771,3.182C150.51,160.043,147.817,159.92,145.16,159.668z"/>
	<path fill="#FBB03B" d="M58.458,80.761c0-3.763,0.278-7.459,0.788-11.082c-3.317,14.232-2.766,29.542,2.468,44.34
		c1.171,3.312,2.542,6.498,4.091,9.549l2.717-4.157C62.122,107.975,58.458,94.799,58.458,80.761z"/>
	<path fill="#FF5B00" d="M214.928,98.684c-7.584,32.797-35.5,57.793-69.768,60.984c2.654,0.252,5.35,0.375,8.073,0.357
		c7.562-0.045,14.858-1.16,21.771-3.184C197.035,144.609,211.502,122.797,214.928,98.684z"/>
	<path fill="#00BAFF" d="M110.023,12.866c1.363-0.481,2.73-0.919,4.103-1.322c9.374-5.243,19.925-8.628,31.164-9.68
		c-2.491-0.236-5.014-0.368-7.564-0.368c-40.016,0-73.085,29.656-78.478,68.183C65.18,44.221,83.549,22.226,110.023,12.866z"/>
	<path fill="#00BAFF" d="M55.905,138.713l16.688-4.137c-2.53-3.438-4.808-7.111-6.788-11.008L55.905,138.713z"/>
	<path fill="#42009F" d="M210.965,62.07c4.404,12.457,5.702,24.379,3.963,36.614c1.333-5.762,2.062-11.756,2.062-17.923
		c0-41.223-31.477-75.087-71.701-78.896c-11.239,1.052-21.79,4.437-31.164,9.68C154.581,0.815,196.856,22.159,210.965,62.07z"/>
	<path fill="#2F8641" d="M137.723,160.025c2.509,0,4.988-0.131,7.438-0.356c-40.011-3.808-71.419-37.379-71.666-78.429
		c-0.182-29.918,16.241-56.055,40.629-69.695c-1.371,0.403-2.738,0.841-4.103,1.322C83.549,22.226,65.18,44.221,59.246,69.679
		c-0.509,3.623-0.788,7.319-0.788,11.082c0,14.039,3.664,27.214,10.062,38.65l-2.717,4.157c1.98,3.896,4.257,7.57,6.788,11.009
		l5.684-1.41C92.8,149.629,114.042,160.025,137.723,160.025z"/>
	<path d="M211.178,61.175c-14.109-39.911-56.922-61.447-97.054-49.631c-24.388,13.641-40.811,39.777-40.63,69.695
		c0.247,41.05,31.655,74.622,71.666,78.429c34.268-3.191,62.184-28.188,69.768-60.984C216.667,86.45,215.582,73.632,211.178,61.175z
		"/>
</g>
<g>
	<path fill="#FFFFFF" d="M92.479,49.532v-9.549h0.718v9.549H92.479z"/>
	<path fill="#FFFFFF" d="M101.524,42.268c0.948,0,2.814,0.302,2.814,3.504c0,2.844-1.32,3.963-3.072,3.963s-2.829-1.234-2.829-3.819
		C98.437,42.956,100.146,42.268,101.524,42.268z M103.621,46.029c0-1.794-0.574-3.146-2.185-3.146c-1.562,0-2.283,1.266-2.283,2.931
		c0,1.479,0.33,3.332,2.214,3.332C102.932,49.146,103.621,47.651,103.621,46.029z"/>
	<path fill="#FFFFFF" d="M106.995,52.549h-0.72V41.692c0-0.904,0.229-2.283,2.185-2.283c0.531,0,1.275,0.188,1.594,0.359
		l-0.244,0.573c-0.345-0.156-0.891-0.315-1.436-0.315c-1.077,0-1.379,0.662-1.379,1.709v0.731h2.341v0.574h-2.341V52.549z"/>
	<path fill="#FFFFFF" d="M111.288,39.555v2.913h2.125v0.574h-2.125v4.782c0,1.033,0.4,1.321,1.12,1.321
		c0.546,0,0.933-0.229,1.178-0.39l0.271,0.503c-0.4,0.303-0.988,0.475-1.491,0.475c-1.565,0-1.797-0.832-1.797-1.967v-8.214h0.72
		V39.555L111.288,39.555z"/>
	<path fill="#FFFFFF" d="M119.989,43.905c0,2.426-3.303,2.512-4.479,2.411c0.044,1.349,0.646,2.8,2.37,2.8
		c1.048,0,1.649-0.516,1.853-0.675l0.358,0.503c-0.444,0.373-1.192,0.789-2.196,0.789c-2.152,0-3.088-1.521-3.088-3.66
		c0-2.127,1.178-3.807,3.217-3.807C119.315,42.268,119.989,42.97,119.989,43.905z M117.993,42.841c-1.779,0-2.428,1.71-2.471,2.888
		c0.774,0.071,3.732,0.016,3.732-1.666C119.257,43.286,118.741,42.841,117.993,42.841z"/>
	<path fill="#FFFFFF" d="M121.641,49.532v-6.116l-0.059-0.948h0.646l0.129,1.105c0.574-0.86,1.451-1.307,2.387-1.307
		c1.49,0,2.268,0.848,2.268,2.455v4.811h-0.718v-4.494c0-1.19-0.272-2.182-1.682-2.182c-1.264,0-2.255,1.049-2.255,1.979v4.695
		L121.641,49.532L121.641,49.532z"/>
	<path fill="#FFFFFF" d="M133.184,52.549h-0.717V41.692c0-1.105,0.344-2.283,2.44-2.283c0.847,0,1.821,0.316,2.325,0.547
		l-0.246,0.573c-0.717-0.286-1.393-0.503-2.168-0.503c-1.248,0-1.637,0.576-1.637,1.709v0.731h4.15v7.064h-0.72v-6.49h-3.433v9.508
		L133.184,52.549L133.184,52.549z"/>
	<path fill="#FFFFFF" d="M139.646,49.532v-6.116l-0.058-0.948h0.646l0.129,1.105c0.574-0.86,1.45-1.307,2.387-1.307
		c1.492,0,2.269,0.848,2.269,2.455v4.811H144.3v-4.494c0-1.19-0.273-2.182-1.681-2.182c-1.267,0-2.257,1.049-2.257,1.979v4.695
		L139.646,49.532L139.646,49.532z"/>
	<path fill="#FFFFFF" d="M151.953,42.583v-3.028h0.719v8.772l0.086,1.205h-0.675l-0.087-0.918l-0.043-0.014
		c-0.66,0.875-1.493,1.133-2.228,1.133c-1.996,0-2.786-1.579-2.786-3.574c0-2.398,1.164-3.893,3.289-3.893
		C150.891,42.268,151.407,42.396,151.953,42.583z M151.953,43.286c-0.389-0.215-1.021-0.416-1.823-0.416
		c-1.709,0-2.47,1.307-2.47,3.174c0,1.595,0.46,3.086,2.125,3.086c1.362,0,2.168-0.945,2.168-1.766V43.286z"/>
	<path fill="#FFFFFF" d="M158.83,52.549h-0.72v-9.895c0.948-0.243,1.694-0.388,2.413-0.388c2.254,0,3.188,1.25,3.188,3.646
		c0,2.47-1.062,3.819-2.801,3.819c-0.818,0-1.564-0.287-2.082-0.66L158.83,52.549L158.83,52.549z M160.553,42.884
		c-0.573,0-1.249,0.103-1.723,0.273v5.141c0.46,0.459,1.362,0.832,2.082,0.832c1.104,0,2.082-0.76,2.082-3.057
		C162.994,44.436,162.664,42.884,160.553,42.884z"/>
	<path fill="#FFFFFF" d="M170.476,43.905c0,2.426-3.303,2.512-4.479,2.411c0.042,1.349,0.646,2.8,2.368,2.8
		c1.049,0,1.649-0.516,1.853-0.675l0.359,0.503c-0.445,0.373-1.192,0.789-2.197,0.789c-2.154,0-3.088-1.521-3.088-3.66
		c0-2.127,1.179-3.807,3.217-3.807C169.8,42.268,170.476,42.97,170.476,43.905z M168.481,42.841c-1.779,0-2.428,1.71-2.471,2.888
		c0.775,0.071,3.733,0.016,3.733-1.666C169.743,43.286,169.227,42.841,168.481,42.841z"/>
	<path fill="#FFFFFF" d="M174.84,42.268c0.948,0,2.812,0.302,2.812,3.504c0,2.844-1.318,3.963-3.07,3.963s-2.829-1.234-2.829-3.819
		C171.753,42.956,173.461,42.268,174.84,42.268z M176.937,46.029c0-1.794-0.575-3.146-2.183-3.146c-1.565,0-2.283,1.266-2.283,2.931
		c0,1.479,0.33,3.332,2.211,3.332C176.247,49.146,176.937,47.651,176.937,46.029z"/>
	<path fill="#FFFFFF" d="M180.297,52.549h-0.719v-9.895c0.946-0.243,1.692-0.388,2.412-0.388c2.255,0,3.188,1.25,3.188,3.646
		c0,2.47-1.062,3.819-2.8,3.819c-0.818,0-1.565-0.287-2.081-0.66V52.549z M182.019,42.884c-0.573,0-1.249,0.103-1.722,0.273v5.141
		c0.459,0.459,1.363,0.832,2.081,0.832c1.104,0,2.082-0.76,2.082-3.057C184.46,44.436,184.13,42.884,182.019,42.884z"/>
	<path fill="#FFFFFF" d="M187.865,39.567v7.94c0,1.248,0.216,1.638,1.005,1.638c0.357,0,0.719-0.115,0.977-0.244l0.188,0.531
		c-0.244,0.156-0.72,0.301-1.293,0.301c-1.521,0-1.595-1.006-1.595-2.152v-8.014H187.865z"/>
	<path fill="#FFFFFF" d="M196.077,43.905c0,2.426-3.306,2.512-4.481,2.411c0.044,1.349,0.647,2.8,2.37,2.8
		c1.049,0,1.651-0.516,1.853-0.675l0.358,0.503c-0.445,0.373-1.191,0.789-2.197,0.789c-2.15,0-3.087-1.521-3.087-3.66
		c0-2.127,1.178-3.807,3.217-3.807C195.402,42.268,196.077,42.97,196.077,43.905z M194.081,42.841c-1.78,0-2.429,1.71-2.472,2.888
		c0.775,0.071,3.733,0.016,3.733-1.666C195.345,43.286,194.828,42.841,194.081,42.841z"/>
	<path fill="#FFFFFF" d="M88.81,66.764v-6.117L88.724,59.7h0.617l0.13,1.092c0.516-0.848,1.406-1.293,2.254-1.293
		c0.99,0,1.709,0.416,2.111,1.449c0.459-0.976,1.393-1.449,2.297-1.449c1.508,0,2.312,0.92,2.312,2.527v4.738h-0.718v-4.48
		c0-1.134-0.258-2.195-1.723-2.195c-1.121,0-2.01,0.961-2.01,1.908v4.769h-0.721V62.3c0-1.006-0.156-2.211-1.723-2.211
		c-1.164,0-2.025,1.02-2.025,2.01v4.667L88.81,66.764L88.81,66.764z"/>
	<path fill="#FFFFFF" d="M101.116,57.07c0.314,0,0.572,0.259,0.572,0.603c0,0.373-0.271,0.619-0.589,0.619
		c-0.33,0-0.574-0.246-0.574-0.619C100.527,57.329,100.786,57.07,101.116,57.07z M100.757,66.764V59.7h0.718v7.064H100.757z"/>
	<path fill="#FFFFFF" d="M108.425,59.698l-2.312,3.332l2.473,3.732h-0.732l-2.141-3.202l-2.227,3.202h-0.719l2.57-3.72l-2.239-3.346
		h0.761l1.883,2.872l1.951-2.872L108.425,59.698L108.425,59.698z"/>
	<path fill="#FFFFFF" d="M110.262,57.07c0.316,0,0.574,0.259,0.574,0.603c0,0.373-0.273,0.619-0.589,0.619
		c-0.33,0-0.575-0.246-0.575-0.619C109.673,57.329,109.932,57.07,110.262,57.07z M109.903,66.764V59.7h0.721v7.064H109.903z"/>
	<path fill="#FFFFFF" d="M112.932,66.764v-6.117l-0.057-0.947h0.646l0.13,1.105c0.574-0.861,1.449-1.308,2.385-1.308
		c1.492,0,2.27,0.849,2.27,2.455v4.812h-0.719V62.27c0-1.192-0.272-2.183-1.682-2.183c-1.264,0-2.254,1.048-2.254,1.98v4.695
		L112.932,66.764L112.932,66.764z"/>
	<path fill="#FFFFFF" d="M120.945,68.73c0-1.278,1.034-2.024,1.969-2.527c-1.309-0.087-2.687-0.718-2.687-3.173
		c0-2.398,1.363-3.533,3.23-3.533c0.747,0,1.766,0.145,2.541,0.475v6.376c0,0.646-0.043,1.363-0.157,1.908
		c-0.316,1.438-1.264,2.283-2.743,2.283C121.691,70.539,120.945,69.879,120.945,68.73z M125.281,60.402
		c-0.519-0.202-1.163-0.331-1.896-0.331c-1.092,0-2.44,0.561-2.44,2.813c0,1.222,0.229,2.814,2.239,2.814
		c1.178,0,2.097-0.805,2.097-1.996L125.281,60.402L125.281,60.402z M123.113,69.938c1.651,0,2.153-1.479,2.153-3.203v-1.22
		c-2.498,1.148-3.604,2.023-3.604,3.158C121.663,69.577,122.266,69.938,123.113,69.938z"/>
	<path fill="#FFFFFF" d="M132.173,56.783v2.915h2.125v0.574h-2.125v4.78c0,1.034,0.402,1.322,1.121,1.322
		c0.545,0,0.933-0.229,1.177-0.389l0.272,0.503c-0.402,0.302-0.99,0.474-1.492,0.474c-1.566,0-1.795-0.833-1.795-1.967v-8.214
		L132.173,56.783L132.173,56.783z"/>
	<path fill="#FFFFFF" d="M140.874,61.135c0,2.427-3.304,2.514-4.479,2.411c0.043,1.351,0.646,2.802,2.37,2.802
		c1.047,0,1.65-0.518,1.854-0.677l0.357,0.503c-0.445,0.374-1.189,0.79-2.197,0.79c-2.152,0-3.088-1.521-3.088-3.661
		c0-2.126,1.18-3.806,3.219-3.806C140.2,59.497,140.874,60.2,140.874,61.135z M138.878,60.071c-1.78,0-2.426,1.709-2.469,2.887
		c0.773,0.072,3.731,0.016,3.731-1.666C140.142,60.518,139.625,60.071,138.878,60.071z"/>
	<path fill="#FFFFFF" d="M143.243,66.764h-0.72V60.53l-0.058-0.832h0.66l0.115,1.092c0.229-0.676,0.934-1.293,1.824-1.293
		c0.476,0,0.892,0.129,1.119,0.273l-0.259,0.603c-0.271-0.144-0.631-0.259-0.99-0.259c-1.006,0-1.638,0.962-1.694,2.024
		L143.243,66.764L143.243,66.764z"/>
	<path fill="#FFFFFF" d="M147.337,66.764v-6.117L147.25,59.7h0.618l0.129,1.092c0.518-0.848,1.405-1.293,2.254-1.293
		c0.991,0,1.71,0.416,2.109,1.449c0.459-0.976,1.396-1.449,2.299-1.449c1.508,0,2.312,0.92,2.312,2.527v4.738h-0.718v-4.48
		c0-1.134-0.259-2.195-1.726-2.195c-1.118,0-2.01,0.961-2.01,1.908v4.769H151.8V62.3c0-1.006-0.157-2.211-1.722-2.211
		c-1.164,0-2.025,1.02-2.025,2.01v4.667L147.337,66.764L147.337,66.764z"/>
	<path fill="#FFFFFF" d="M158.939,65.758c0.39,0.26,1.062,0.618,1.953,0.618c0.849,0,1.651-0.46,1.651-1.438
		c0-0.961-0.732-1.248-1.651-1.492c-1.034-0.273-2.14-0.575-2.14-1.968c0-1.378,1.092-1.981,2.254-1.981
		c0.977,0,1.781,0.445,2.227,0.935l-0.443,0.473c-0.433-0.443-1.062-0.816-1.867-0.816c-0.689,0-1.508,0.345-1.508,1.334
		c0,0.904,0.762,1.164,1.681,1.437c1.02,0.303,2.14,0.59,2.14,2.012c0,1.35-0.989,2.096-2.368,2.096
		c-1.105,0-1.981-0.416-2.24-0.659L158.939,65.758z"/>
	<path fill="#FFFFFF" d="M176.972,59.698c0.259,0.848,0.532,1.752,0.532,2.9c0,2.542-0.862,4.364-2.93,4.364
		c-1.093,0-1.709-0.604-1.896-1.508c-0.66,1.149-1.521,1.508-2.44,1.508c-1.393,0-2.152-0.731-2.152-2.354v-4.91h0.719v4.221
		c0,1.223,0.027,2.457,1.536,2.457c1.178,0,2.081-1.006,2.081-2.04v-4.638h0.719v4.308c0,1.192,0.086,2.37,1.508,2.37
		c1.952,0,2.168-2.37,2.168-3.705c0-1.234-0.302-2.125-0.546-2.973H176.972z"/>
	<path fill="#FFFFFF" d="M179.499,66.764v-9.979h0.719v3.949c0.603-0.876,1.536-1.235,2.384-1.235c1.492,0,2.271,0.833,2.271,2.441
		v4.824h-0.72v-4.537c0-1.12-0.243-2.14-1.724-2.14c-1.206,0-2.211,1.048-2.211,2.01v4.667H179.499z"/>
	<path fill="#FFFFFF" d="M191.978,61.135c0,2.427-3.303,2.514-4.479,2.411c0.043,1.351,0.646,2.802,2.37,2.802
		c1.049,0,1.649-0.518,1.852-0.677l0.359,0.503c-0.445,0.374-1.191,0.79-2.197,0.79c-2.152,0-3.087-1.521-3.087-3.661
		c0-2.126,1.178-3.806,3.217-3.806C191.303,59.497,191.978,60.2,191.978,61.135z M189.983,60.071c-1.779,0-2.427,1.709-2.47,2.887
		c0.775,0.072,3.733,0.016,3.733-1.666C191.246,60.518,190.729,60.071,189.983,60.071z"/>
	<path fill="#FFFFFF" d="M193.628,66.764v-6.117L193.57,59.7h0.646l0.13,1.105c0.573-0.861,1.449-1.308,2.384-1.308
		c1.493,0,2.271,0.849,2.271,2.455v4.812h-0.718V62.27c0-1.192-0.272-2.183-1.683-2.183c-1.264,0-2.254,1.048-2.254,1.98v4.695
		L193.628,66.764L193.628,66.764z"/>
	<path fill="#FFFFFF" d="M89.708,74.016v2.914h2.125v0.574h-2.125v4.782c0,1.032,0.4,1.321,1.12,1.321
		c0.546,0,0.933-0.229,1.177-0.389l0.271,0.502c-0.4,0.303-0.988,0.473-1.491,0.473c-1.565,0-1.795-0.832-1.795-1.965v-8.213
		L89.708,74.016L89.708,74.016z"/>
	<path fill="#FFFFFF" d="M98.955,82.846l0.101,1.146h-0.688L98.28,83.09l-0.027-0.016c-0.401,0.576-1.091,1.119-2.239,1.119
		c-2.097,0-2.8-1.521-2.8-3.43c0-2.542,1.177-4.035,3.503-4.035c0.431,0,1.394,0.113,2.24,0.416L98.955,82.846L98.955,82.846z
		 M98.237,77.647c-0.285-0.145-0.962-0.304-1.681-0.304c-1.967,0-2.628,1.51-2.628,3.521c0,1.291,0.417,2.743,2.141,2.743
		c1.423,0,2.168-0.948,2.168-1.868V77.647z"/>
	<path fill="#FFFFFF" d="M101.983,74.028v7.94c0,1.25,0.219,1.639,1.006,1.639c0.359,0,0.721-0.116,0.979-0.246l0.187,0.533
		c-0.242,0.156-0.718,0.299-1.292,0.299c-1.521,0-1.594-1.002-1.594-2.151v-8.013L101.983,74.028L101.983,74.028z"/>
	<path fill="#FFFFFF" d="M110.384,78.537c0,0.962-0.502,2.067-1.838,2.643l1.781,2.812h-0.833l-1.651-2.584
		c-0.502,0.115-1.076,0.174-1.737,0.158v2.426h-0.718v-9.978h0.718v4.866c0.33-1.032,1.235-2.152,2.613-2.152
		C109.896,76.729,110.384,77.504,110.384,78.537z M108.633,77.331c-1.351,0-2.44,2.068-2.542,3.619
		c2.427,0.143,3.561-1.121,3.561-2.354C109.651,77.863,109.35,77.331,108.633,77.331z"/>
	<path fill="#FFFFFF" d="M112.567,74.302c0.315,0,0.574,0.26,0.574,0.604c0,0.374-0.271,0.618-0.59,0.618
		c-0.33,0-0.574-0.244-0.574-0.618C111.977,74.562,112.236,74.302,112.567,74.302z M112.208,83.993V76.93h0.718v7.063H112.208z"/>
	<path fill="#FFFFFF" d="M115.237,83.993v-6.116l-0.057-0.947h0.646l0.13,1.104c0.572-0.86,1.447-1.306,2.383-1.306
		c1.494,0,2.269,0.847,2.269,2.454v4.81h-0.718v-4.494c0-1.19-0.271-2.182-1.68-2.182c-1.266,0-2.254,1.047-2.254,1.98v4.694h-0.721
		L115.237,83.993L115.237,83.993z"/>
	<path fill="#FFFFFF" d="M123.249,85.961c0-1.277,1.035-2.023,1.968-2.527c-1.308-0.086-2.686-0.717-2.686-3.173
		c0-2.396,1.362-3.531,3.229-3.531c0.746,0,1.766,0.144,2.541,0.474v6.375c0,0.648-0.043,1.365-0.158,1.912
		c-0.313,1.434-1.264,2.28-2.742,2.28C123.996,87.77,123.249,87.109,123.249,85.961z M127.586,77.634
		c-0.519-0.201-1.163-0.332-1.896-0.332c-1.092,0-2.439,0.562-2.439,2.816c0,1.22,0.229,2.813,2.238,2.813
		c1.18,0,2.099-0.805,2.099-1.997L127.586,77.634L127.586,77.634z M125.418,87.167c1.649,0,2.151-1.478,2.151-3.201v-1.221
		c-2.496,1.149-3.604,2.024-3.604,3.16C123.968,86.809,124.57,87.167,125.418,87.167z"/>
	<path fill="#FFFFFF" d="M139.116,82.846l0.1,1.146h-0.689l-0.086-0.902l-0.025-0.016c-0.402,0.576-1.092,1.119-2.24,1.119
		c-2.098,0-2.801-1.521-2.801-3.43c0-2.542,1.178-4.035,3.504-4.035c0.43,0,1.393,0.113,2.24,0.416L139.116,82.846L139.116,82.846z
		 M138.397,77.647c-0.287-0.145-0.962-0.304-1.68-0.304c-1.967,0-2.628,1.51-2.628,3.521c0,1.291,0.417,2.743,2.14,2.743
		c1.422,0,2.168-0.948,2.168-1.868V77.647z"/>
	<path fill="#FFFFFF" d="M141.412,74.016h0.719v3.688c0.532-0.646,1.292-0.976,2.139-0.976c1.797,0,2.844,1.32,2.844,3.331
		c0,2.813-1.117,4.134-3.044,4.134c-0.903,0-2.098-0.271-2.655-0.646L141.412,74.016L141.412,74.016z M142.131,83.118
		c0.373,0.229,1.119,0.475,1.924,0.475c1.107,0,2.342-0.59,2.342-3.403c0-1.062-0.389-2.857-2.285-2.857
		c-1.049,0-1.979,0.703-1.979,1.652L142.131,83.118L142.131,83.118z"/>
	<path fill="#FFFFFF" d="M151.766,76.729c0.948,0,2.815,0.301,2.815,3.503c0,2.843-1.321,3.961-3.073,3.961
		s-2.829-1.233-2.829-3.817C148.679,77.417,150.387,76.729,151.766,76.729z M153.863,80.491c0-1.795-0.573-3.146-2.182-3.146
		c-1.564,0-2.284,1.266-2.284,2.931c0,1.479,0.33,3.332,2.212,3.332C153.173,83.607,153.863,82.111,153.863,80.491z"/>
	<path fill="#FFFFFF" d="M161.874,76.93v6.118l0.069,0.945h-0.658l-0.129-1.062c-0.562,0.889-1.479,1.262-2.386,1.262
		c-1.493,0-2.269-0.788-2.269-2.396V76.93h0.719v4.551c0,1.191,0.272,2.127,1.736,2.127c1.146,0,2.195-1.021,2.195-1.955V76.93
		H161.874z"/>
	<path fill="#FFFFFF" d="M164.905,74.016v2.914h2.125v0.574h-2.125v4.782c0,1.032,0.402,1.321,1.119,1.321
		c0.546,0,0.937-0.229,1.181-0.389l0.271,0.502c-0.4,0.303-0.991,0.473-1.494,0.473c-1.562,0-1.795-0.832-1.795-1.965v-8.213
		L164.905,74.016L164.905,74.016z"/>
	<path fill="#FFFFFF" d="M172.672,74.016v2.914h2.125v0.574h-2.125v4.782c0,1.032,0.402,1.321,1.119,1.321
		c0.546,0,0.935-0.229,1.178-0.389l0.273,0.502c-0.402,0.303-0.991,0.473-1.494,0.473c-1.565,0-1.795-0.832-1.795-1.965v-8.213
		L172.672,74.016L172.672,74.016z"/>
	<path fill="#FFFFFF" d="M181.89,84.109c0,0.703-0.087,1.449-0.271,1.98c-0.389,1.076-1.222,1.726-2.557,1.726
		c-1.408,0-2.065-0.69-2.065-1.752c0-1.222,0.987-2.069,1.636-2.472c-1.12-0.086-2.082-0.604-2.082-2.369V76.93h0.719v4.006
		c0,1.176,0.114,2.125,1.896,2.125c1.091,0,2.038-0.789,2.038-1.91V76.93h0.688L181.89,84.109L181.89,84.109z M179.118,87.225
		c1.509,0,2.054-1.275,2.054-3.042v-1.279c-2.024,0.806-3.461,1.623-3.461,3.087C177.711,86.809,178.229,87.225,179.118,87.225z"/>
	<path fill="#FFFFFF" d="M184.906,87.01h-0.72v-9.894c0.947-0.244,1.694-0.388,2.412-0.388c2.255,0,3.188,1.249,3.188,3.646
		c0,2.471-1.062,3.818-2.802,3.818c-0.817,0-1.563-0.287-2.08-0.66L184.906,87.01L184.906,87.01z M186.628,77.345
		c-0.574,0-1.249,0.104-1.725,0.273v5.142c0.462,0.459,1.363,0.832,2.082,0.832c1.105,0,2.081-0.762,2.081-3.058
		C189.069,78.896,188.74,77.345,186.628,77.345z"/>
	<path fill="#FFFFFF" d="M196.551,78.364c0,2.428-3.304,2.514-4.48,2.413c0.045,1.35,0.646,2.799,2.369,2.799
		c1.051,0,1.651-0.516,1.854-0.674l0.357,0.502c-0.442,0.373-1.189,0.789-2.195,0.789c-2.153,0-3.087-1.521-3.087-3.66
		c0-2.127,1.178-3.806,3.217-3.806C195.875,76.729,196.551,77.433,196.551,78.364z M194.555,77.302c-1.781,0-2.427,1.711-2.47,2.888
		c0.773,0.071,3.731,0.014,3.731-1.665C195.819,77.747,195.301,77.302,194.555,77.302z"/>
	<path fill="#FFFFFF" d="M198.459,82.688c0.444,0,0.747,0.287,0.747,0.718c0,0.446-0.287,0.762-0.703,0.762
		c-0.46,0-0.747-0.287-0.747-0.746C197.756,82.989,198.073,82.688,198.459,82.688z"/>
	<path fill="#FFFFFF" d="M110.643,101.676v9.547h-0.719v-4.725h-5.585v4.725h-0.719v-9.547h0.719v4.205h5.585v-4.205H110.643z"/>
	<path fill="#FFFFFF" d="M115.811,103.958c0.948,0,2.814,0.303,2.814,3.504c0,2.845-1.32,3.963-3.072,3.963
		s-2.829-1.233-2.829-3.817C112.724,104.648,114.433,103.958,115.811,103.958z M117.908,107.721c0-1.795-0.574-3.146-2.185-3.146
		c-1.562,0-2.283,1.264-2.283,2.93c0,1.479,0.33,3.334,2.211,3.334C117.219,110.838,117.908,109.342,117.908,107.721z"/>
	<path fill="#FFFFFF" d="M121.267,114.239h-0.718v-9.894c0.947-0.244,1.695-0.39,2.412-0.39c2.255,0,3.188,1.25,3.188,3.647
		c0,2.472-1.062,3.817-2.8,3.817c-0.819,0-1.563-0.287-2.083-0.659L121.267,114.239L121.267,114.239z M122.991,104.575
		c-0.574,0-1.25,0.102-1.726,0.272v5.142c0.46,0.461,1.364,0.834,2.083,0.834c1.105,0,2.082-0.763,2.082-3.06
		C125.432,106.125,125.101,104.575,122.991,104.575z"/>
	<path fill="#FFFFFF" d="M132.913,105.596c0,2.426-3.305,2.512-4.48,2.41c0.043,1.352,0.646,2.801,2.369,2.801
		c1.049,0,1.651-0.516,1.853-0.676l0.358,0.504c-0.445,0.373-1.191,0.789-2.196,0.789c-2.152,0-3.088-1.521-3.088-3.66
		c0-2.125,1.181-3.807,3.217-3.807C132.237,103.958,132.913,104.661,132.913,105.596z M130.917,104.532
		c-1.781,0-2.427,1.711-2.472,2.887c0.774,0.072,3.733,0.017,3.733-1.666C132.18,104.979,131.663,104.532,130.917,104.532z"/>
	<path fill="#FFFFFF" d="M135.282,114.239h-0.721v-10.856c0-0.902,0.23-2.281,2.185-2.281c0.53,0,1.276,0.188,1.595,0.357
		l-0.244,0.574c-0.346-0.158-0.891-0.314-1.438-0.314c-1.076,0-1.377,0.66-1.377,1.709v0.73h2.34v0.576h-2.34V114.239z"/>
	<path fill="#FFFFFF" d="M144.214,104.159v6.116l0.07,0.947h-0.66l-0.129-1.062c-0.562,0.889-1.479,1.262-2.386,1.262
		c-1.491,0-2.269-0.789-2.269-2.396v-4.868h0.719v4.551c0,1.192,0.272,2.129,1.736,2.129c1.146,0,2.197-1.021,2.197-1.955v-4.725
		H144.214z"/>
	<path fill="#FFFFFF" d="M147.258,101.258v7.941c0,1.25,0.216,1.639,1.005,1.639c0.359,0,0.719-0.117,0.979-0.246l0.187,0.531
		c-0.243,0.158-0.717,0.301-1.292,0.301c-1.522,0-1.593-1.004-1.593-2.152v-8.014H147.258z"/>
	<path fill="#FFFFFF" d="M151.394,101.258v7.941c0,1.25,0.216,1.639,1.005,1.639c0.359,0,0.721-0.117,0.979-0.246l0.187,0.531
		c-0.244,0.158-0.718,0.301-1.292,0.301c-1.521,0-1.594-1.004-1.594-2.152v-8.014H151.394z"/>
	<path fill="#FFFFFF" d="M160.124,111.34c0,0.703-0.087,1.449-0.273,1.98c-0.387,1.076-1.22,1.723-2.555,1.723
		c-1.408,0-2.068-0.689-2.068-1.752c0-1.221,0.99-2.068,1.639-2.469c-1.12-0.086-2.082-0.604-2.082-2.369v-4.295h0.719v4.006
		c0,1.178,0.114,2.127,1.896,2.127c1.093,0,2.038-0.789,2.038-1.912v-4.221h0.689L160.124,111.34L160.124,111.34z M157.353,114.456
		c1.508,0,2.056-1.276,2.056-3.045v-1.279c-2.024,0.806-3.463,1.625-3.463,3.089C155.946,114.04,156.463,114.456,157.353,114.456z"
		/>
	<path fill="#FFFFFF" d="M166.312,101.245v2.914h2.125v0.575h-2.125v4.779c0,1.034,0.402,1.323,1.12,1.323
		c0.546,0,0.936-0.231,1.178-0.389l0.273,0.502c-0.402,0.303-0.992,0.473-1.494,0.473c-1.563,0-1.795-0.832-1.795-1.965v-8.215
		L166.312,101.245L166.312,101.245z"/>
	<path fill="#FFFFFF" d="M170.202,111.223v-9.979h0.719v3.949c0.603-0.875,1.536-1.236,2.384-1.236c1.493,0,2.271,0.834,2.271,2.443
		v4.822h-0.72v-4.537c0-1.119-0.244-2.141-1.724-2.141c-1.206,0-2.211,1.051-2.211,2.012v4.666H170.202L170.202,111.223z"/>
	<path fill="#FFFFFF" d="M178.244,101.532c0.313,0,0.572,0.258,0.572,0.604c0,0.373-0.271,0.617-0.589,0.617
		c-0.33,0-0.571-0.244-0.571-0.617C177.656,101.79,177.914,101.532,178.244,101.532z M177.886,111.223v-7.062h0.717v7.062H177.886z"
		/>
	<path fill="#FFFFFF" d="M180.584,110.219c0.389,0.258,1.062,0.619,1.954,0.619c0.847,0,1.649-0.461,1.649-1.438
		c0-0.963-0.73-1.25-1.649-1.492c-1.034-0.275-2.143-0.576-2.143-1.969c0-1.379,1.092-1.982,2.255-1.982
		c0.978,0,1.78,0.447,2.229,0.934l-0.446,0.477c-0.43-0.445-1.062-0.818-1.867-0.818c-0.688,0-1.508,0.346-1.508,1.334
		c0,0.904,0.762,1.164,1.683,1.438c1.02,0.304,2.141,0.591,2.141,2.011c0,1.351-0.992,2.096-2.37,2.096
		c-1.104,0-1.98-0.416-2.24-0.659L180.584,110.219z"/>
	<path fill="#FFFFFF" d="M122.675,128.454v-9.979h0.719v3.949c0.604-0.877,1.536-1.236,2.383-1.236c1.494,0,2.271,0.832,2.271,2.441
		v4.824h-0.719v-4.537c0-1.119-0.244-2.139-1.725-2.139c-1.206,0-2.211,1.047-2.211,2.01v4.666L122.675,128.454L122.675,128.454z"/>
	<path fill="#FFFFFF" d="M135.153,122.825c0,2.428-3.303,2.514-4.479,2.411c0.043,1.353,0.646,2.802,2.369,2.802
		c1.049,0,1.649-0.517,1.853-0.677l0.358,0.505c-0.445,0.372-1.191,0.788-2.196,0.788c-2.153,0-3.087-1.521-3.087-3.661
		c0-2.125,1.178-3.806,3.216-3.806C134.478,121.188,135.153,121.891,135.153,122.825z M133.157,121.762
		c-1.781,0-2.429,1.711-2.472,2.887c0.774,0.072,3.733,0.016,3.733-1.666C134.421,122.208,133.903,121.762,133.157,121.762z"/>
	<path fill="#FFFFFF" d="M137.536,118.489v7.94c0,1.25,0.215,1.637,1.006,1.637c0.355,0,0.717-0.114,0.977-0.246l0.188,0.533
		c-0.243,0.157-0.72,0.301-1.291,0.301c-1.522,0-1.597-1.004-1.597-2.153v-8.013L137.536,118.489L137.536,118.489z"/>
	<path fill="#FFFFFF" d="M141.643,131.469h-0.719v-9.893c0.948-0.244,1.694-0.389,2.412-0.389c2.256,0,3.188,1.25,3.188,3.646
		c0,2.471-1.062,3.816-2.801,3.816c-0.816,0-1.563-0.285-2.081-0.658L141.643,131.469L141.643,131.469z M143.366,121.805
		c-0.574,0-1.25,0.104-1.725,0.273v5.141c0.459,0.461,1.363,0.834,2.081,0.834c1.107,0,2.083-0.762,2.083-3.061
		C145.808,123.355,145.478,121.805,143.366,121.805z"/>
	<path fill="#FFFFFF" d="M148.148,127.448c0.391,0.26,1.062,0.618,1.954,0.618c0.849,0,1.651-0.459,1.651-1.437
		c0-0.963-0.732-1.25-1.651-1.494c-1.035-0.272-2.141-0.575-2.141-1.967c0-1.379,1.092-1.981,2.255-1.981
		c0.976,0,1.78,0.446,2.226,0.935l-0.443,0.476c-0.432-0.445-1.062-0.818-1.867-0.818c-0.688,0-1.508,0.345-1.508,1.334
		c0,0.904,0.762,1.164,1.681,1.438c1.021,0.302,2.14,0.589,2.14,2.011c0,1.351-0.989,2.097-2.367,2.097
		c-1.105,0-1.981-0.416-2.24-0.66L148.148,127.448z"/>
	<path fill="#FFFFFF" d="M154.408,127.148c0.443,0,0.744,0.287,0.744,0.718c0,0.444-0.285,0.76-0.701,0.76
		c-0.459,0-0.746-0.287-0.746-0.746C153.705,127.448,154.021,127.148,154.408,127.148z"/>
	<path fill="#FFFFFF" d="M160.453,121.534c0.443,0,0.746,0.286,0.746,0.719c0,0.442-0.287,0.761-0.703,0.761
		c-0.46,0-0.746-0.289-0.746-0.748C159.75,121.834,160.066,121.534,160.453,121.534z M160.453,127.148
		c0.443,0,0.746,0.287,0.746,0.718c0,0.444-0.287,0.76-0.703,0.76c-0.46,0-0.746-0.287-0.746-0.746
		C159.75,127.448,160.066,127.148,160.453,127.148z"/>
	<path fill="#FFFFFF" d="M163.196,130.579l-0.646-0.256c0.962-1.984,1.565-3.894,1.565-5.832c0-2.023-0.592-3.818-1.608-5.802
		l0.632-0.347c1.119,2.099,1.693,4.209,1.693,6.104C164.832,126.329,164.244,128.527,163.196,130.579z"/>
</g>
</svg>
