<?xml version="1.0" encoding="utf-8"?>
<!-- Generator: Adobe Illustrator 15.0.0, SVG Export Plug-In . SVG Version: 6.00 Build 0)  -->
<!DOCTYPE svg PUBLIC "-//W3C//DTD SVG 1.1//EN" "http://www.w3.org/Graphics/SVG/1.1/DTD/svg11.dtd">
<svg version="1.1" id="Layer_1" xmlns="http://www.w3.org/2000/svg" xmlns:xlink="http://www.w3.org/1999/xlink" x="0px" y="0px"
	 width="287.93px" height="170.879px" viewBox="0 0 287.93 170.879" enable-background="new 0 0 287.93 170.879"
	 xml:space="preserve">
<g display="none">
	<path display="inline" d="M23.663,59.621h9.331v-57.5h-4.875c-1.122,0-2.387,0.099-3.783,0.294
		c-1.401,0.197-2.815,0.743-4.246,1.639c-1.429,0.897-2.803,2.312-4.118,4.245c-1.317,1.934-2.452,4.61-3.404,8.028h-0.925V0.945
		h51.109v15.383h-0.924c-0.954-3.417-2.088-6.094-3.405-8.028c-1.316-1.934-2.689-3.348-4.118-4.245
		c-1.43-0.896-2.846-1.442-4.245-1.639c-1.397-0.196-2.663-0.294-3.783-0.294H41.4v57.5h9.331v1.177H23.663V59.621z"/>
	<path display="inline" d="M55.707,24.735h20.597v1.177h-7.062l10.844,26.396l11.35-26.396h-6.979v-1.177h12.858v1.177h-4.539
		L78.909,58.36c-1.065,2.411-2.074,4.834-3.026,7.271c-0.953,2.438-1.905,4.889-2.857,7.355c-0.783,2.018-1.566,3.783-2.354,5.296
		c-0.786,1.513-1.611,2.745-2.479,3.699c-0.867,0.952-1.808,1.667-2.812,2.144c-1.009,0.476-2.188,0.714-3.53,0.714
		c-1.627,0-2.93-0.252-3.909-0.756c-0.979-0.504-1.752-1.093-2.312-1.766c-0.562-0.672-0.926-1.374-1.094-2.102
		c-0.168-0.729-0.255-1.345-0.255-1.849c0-1.401,0.396-2.452,1.181-3.152c0.783-0.702,1.732-1.051,2.854-1.051
		c0.396,0,0.812,0.042,1.265,0.126c0.444,0.084,0.864,0.238,1.261,0.462c0.393,0.223,0.729,0.532,1.01,0.925
		c0.279,0.391,0.42,0.868,0.42,1.429c0,0.784-0.238,1.526-0.716,2.228c-0.478,0.7-0.714,1.471-0.714,2.312
		c0,0.728,0.195,1.205,0.588,1.429c0.393,0.223,0.926,0.336,1.598,0.336c0.896,0,1.728-0.21,2.479-0.631
		c0.756-0.421,1.499-1.107,2.229-2.06c0.729-0.954,1.457-2.2,2.188-3.741c0.729-1.542,1.541-3.434,2.438-5.674l3.698-9.415
		L61.507,25.912h-5.8V24.735z"/>
	<path display="inline" d="M100.562,83.159h6.477V25.912h-6.477v-1.177h13.534v7.061h0.168c0.841-2.354,2.229-4.3,4.16-5.842
		c1.935-1.541,4.441-2.312,7.521-2.312c2.408,0,4.682,0.519,6.812,1.555c2.13,1.038,4.007,2.41,5.633,4.119
		c1.625,1.71,2.914,3.713,3.866,6.011c0.952,2.299,1.43,4.708,1.43,7.229c0,2.578-0.491,5.031-1.472,7.355
		c-0.98,2.326-2.312,4.386-3.992,6.179c-1.682,1.794-3.63,3.223-5.843,4.287c-2.215,1.064-4.554,1.597-7.021,1.597
		c-1.902,0-3.519-0.323-4.833-0.967c-1.313-0.644-2.396-1.4-3.232-2.27c-0.844-0.868-1.485-1.765-1.938-2.69
		c-0.448-0.925-0.756-1.667-0.925-2.228h-0.168v29.338h6.473v1.177H100.56L100.562,83.159L100.562,83.159z M135.28,41.547
		c0-2.577-0.141-4.889-0.42-6.935c-0.277-2.045-0.771-3.796-1.471-5.254c-0.702-1.457-1.683-2.577-2.942-3.363
		c-1.261-0.784-2.869-1.177-4.829-1.177c-2.074,0-3.783,0.365-5.132,1.093c-1.345,0.729-2.438,1.654-3.274,2.774
		c-0.618,0.786-1.106,1.626-1.475,2.522c-0.361,0.897-0.656,1.962-0.883,3.194c-0.226,1.233-0.378,2.648-0.462,4.245
		s-0.126,3.489-0.126,5.674c0,1.85,0.139,3.755,0.42,5.716c0.279,1.962,0.812,3.741,1.601,5.338c0.78,1.597,1.891,2.9,3.316,3.909
		c1.433,1.009,3.32,1.513,5.674,1.513c2.301,0,4.119-0.448,5.468-1.345c1.345-0.896,2.354-2.186,3.022-3.867
		c0.673-1.681,1.093-3.712,1.261-6.095C135.196,47.11,135.28,44.462,135.28,41.547z"/>
	<path display="inline" d="M158.801,39.95c0,0.561-0.015,1.135-0.042,1.723c-0.028,0.588-0.042,1.332-0.042,2.228
		c0,1.85,0.112,3.783,0.336,5.801c0.224,2.018,0.715,3.839,1.472,5.464c0.756,1.626,1.877,2.971,3.361,4.035
		c1.484,1.065,3.461,1.597,5.928,1.597c2.465,0,4.497-0.364,6.099-1.093c1.597-0.728,2.854-1.61,3.779-2.648
		c0.929-1.037,1.609-2.087,2.062-3.152c0.448-1.064,0.784-1.934,1.009-2.606l1.262,0.252c-0.168,0.618-0.488,1.5-0.967,2.648
		c-0.478,1.149-1.23,2.299-2.271,3.447c-1.038,1.149-2.438,2.158-4.203,3.026c-1.77,0.868-4.051,1.303-6.854,1.303
		s-5.396-0.449-7.772-1.345c-2.387-0.896-4.441-2.186-6.183-3.867c-1.734-1.681-3.083-3.684-4.031-6.01
		c-0.954-2.325-1.433-4.918-1.433-7.776c0-2.465,0.489-4.861,1.475-7.188c0.979-2.325,2.321-4.384,4.031-6.179
		c1.709-1.793,3.712-3.236,6.014-4.329c2.297-1.093,4.763-1.639,7.396-1.639c1.567,0,3.25,0.281,5.043,0.84
		c1.793,0.561,3.46,1.471,5.002,2.732c1.541,1.261,2.829,2.929,3.867,5.002c1.036,2.074,1.555,4.652,1.555,7.734H158.801z
		 M176.118,38.773c0.108-0.784,0.168-1.513,0.168-2.186c0-0.672,0-1.373,0-2.102c0-1.904-0.187-3.474-0.546-4.708
		c-0.365-1.232-0.87-2.213-1.517-2.942c-0.646-0.728-1.43-1.247-2.354-1.555c-0.928-0.308-1.92-0.462-2.983-0.462
		c-1.906,0-3.477,0.378-4.708,1.135c-1.229,0.756-2.215,1.78-2.938,3.068c-0.729,1.29-1.275,2.774-1.643,4.455
		c-0.365,1.682-0.604,3.447-0.715,5.296L176.118,38.773L176.118,38.773z"/>
	<path display="inline" d="M10.97,150.622h9.33V93.124h-9.33v-1.179h15.636c0.784,0,1.567-0.014,2.354-0.043
		c0.784-0.026,1.564-0.067,2.354-0.125c0.784,0,1.567-0.014,2.354-0.043c0.784-0.024,1.564-0.041,2.354-0.041
		c1.685,0,3.184,0.029,4.498,0.084c1.315,0.058,2.549,0.154,3.698,0.293c1.148,0.144,2.241,0.339,3.278,0.591
		s2.145,0.573,3.317,0.967c3.417,1.121,6.374,2.621,8.869,4.498c2.493,1.877,4.539,4.049,6.137,6.517
		c1.6,2.467,2.773,5.153,3.53,8.067s1.135,5.97,1.135,9.162c0,3.698-0.445,7.021-1.345,9.963c-0.896,2.94-2.13,5.547-3.699,7.815
		c-1.566,2.271-3.401,4.229-5.506,5.886c-2.103,1.653-4.354,2.983-6.768,3.993c-1.346,0.617-2.621,1.093-3.824,1.429
		c-1.206,0.338-2.438,0.59-3.699,0.758s-2.646,0.279-4.161,0.336c-1.513,0.058-3.251,0.084-5.212,0.084
		c-0.841,0-1.734-0.014-2.688-0.04c-0.954-0.029-1.905-0.07-2.857-0.128c-0.954-0.057-1.893-0.098-2.812-0.127
		c-0.928-0.026-1.811-0.041-2.647-0.041H10.97V150.622z M28.707,150.622c0.952,0.112,2.061,0.196,3.316,0.252
		c1.265,0.06,2.647,0.084,4.161,0.084c1.904,0,3.796-0.099,5.674-0.293c1.877-0.195,3.674-0.617,5.384-1.263
		c1.708-0.646,3.306-1.567,4.792-2.772c1.48-1.205,2.812-2.787,3.989-4.75c1.792-3.024,3.039-6.121,3.741-9.289
		c0.699-3.166,1.051-6.627,1.051-10.381c0-4.428-0.42-8.449-1.261-12.062c-0.841-3.613-2.229-6.695-4.161-9.248
		c-1.934-2.549-4.497-4.523-7.688-5.926c-3.194-1.398-7.146-2.104-11.854-2.104c-1.398,0-2.678,0.025-3.825,0.084
		c-1.146,0.055-2.256,0.109-3.316,0.168L28.707,150.622L28.707,150.622z"/>
	<path display="inline" d="M87.189,130.952c0,0.562-0.016,1.135-0.042,1.723c-0.025,0.591-0.042,1.332-0.042,2.229
		c0,1.851,0.111,3.783,0.336,5.802c0.227,2.021,0.714,3.84,1.475,5.465c0.756,1.625,1.877,2.972,3.358,4.035
		c1.483,1.063,3.46,1.599,5.931,1.599c2.465,0,4.497-0.363,6.095-1.095c1.598-0.729,2.854-1.608,3.783-2.646
		c0.925-1.037,1.606-2.088,2.061-3.15c0.447-1.062,0.783-1.936,1.009-2.605l1.265,0.252c-0.168,0.619-0.491,1.5-0.971,2.646
		c-0.478,1.148-1.229,2.299-2.271,3.445c-1.04,1.146-2.438,2.158-4.202,3.024c-1.767,0.868-4.051,1.304-6.852,1.304
		c-2.807,0-5.396-0.447-7.776-1.344c-2.383-0.896-4.441-2.188-6.179-3.867c-1.738-1.684-3.083-3.688-4.035-6.014
		c-0.954-2.322-1.429-4.918-1.429-7.773c0-2.465,0.486-4.859,1.471-7.188c0.979-2.321,2.325-4.385,4.035-6.178
		c1.709-1.793,3.712-3.236,6.01-4.33c2.298-1.095,4.764-1.642,7.396-1.642c1.568,0,3.25,0.281,5.047,0.84
		c1.793,0.562,3.46,1.474,5.002,2.731c1.541,1.263,2.825,2.931,3.863,5.003c1.037,2.073,1.559,4.651,1.559,7.733H87.189
		L87.189,130.952z M104.506,129.773c0.112-0.782,0.168-1.517,0.168-2.188s0-1.373,0-2.104c0-1.901-0.183-3.478-0.546-4.707
		c-0.364-1.229-0.87-2.213-1.513-2.94c-0.646-0.729-1.433-1.246-2.354-1.558c-0.926-0.307-1.921-0.463-2.984-0.463
		c-1.902,0-3.477,0.379-4.708,1.138c-1.229,0.758-2.214,1.778-2.938,3.065c-0.729,1.291-1.274,2.772-1.643,4.455
		c-0.363,1.684-0.604,3.444-0.714,5.297L104.506,129.773L104.506,129.773z"/>
	<path display="inline" d="M120.318,140.029h0.929c0.391,1.347,0.896,2.705,1.513,4.076c0.616,1.375,1.442,2.638,2.479,3.783
		c1.036,1.147,2.312,2.09,3.825,2.813c1.517,0.729,3.333,1.094,5.464,1.094c1.793,0,3.394-0.547,4.792-1.642
		c1.399-1.094,2.104-2.87,2.104-5.34c0-2.129-0.546-3.627-1.644-4.496c-1.093-0.866-2.364-1.557-3.821-2.062l-6.561-2.271
		c-0.841-0.278-1.752-0.631-2.729-1.051c-0.98-0.42-1.895-1.009-2.731-1.769c-0.842-0.756-1.523-1.724-2.061-2.897
		c-0.534-1.177-0.798-2.688-0.798-4.539c0-1.567,0.307-3.024,0.924-4.371c0.616-1.346,1.457-2.521,2.521-3.528
		c1.063-1.011,2.339-1.793,3.825-2.354c1.483-0.562,3.096-0.84,4.834-0.84c1.231,0,2.229,0.103,2.983,0.295
		c0.756,0.194,1.415,0.396,1.976,0.588c0.562,0.196,1.063,0.396,1.513,0.588c0.448,0.197,0.979,0.3,1.601,0.3
		c0.616,0,1.062-0.228,1.346-0.677h0.925v9.582h-0.925c-0.394-1.229-0.842-2.424-1.346-3.567c-0.504-1.147-1.106-2.172-1.811-3.068
		c-0.699-0.896-1.566-1.598-2.604-2.102c-1.038-0.509-2.257-0.761-3.656-0.761c-2.688,0-4.779,0.604-6.264,1.812
		c-1.485,1.205-2.229,2.812-2.229,4.834c0,1.793,0.632,3.147,1.896,4.076c1.261,0.924,3.124,1.774,5.59,2.562l6.138,2.021
		c2.634,0.896,4.792,2.129,6.477,3.693c1.681,1.566,2.521,3.646,2.521,6.225c0,1.514-0.295,3-0.884,4.457s-1.458,2.729-2.604,3.82
		c-1.146,1.096-2.552,1.979-4.202,2.646c-1.652,0.672-3.546,1.012-5.676,1.012c-1.229,0-2.366-0.125-3.4-0.381
		c-1.038-0.252-1.99-0.521-2.858-0.799c-0.869-0.275-1.668-0.547-2.396-0.799c-0.729-0.252-1.401-0.379-2.021-0.379
		s-1.062,0.127-1.346,0.379s-0.504,0.521-0.672,0.799h-0.927L120.318,140.029L120.318,140.029z"/>
	<path display="inline" d="M153.254,146.333c0-1.515,0.28-2.813,0.842-3.908c0.562-1.094,1.246-2.045,2.062-2.856
		c0.812-0.812,1.682-1.471,2.604-1.978c0.925-0.504,1.752-0.926,2.479-1.262c-3.25-2.24-4.875-5.269-4.875-9.078
		c0-1.961,0.476-3.728,1.429-5.297c0.952-1.568,2.157-2.897,3.615-3.992c1.457-1.094,3.064-1.92,4.833-2.479
		c1.765-0.561,3.46-0.84,5.086-0.84c2.521,0,4.689,0.504,6.515,1.516c1.821,1.01,3.152,1.936,3.993,2.771
		c0.616-1.062,1.522-2.047,2.729-2.94c1.205-0.896,2.703-1.347,4.498-1.347c1.121,0,2.157,0.236,3.109,0.715
		c0.952,0.479,1.43,1.5,1.43,3.066c0,1.01-0.319,1.768-0.967,2.271c-0.646,0.506-1.304,0.758-1.977,0.758
		c-0.786,0-1.349-0.225-1.685-0.674c-0.336-0.445-0.63-0.926-0.883-1.43s-0.521-0.979-0.799-1.434
		c-0.28-0.443-0.701-0.672-1.261-0.672c-0.562,0-1.139,0.236-1.727,0.715s-1.104,1.021-1.556,1.643
		c0.505,0.562,1.146,1.516,1.935,2.855c0.784,1.348,1.181,3.023,1.181,5.043c0,1.686-0.422,3.227-1.265,4.623
		c-0.84,1.4-1.945,2.635-3.316,3.699c-1.374,1.062-2.975,1.891-4.792,2.479c-1.822,0.59-3.688,0.885-5.593,0.885
		c-1.963,0-3.672-0.269-5.128-0.799c-1.458-0.533-2.577-0.994-3.359-1.39c-0.618,0.28-1.274,0.588-1.979,0.924
		s-1.345,0.759-1.935,1.265c-0.588,0.504-1.08,1.104-1.473,1.808c-0.395,0.7-0.589,1.5-0.589,2.396c0,0.84,0.168,1.541,0.505,2.104
		c0.336,0.562,0.771,0.979,1.305,1.26c0.53,0.281,1.136,0.479,1.808,0.588c0.673,0.113,1.373,0.171,2.104,0.171h13.279
		c3.923,0,7.048,0.938,9.372,2.813c2.325,1.875,3.489,4.834,3.489,8.866c0,2.468-0.534,4.709-1.599,6.728
		c-1.065,2.021-2.479,3.771-4.245,5.254c-1.768,1.484-3.797,2.636-6.096,3.447c-2.3,0.812-4.65,1.219-7.062,1.219
		c-2.188,0-4.188-0.252-6.012-0.756c-1.821-0.504-3.403-1.19-4.75-2.062s-2.396-1.922-3.151-3.151
		c-0.756-1.231-1.136-2.604-1.136-4.119c0-1.457,0.295-2.787,0.884-3.992c0.589-1.204,1.346-2.27,2.271-3.192
		c0.926-0.924,1.978-1.726,3.149-2.396c1.179-0.674,2.354-1.231,3.531-1.685v-0.168c-3.699,0-6.433-0.604-8.196-1.81
		C154.135,151.307,153.254,149.25,153.254,146.333z M165.863,154.32c-0.729,0.447-1.471,0.91-2.229,1.388
		c-0.756,0.478-1.429,1.078-2.018,1.81c-0.592,0.729-1.065,1.584-1.433,2.562c-0.365,0.979-0.546,2.197-0.546,3.656
		c0,2.02,0.354,3.686,1.051,5.002c0.7,1.312,1.601,2.383,2.689,3.193c1.093,0.812,2.312,1.387,3.657,1.723
		c1.345,0.34,2.659,0.508,3.948,0.508c2.021,0,3.854-0.311,5.509-0.928c1.648-0.615,3.082-1.441,4.285-2.479
		c1.204-1.038,2.131-2.229,2.772-3.569c0.645-1.347,0.967-2.746,0.967-4.203c0-3.142-0.854-5.366-2.562-6.685
		c-1.71-1.315-4.05-1.979-7.021-1.979h-9.071V154.32z M179.482,127c0-1.289-0.084-2.592-0.252-3.908s-0.52-2.521-1.051-3.613
		c-0.533-1.096-1.346-1.979-2.438-2.646c-1.097-0.674-2.564-1.012-4.413-1.012c-2.857,0-5.02,0.871-6.477,2.605
		c-1.458,1.738-2.187,4.598-2.187,8.574c0,1.684,0.126,3.191,0.378,4.539c0.252,1.346,0.714,2.51,1.388,3.486
		c0.672,0.979,1.567,1.727,2.689,2.229c1.12,0.504,2.549,0.758,4.287,0.758c2.913,0,4.983-0.91,6.221-2.729
		C178.865,133.458,179.482,130.7,179.482,127z"/>
	<path display="inline" d="M197,150.622h6.474v-33.709H197v-1.179h13.702v34.888h6.473v1.178H197V150.622z M202.464,96.148
		c0-1.231,0.435-2.282,1.304-3.151c0.867-0.867,1.919-1.304,3.151-1.304c1.229,0,2.283,0.437,3.148,1.304
		c0.868,0.871,1.307,1.92,1.307,3.151c0,1.229-0.438,2.283-1.307,3.149c-0.866,0.869-1.92,1.306-3.148,1.306
		c-1.232,0-2.284-0.437-3.151-1.306C202.898,98.432,202.464,97.379,202.464,96.148z"/>
	<path display="inline" d="M221.706,150.622h6.474v-33.709h-6.474v-1.179h13.534v8.996h0.168c0.336-0.729,0.822-1.651,1.471-2.772
		c0.645-1.121,1.522-2.215,2.646-3.278c1.121-1.062,2.521-1.978,4.203-2.729c1.686-0.757,3.729-1.136,6.141-1.136
		c3.695,0,6.711,0.896,9.033,2.688c2.325,1.795,3.488,4.649,3.488,8.576v24.545h6.473v1.178H248.69v-1.178h6.477v-27.151
		c0-2.188-0.521-3.979-1.559-5.382c-1.038-1.397-2.646-2.104-4.833-2.104c-1.794,0-3.503,0.396-5.128,1.179
		c-1.626,0.785-3.056,1.879-4.287,3.276c-1.229,1.399-2.196,3.058-2.896,4.959c-0.701,1.906-1.051,3.979-1.051,6.224v18.998h6.473
		v1.178H221.71L221.706,150.622L221.706,150.622z"/>
</g>
<g>
	<g>
		<g>
			<defs>
				<path id="SVGID_1_" d="M113.135,49.751h-3.033l0.119-0.634h2.993C113.215,49.354,113.16,49.538,113.135,49.751z M169.719,51.384
					c0,7.791-8.975,16.665-16.469,18.046c-0.295,1.972-0.492,3.845-0.492,5.72c0,4.634,0.928,8.58,3.18,10.529
					c-1.793-2.103-2.545-5.722-2.545-9.895c0-1.875,0.197-3.748,0.492-5.72c7.496-1.381,16.469-10.255,16.469-18.046
					c0-2.078-0.662-3.799-1.941-4.884C169.274,48.209,169.719,49.678,169.719,51.384z M185.147,34.17l-0.648-0.18
					c-0.137,5.015-0.898,9.14-1.762,13.352l-0.59,1.972c2.465,3.846,7.002,7.987,7.002,14.595c0,7.297-4.637,15.285-4.637,20.412
					c0,1.337,0.406,2.164,1.066,2.533c-0.271-0.451-0.434-1.075-0.434-1.896c0-5.128,4.637-13.115,4.637-20.413
					c0-6.607-4.535-10.749-7-14.595l0.59-1.972C184.26,43.637,185.049,39.396,185.147,34.17z M135.476,86.939
					c-0.842-1.208-1.312-3.574-1.312-7.311c0-3.648,0.394-8.283,0.983-13.411c2.663-5.521,5.326-11.143,7.396-16.468h4.141
					l0.594-3.155h-0.754l-0.475,2.521h-4.14c-2.071,5.325-4.734,10.945-7.396,16.467c-0.592,5.128-0.986,9.763-0.986,13.411
					C133.529,83.58,134.235,86.105,135.476,86.939z M163.606,47.933c-3.604,0-7.127,7.047-9.137,14.791
					c0.262-0.044,0.531-0.082,0.822-0.082c0.004,0,0.006,0,0.008,0c2.035-7.455,5.451-14.074,8.941-14.074
					c0.297,0,0.559,0.07,0.793,0.199C164.699,48.215,164.223,47.933,163.606,47.933z M116.542,86.939
					c-0.842-1.208-1.312-3.574-1.312-7.311c0-3.648,0.396-8.283,0.985-13.411c2.663-5.521,5.325-11.143,7.396-16.468h5.426h1.701
					h1.33c0.025-0.213,0.079-0.397,0.079-0.634h-2.044H128.4h-5.424c-2.071,5.325-4.731,10.945-7.396,16.467
					c-0.594,5.128-0.986,9.763-0.986,13.411C114.595,83.58,115.302,86.105,116.542,86.939z M250.192,91.323
					c-1.178,0-2.158-0.38-2.969-1.062c0.908,1.089,2.098,1.695,3.604,1.695c4.068,0,7.266-4.231,9.898-10.057
					c0.199-1.212,0.402-2.415,0.609-3.595C258.475,85.603,254.924,91.323,250.192,91.323z M250.549,117.368
					c-0.434-0.629-0.709-1.558-0.709-2.828c0-5.722,3.453-10.406,7.854-15.104l0.285-1.604c-4.83,5.027-8.773,9.959-8.773,16.072
					C249.205,115.719,249.76,116.834,250.549,117.368z M261.18,49.948c0.68,0,1.258,0.218,1.754,0.59
					c-0.609-0.761-1.393-1.225-2.389-1.225c-5.422,0-11.34,19.722-11.34,30.668c0,3.29,0.57,5.743,1.84,6.625
					c-0.824-1.178-1.205-3.307-1.205-5.988C249.84,69.67,255.758,49.948,261.18,49.948z M210.547,34.127
					c0,2.268-1.578,4.634-4.045,4.634c-0.721,0-1.291-0.188-1.738-0.495c0.473,0.678,1.24,1.129,2.375,1.129
					c2.465,0,4.043-2.366,4.043-4.634c0-1.174-0.396-2.25-1.26-2.853C210.344,32.514,210.547,33.295,210.547,34.127z
					 M266.086,82.492c2.795-15.575,5.781-32.05,6.828-35.896h-0.797c-1.188,4.854-4.105,20.979-6.809,36.05
					C265.553,82.572,265.813,82.523,266.086,82.492z M202.42,87.042c-0.371-0.627-0.607-1.665-0.607-3.269
					c0-8.087,3.061-22.089,6.213-37.177h-0.768c-3.107,14.844-6.08,28.569-6.08,36.542C201.178,85.533,201.699,86.686,202.42,87.042
					z M238.85,51.877c0,8.283-6.904,23.569-6.904,31.654c0,1.848,0.48,2.874,1.234,3.338c-0.375-0.584-0.6-1.453-0.6-2.704
					c0-8.086,6.902-23.371,6.902-31.653c0-2.455-0.697-4.244-1.949-5.28C238.385,48.304,238.85,49.871,238.85,51.877z
					 M222.701,52.414l1.006-5.818h-0.746l-1.146,6.632C222.076,52.914,222.377,52.646,222.701,52.414z M265.969,51.483l0.232-1.079
					c-0.418-1.376-1.053-2.497-1.947-3.26C265.129,48.211,265.68,49.703,265.969,51.483z M147.729,75.545
					c0-0.299,0.008-0.602,0.016-0.902c-4.658,11.466-8.292,16.975-12.934,16.975c-1.016,0-1.858-0.322-2.572-0.908
					c0.822,1,1.87,1.543,3.207,1.543c4.435,0,7.945-5.014,12.311-15.458C147.742,76.381,147.729,75.966,147.729,75.545z
					 M181.272,54.883c-0.174-0.377-0.346-0.753-0.506-1.133c-1.281,5.128-2.861,10.354-4.34,14.398h-0.002l0,0
					c-3.254,9.071-9.072,23.469-18.146,23.469c-2.574,0-4.605-0.855-6.182-2.309c1.646,1.844,3.883,2.941,6.816,2.941
					c9.07,0,14.891-14.397,18.145-23.469l0,0h0.002C178.492,64.87,180.014,59.85,181.272,54.883z M128.992,75.741
					c0.016-0.557,0.046-1.144,0.07-1.722c-4.78,11.902-8.461,17.598-13.188,17.598c-1.018,0-1.86-0.322-2.571-0.908
					c0.822,1,1.87,1.543,3.207,1.543c4.491,0,8.04-5.158,12.485-15.886C128.996,76.156,128.992,75.955,128.992,75.741z
					 M196.61,76.137c-3.676,9.241-6.816,15.284-11.803,15.284c-1.346,0-2.406-0.34-3.213-0.969c0.852,1.026,2.107,1.604,3.848,1.604
					c4.607,0,7.643-5.162,10.977-13.237C196.459,77.954,196.526,77.057,196.61,76.137z M110.059,75.741
					c0.016-0.518,0.044-1.065,0.067-1.602c-3.446,8.312-8.608,17.478-15.849,17.478c-2.575,0-4.606-0.855-6.183-2.309
					c1.647,1.844,3.883,2.941,6.817,2.941c6.765,0,11.717-8.005,15.148-15.837C110.063,76.189,110.059,75.971,110.059,75.741z
					 M211.846,79.493c-3.121,7.323-6.115,11.927-10.471,11.927c-0.904,0-1.674-0.279-2.318-0.789
					c0.756,0.908,1.729,1.424,2.953,1.424c3.59,0,6.256-3.135,8.83-8.336C211.123,82.392,211.457,80.964,211.846,79.493z
					 M244.408,76.659c-3.385,8.033-7.354,14.761-12.166,14.761c-1.346,0-2.521-0.441-3.457-1.254
					c1.002,1.236,2.428,1.889,4.092,1.889c4.463,0,8.193-5.783,11.414-13.023C244.309,78.258,244.348,77.466,244.408,76.659z
					 M279.281,68.247c-4.145,10.749-10.059,17.946-15.58,23.666c-2.271,12.623-3.748,28.994-11.934,28.994
					c-1.461,0-2.727-0.486-3.723-1.354c1.053,1.285,2.564,1.988,4.355,1.988c8.186,0,9.664-16.371,11.934-28.992
					c5.521-5.721,11.438-12.919,15.582-23.667C279.969,68.572,279.291,68.194,279.281,68.247z M231.99,49.948
					c0.42,0,0.771,0.097,1.068,0.275c-0.369-0.597-0.928-0.91-1.705-0.91c-3.254,0-9.17,9.171-12.816,22.088l-3.648,19.526h-4.6
					c-0.039,0.267-0.07,0.488-0.094,0.636h5.326l3.648-19.525C222.819,59.119,228.735,49.948,231.99,49.948z M79.186,114.002
					c-12.326,0-22.385-6.508-33.526-10.945c-6.51,8.383-14.3,10.945-22.091,10.945c-3.36,0-6.24-0.898-8.155-2.607
					c1.879,2.121,5.033,3.242,8.792,3.242c7.791,0,15.581-2.562,22.089-10.945c11.144,4.438,21.203,10.945,33.527,10.945
					c9.764,0,14.892-5.424,16.37-11.832c-0.251-0.074-0.501-0.133-0.752-0.203C93.831,108.818,88.727,114.002,79.186,114.002z
					 M105.718,51.384c0,7.791-8.974,16.665-16.468,18.046c-0.296,1.972-0.493,3.845-0.493,5.72c0,4.634,0.927,8.58,3.18,10.529
					c-1.793-2.103-2.544-5.722-2.544-9.895c0-1.875,0.197-3.748,0.493-5.72c7.494-1.381,16.468-10.255,16.468-18.046
					c0-2.078-0.662-3.799-1.943-4.884C105.274,48.209,105.718,49.678,105.718,51.384z M99.605,47.933
					c-3.718,0-7.357,7.506-9.331,15.538c0.223-0.031,0.438-0.067,0.683-0.067c0.048,0,0.089,0.012,0.136,0.013
					c2.005-7.766,5.536-14.849,9.148-14.849c0.297,0,0.56,0.07,0.792,0.199C100.7,48.215,100.223,47.933,99.605,47.933z
					 M128.203,29.591c0,3.847-1.578,9.665-4.042,16.37h0.86c2.329-6.434,3.816-12.012,3.816-15.735c0-2.863-0.562-4.911-1.857-5.877
					C127.824,25.46,128.203,27.25,128.203,29.591z M147.137,29.591c0,3.847-1.578,9.665-4.043,16.37h0.861
					c2.33-6.434,3.814-12.012,3.814-15.735c0-2.863-0.559-4.911-1.855-5.877C146.758,25.46,147.137,27.25,147.137,29.591z
					 M91.02,22.589c0,17.652-11.044,42.502-33.824,51.672c-2.364,11.538-5.619,19.624-9.366,25.542
					c0.278,0.1,0.552,0.205,0.826,0.309c3.666-5.887,6.853-13.879,9.177-25.212c22.778-9.171,33.822-34.021,33.822-51.673
					c0-7.079-1.824-12.986-5.375-16.289C89.411,10.333,91.02,15.945,91.02,22.589z M19.189,109.562
					c-0.779-0.899-1.195-1.981-1.195-3.108c0-3.354,3.353-7.103,9.763-7.103c4.796,0,9.329,0.871,13.605,2.274
					c0.084-0.119,0.171-0.226,0.255-0.347c-4.537-1.575-9.369-2.563-14.496-2.563c-6.41,0-9.765,3.748-9.765,7.103
					C17.357,107.223,17.977,108.573,19.189,109.562z M50.993,77.061c0.061-0.28,0.127-0.542,0.187-0.826
					c-4.141,1.085-8.579,1.775-13.411,1.775c-12.289,0-21.046-3.482-26.741-8.657c5.672,5.518,14.604,9.292,27.376,9.292
					C42.922,78.645,47.084,78.026,50.993,77.061z M35.107,32.451c-2.268-1.479-4.832-1.972-7.79-1.972
					c-12.522,0-19.919,9.96-19.919,20.512c0,5.805,2.305,11.857,7.299,16.44c-4.542-4.5-6.663-10.26-6.663-15.805
					c0-10.552,7.396-20.512,19.919-20.512c2.958,0,5.521,0.494,7.79,1.973c0.79-1.578,1.677-3.156,2.466-4.832
					c-0.252-0.142-0.503-0.267-0.755-0.397C36.693,29.443,35.858,30.949,35.107,32.451z M78.2,6.417
					c-6.807,0-13.707,7.002-18.146,49.404c-0.592,5.227-1.283,9.862-2.071,14.2c0.286-0.146,0.546-0.321,0.827-0.473
					c0.708-4.023,1.337-8.302,1.879-13.092C65.128,14.054,72.03,7.052,78.835,7.052c1.423,0,2.647,0.512,3.687,1.422
					C81.366,7.163,79.927,6.417,78.2,6.417z"/>
			</defs>
			<clipPath id="SVGID_2_">
				<use xlink:href="#SVGID_1_"  overflow="visible"/>
			</clipPath>
			<g clip-path="url(#SVGID_2_)">
				
					<line fill="none" stroke="#D69811" stroke-width="0.3" stroke-miterlimit="10" x1="301.234" y1="0.158" x2="325.965" y2="170.598"/>
				
					<line fill="none" stroke="#D69811" stroke-width="0.3" stroke-miterlimit="10" x1="299.791" y1="0.157" x2="324.523" y2="170.598"/>
				
					<line fill="none" stroke="#D69811" stroke-width="0.3" stroke-miterlimit="10" x1="298.351" y1="0.158" x2="323.081" y2="170.598"/>
				
					<line fill="none" stroke="#D69811" stroke-width="0.3" stroke-miterlimit="10" x1="296.908" y1="0.158" x2="321.64" y2="170.598"/>
				
					<line fill="none" stroke="#D69811" stroke-width="0.3" stroke-miterlimit="10" x1="295.467" y1="0.158" x2="320.198" y2="170.598"/>
				
					<line fill="none" stroke="#D69811" stroke-width="0.3" stroke-miterlimit="10" x1="294.027" y1="0.158" x2="318.757" y2="170.598"/>
				
					<line fill="none" stroke="#D69811" stroke-width="0.3" stroke-miterlimit="10" x1="292.584" y1="0.157" x2="317.316" y2="170.598"/>
				
					<line fill="none" stroke="#D69811" stroke-width="0.3" stroke-miterlimit="10" x1="291.143" y1="0.158" x2="315.874" y2="170.598"/>
				
					<line fill="none" stroke="#D69811" stroke-width="0.3" stroke-miterlimit="10" x1="289.701" y1="0.158" x2="314.433" y2="170.598"/>
				
					<line fill="none" stroke="#D69811" stroke-width="0.3" stroke-miterlimit="10" x1="288.26" y1="0.158" x2="312.991" y2="170.598"/>
				
					<line fill="none" stroke="#D69811" stroke-width="0.3" stroke-miterlimit="10" x1="286.819" y1="0.158" x2="311.55" y2="170.598"/>
				
					<line fill="none" stroke="#D69811" stroke-width="0.3" stroke-miterlimit="10" x1="285.377" y1="0.158" x2="310.109" y2="170.598"/>
				
					<line fill="none" stroke="#D69811" stroke-width="0.3" stroke-miterlimit="10" x1="283.936" y1="0.158" x2="308.667" y2="170.598"/>
				
					<line fill="none" stroke="#D69811" stroke-width="0.3" stroke-miterlimit="10" x1="282.494" y1="0.158" x2="307.226" y2="170.598"/>
				
					<line fill="none" stroke="#D69811" stroke-width="0.3" stroke-miterlimit="10" x1="281.053" y1="0.158" x2="305.784" y2="170.598"/>
				
					<line fill="none" stroke="#D69811" stroke-width="0.3" stroke-miterlimit="10" x1="279.612" y1="0.158" x2="304.343" y2="170.598"/>
				
					<line fill="none" stroke="#D69811" stroke-width="0.3" stroke-miterlimit="10" x1="278.17" y1="0.158" x2="302.902" y2="170.598"/>
				
					<line fill="none" stroke="#D69811" stroke-width="0.3" stroke-miterlimit="10" x1="276.73" y1="0.158" x2="301.46" y2="170.598"/>
				
					<line fill="none" stroke="#D69811" stroke-width="0.3" stroke-miterlimit="10" x1="275.287" y1="0.157" x2="300.019" y2="170.598"/>
				
					<line fill="none" stroke="#D69811" stroke-width="0.3" stroke-miterlimit="10" x1="273.846" y1="0.158" x2="298.577" y2="170.598"/>
				
					<line fill="none" stroke="#D69811" stroke-width="0.3" stroke-miterlimit="10" x1="272.405" y1="0.158" x2="297.136" y2="170.598"/>
				
					<line fill="none" stroke="#D69811" stroke-width="0.3" stroke-miterlimit="10" x1="270.963" y1="0.158" x2="295.695" y2="170.598"/>
				
					<line fill="none" stroke="#D69811" stroke-width="0.3" stroke-miterlimit="10" x1="269.522" y1="0.158" x2="294.253" y2="170.598"/>
				
					<line fill="none" stroke="#D69811" stroke-width="0.3" stroke-miterlimit="10" x1="268.08" y1="0.158" x2="292.812" y2="170.598"/>
				
					<line fill="none" stroke="#D69811" stroke-width="0.3" stroke-miterlimit="10" x1="266.639" y1="0.158" x2="291.37" y2="170.598"/>
				
					<line fill="none" stroke="#D69811" stroke-width="0.3" stroke-miterlimit="10" x1="265.198" y1="0.157" x2="289.929" y2="170.598"/>
				
					<line fill="none" stroke="#D69811" stroke-width="0.3" stroke-miterlimit="10" x1="263.756" y1="0.158" x2="288.488" y2="170.598"/>
				
					<line fill="none" stroke="#D69811" stroke-width="0.3" stroke-miterlimit="10" x1="262.315" y1="0.158" x2="287.046" y2="170.598"/>
				
					<line fill="none" stroke="#D69811" stroke-width="0.3" stroke-miterlimit="10" x1="260.873" y1="0.158" x2="285.605" y2="170.598"/>
				
					<line fill="none" stroke="#D69811" stroke-width="0.3" stroke-miterlimit="10" x1="259.432" y1="0.158" x2="284.163" y2="170.598"/>
				
					<line fill="none" stroke="#D69811" stroke-width="0.3" stroke-miterlimit="10" x1="257.99" y1="0.157" x2="282.722" y2="170.598"/>
				
					<line fill="none" stroke="#D69811" stroke-width="0.3" stroke-miterlimit="10" x1="256.549" y1="0.158" x2="281.281" y2="170.598"/>
				
					<line fill="none" stroke="#D69811" stroke-width="0.3" stroke-miterlimit="10" x1="255.108" y1="0.158" x2="279.839" y2="170.598"/>
				
					<line fill="none" stroke="#D69811" stroke-width="0.3" stroke-miterlimit="10" x1="253.666" y1="0.158" x2="278.398" y2="170.598"/>
				
					<line fill="none" stroke="#D69811" stroke-width="0.3" stroke-miterlimit="10" x1="252.225" y1="0.158" x2="276.955" y2="170.598"/>
				
					<line fill="none" stroke="#D69811" stroke-width="0.3" stroke-miterlimit="10" x1="250.783" y1="0.158" x2="275.515" y2="170.598"/>
				
					<line fill="none" stroke="#D69811" stroke-width="0.3" stroke-miterlimit="10" x1="249.342" y1="0.158" x2="274.073" y2="170.598"/>
				
					<line fill="none" stroke="#D69811" stroke-width="0.3" stroke-miterlimit="10" x1="247.901" y1="0.158" x2="272.632" y2="170.598"/>
				
					<line fill="none" stroke="#D69811" stroke-width="0.3" stroke-miterlimit="10" x1="246.459" y1="0.157" x2="271.191" y2="170.598"/>
				
					<line fill="none" stroke="#D69811" stroke-width="0.3" stroke-miterlimit="10" x1="245.018" y1="0.158" x2="269.749" y2="170.598"/>
				
					<line fill="none" stroke="#D69811" stroke-width="0.3" stroke-miterlimit="10" x1="243.576" y1="0.158" x2="268.308" y2="170.598"/>
				
					<line fill="none" stroke="#D69811" stroke-width="0.3" stroke-miterlimit="10" x1="242.135" y1="0.158" x2="266.866" y2="170.598"/>
				
					<line fill="none" stroke="#D69811" stroke-width="0.3" stroke-miterlimit="10" x1="240.694" y1="0.158" x2="265.424" y2="170.598"/>
				
					<line fill="none" stroke="#D69811" stroke-width="0.3" stroke-miterlimit="10" x1="239.252" y1="0.158" x2="263.984" y2="170.598"/>
				
					<line fill="none" stroke="#D69811" stroke-width="0.3" stroke-miterlimit="10" x1="237.811" y1="0.158" x2="262.542" y2="170.598"/>
				
					<line fill="none" stroke="#D69811" stroke-width="0.3" stroke-miterlimit="10" x1="236.369" y1="0.158" x2="261.101" y2="170.598"/>
				
					<line fill="none" stroke="#D69811" stroke-width="0.3" stroke-miterlimit="10" x1="234.928" y1="0.158" x2="259.659" y2="170.598"/>
				
					<line fill="none" stroke="#D69811" stroke-width="0.3" stroke-miterlimit="10" x1="233.487" y1="0.158" x2="258.218" y2="170.598"/>
				
					<line fill="none" stroke="#D69811" stroke-width="0.3" stroke-miterlimit="10" x1="232.045" y1="0.158" x2="256.777" y2="170.598"/>
				
					<line fill="none" stroke="#D69811" stroke-width="0.3" stroke-miterlimit="10" x1="230.604" y1="0.158" x2="255.335" y2="170.598"/>
				
					<line fill="none" stroke="#D69811" stroke-width="0.3" stroke-miterlimit="10" x1="229.162" y1="0.157" x2="253.893" y2="170.598"/>
				
					<line fill="none" stroke="#D69811" stroke-width="0.3" stroke-miterlimit="10" x1="227.721" y1="0.158" x2="252.452" y2="170.598"/>
				
					<line fill="none" stroke="#D69811" stroke-width="0.3" stroke-miterlimit="10" x1="226.28" y1="0.158" x2="251.011" y2="170.598"/>
				
					<line fill="none" stroke="#D69811" stroke-width="0.3" stroke-miterlimit="10" x1="224.838" y1="0.158" x2="249.57" y2="170.598"/>
				
					<line fill="none" stroke="#D69811" stroke-width="0.3" stroke-miterlimit="10" x1="223.397" y1="0.158" x2="248.128" y2="170.596"/>
				
					<line fill="none" stroke="#D69811" stroke-width="0.3" stroke-miterlimit="10" x1="221.955" y1="0.158" x2="246.686" y2="170.598"/>
				
					<line fill="none" stroke="#D69811" stroke-width="0.3" stroke-miterlimit="10" x1="220.514" y1="0.158" x2="245.245" y2="170.598"/>
				
					<line fill="none" stroke="#D69811" stroke-width="0.3" stroke-miterlimit="10" x1="219.073" y1="0.158" x2="243.804" y2="170.598"/>
				
					<line fill="none" stroke="#D69811" stroke-width="0.3" stroke-miterlimit="10" x1="217.631" y1="0.158" x2="242.362" y2="170.598"/>
				
					<line fill="none" stroke="#D69811" stroke-width="0.3" stroke-miterlimit="10" x1="216.19" y1="0.158" x2="240.921" y2="170.598"/>
				
					<line fill="none" stroke="#D69811" stroke-width="0.3" stroke-miterlimit="10" x1="214.748" y1="0.158" x2="239.48" y2="170.598"/>
				
					<line fill="none" stroke="#D69811" stroke-width="0.3" stroke-miterlimit="10" x1="213.307" y1="0.158" x2="238.038" y2="170.598"/>
				
					<line fill="none" stroke="#D69811" stroke-width="0.3" stroke-miterlimit="10" x1="211.865" y1="0.158" x2="236.596" y2="170.598"/>
				
					<line fill="none" stroke="#D69811" stroke-width="0.3" stroke-miterlimit="10" x1="210.424" y1="0.158" x2="235.155" y2="170.598"/>
				
					<line fill="none" stroke="#D69811" stroke-width="0.3" stroke-miterlimit="10" x1="208.983" y1="0.158" x2="233.714" y2="170.598"/>
				
					<line fill="none" stroke="#D69811" stroke-width="0.3" stroke-miterlimit="10" x1="207.541" y1="0.158" x2="232.272" y2="170.598"/>
				
					<line fill="none" stroke="#D69811" stroke-width="0.3" stroke-miterlimit="10" x1="206.1" y1="0.158" x2="230.83" y2="170.598"/>
				
					<line fill="none" stroke="#D69811" stroke-width="0.3" stroke-miterlimit="10" x1="204.658" y1="0.158" x2="229.39" y2="170.598"/>
				
					<line fill="none" stroke="#D69811" stroke-width="0.3" stroke-miterlimit="10" x1="203.217" y1="0.158" x2="227.948" y2="170.598"/>
				
					<line fill="none" stroke="#D69811" stroke-width="0.3" stroke-miterlimit="10" x1="201.776" y1="0.158" x2="226.506" y2="170.598"/>
				
					<line fill="none" stroke="#D69811" stroke-width="0.3" stroke-miterlimit="10" x1="200.334" y1="0.158" x2="225.065" y2="170.596"/>
				
					<line fill="none" stroke="#D69811" stroke-width="0.3" stroke-miterlimit="10" x1="198.893" y1="0.158" x2="223.623" y2="170.598"/>
				
					<line fill="none" stroke="#D69811" stroke-width="0.3" stroke-miterlimit="10" x1="197.451" y1="0.158" x2="222.183" y2="170.598"/>
				
					<line fill="none" stroke="#D69811" stroke-width="0.3" stroke-miterlimit="10" x1="196.01" y1="0.158" x2="220.74" y2="170.598"/>
				
					<line fill="none" stroke="#D69811" stroke-width="0.3" stroke-miterlimit="10" x1="194.569" y1="0.158" x2="219.299" y2="170.598"/>
				
					<line fill="none" stroke="#D69811" stroke-width="0.3" stroke-miterlimit="10" x1="193.127" y1="0.158" x2="217.859" y2="170.598"/>
				
					<line fill="none" stroke="#D69811" stroke-width="0.3" stroke-miterlimit="10" x1="191.686" y1="0.158" x2="216.416" y2="170.598"/>
				
					<line fill="none" stroke="#D69811" stroke-width="0.3" stroke-miterlimit="10" x1="190.244" y1="0.158" x2="214.975" y2="170.598"/>
				
					<line fill="none" stroke="#D69811" stroke-width="0.3" stroke-miterlimit="10" x1="188.803" y1="0.158" x2="213.533" y2="170.598"/>
				
					<line fill="none" stroke="#D69811" stroke-width="0.3" stroke-miterlimit="10" x1="187.362" y1="0.158" x2="212.092" y2="170.598"/>
				
					<line fill="none" stroke="#D69811" stroke-width="0.3" stroke-miterlimit="10" x1="185.92" y1="0.158" x2="210.652" y2="170.598"/>
				
					<line fill="none" stroke="#D69811" stroke-width="0.3" stroke-miterlimit="10" x1="184.479" y1="0.158" x2="209.209" y2="170.598"/>
				
					<line fill="none" stroke="#D69811" stroke-width="0.3" stroke-miterlimit="10" x1="183.037" y1="0.158" x2="207.768" y2="170.598"/>
				
					<line fill="none" stroke="#D69811" stroke-width="0.3" stroke-miterlimit="10" x1="181.596" y1="0.158" x2="206.326" y2="170.598"/>
				
					<line fill="none" stroke="#D69811" stroke-width="0.3" stroke-miterlimit="10" x1="180.155" y1="0.158" x2="204.885" y2="170.598"/>
				
					<line fill="none" stroke="#D69811" stroke-width="0.3" stroke-miterlimit="10" x1="178.713" y1="0.158" x2="203.444" y2="170.598"/>
				
					<line fill="none" stroke="#D69811" stroke-width="0.3" stroke-miterlimit="10" x1="177.272" y1="0.157" x2="202.002" y2="170.598"/>
				
					<line fill="none" stroke="#D69811" stroke-width="0.3" stroke-miterlimit="10" x1="175.83" y1="0.158" x2="200.561" y2="170.598"/>
				
					<line fill="none" stroke="#D69811" stroke-width="0.3" stroke-miterlimit="10" x1="174.389" y1="0.158" x2="199.12" y2="170.598"/>
				
					<line fill="none" stroke="#D69811" stroke-width="0.3" stroke-miterlimit="10" x1="172.948" y1="0.158" x2="197.678" y2="170.598"/>
				
					<line fill="none" stroke="#D69811" stroke-width="0.3" stroke-miterlimit="10" x1="171.505" y1="0.158" x2="196.237" y2="170.598"/>
				
					<line fill="none" stroke="#D69811" stroke-width="0.3" stroke-miterlimit="10" x1="170.065" y1="0.158" x2="194.795" y2="170.598"/>
				
					<line fill="none" stroke="#D69811" stroke-width="0.3" stroke-miterlimit="10" x1="168.623" y1="0.158" x2="193.354" y2="170.598"/>
				
					<line fill="none" stroke="#D69811" stroke-width="0.3" stroke-miterlimit="10" x1="167.182" y1="0.158" x2="191.912" y2="170.598"/>
				
					<line fill="none" stroke="#D69811" stroke-width="0.3" stroke-miterlimit="10" x1="165.74" y1="0.158" x2="190.471" y2="170.598"/>
				
					<line fill="none" stroke="#D69811" stroke-width="0.3" stroke-miterlimit="10" x1="164.299" y1="0.158" x2="189.03" y2="170.598"/>
				
					<line fill="none" stroke="#D69811" stroke-width="0.3" stroke-miterlimit="10" x1="162.858" y1="0.158" x2="187.589" y2="170.598"/>
				
					<line fill="none" stroke="#D69811" stroke-width="0.3" stroke-miterlimit="10" x1="161.416" y1="0.158" x2="186.147" y2="170.598"/>
				
					<line fill="none" stroke="#D69811" stroke-width="0.3" stroke-miterlimit="10" x1="159.975" y1="0.157" x2="184.705" y2="170.596"/>
				
					<line fill="none" stroke="#D69811" stroke-width="0.3" stroke-miterlimit="10" x1="158.533" y1="0.158" x2="183.264" y2="170.598"/>
				
					<line fill="none" stroke="#D69811" stroke-width="0.3" stroke-miterlimit="10" x1="157.092" y1="0.158" x2="181.823" y2="170.598"/>
				
					<line fill="none" stroke="#D69811" stroke-width="0.3" stroke-miterlimit="10" x1="155.651" y1="0.158" x2="180.381" y2="170.598"/>
				
					<line fill="none" stroke="#D69811" stroke-width="0.3" stroke-miterlimit="10" x1="154.208" y1="0.158" x2="178.94" y2="170.598"/>
				
					<line fill="none" stroke="#D69811" stroke-width="0.3" stroke-miterlimit="10" x1="152.768" y1="0.158" x2="177.498" y2="170.598"/>
				
					<line fill="none" stroke="#D69811" stroke-width="0.3" stroke-miterlimit="10" x1="151.326" y1="0.158" x2="176.057" y2="170.598"/>
				
					<line fill="none" stroke="#D69811" stroke-width="0.3" stroke-miterlimit="10" x1="149.885" y1="0.158" x2="174.615" y2="170.598"/>
				
					<line fill="none" stroke="#D69811" stroke-width="0.3" stroke-miterlimit="10" x1="148.443" y1="0.158" x2="173.174" y2="170.598"/>
				
					<line fill="none" stroke="#D69811" stroke-width="0.3" stroke-miterlimit="10" x1="147.001" y1="0.158" x2="171.733" y2="170.598"/>
				
					<line fill="none" stroke="#D69811" stroke-width="0.3" stroke-miterlimit="10" x1="145.561" y1="0.158" x2="170.291" y2="170.598"/>
				
					<line fill="none" stroke="#D69811" stroke-width="0.3" stroke-miterlimit="10" x1="144.119" y1="0.158" x2="168.85" y2="170.598"/>
				
					<line fill="none" stroke="#D69811" stroke-width="0.3" stroke-miterlimit="10" x1="142.677" y1="0.157" x2="167.408" y2="170.598"/>
				
					<line fill="none" stroke="#D69811" stroke-width="0.3" stroke-miterlimit="10" x1="141.237" y1="0.158" x2="165.967" y2="170.598"/>
				
					<line fill="none" stroke="#D69811" stroke-width="0.3" stroke-miterlimit="10" x1="139.795" y1="0.158" x2="164.526" y2="170.598"/>
				
					<line fill="none" stroke="#D69811" stroke-width="0.3" stroke-miterlimit="10" x1="138.353" y1="0.158" x2="163.084" y2="170.598"/>
				
					<line fill="none" stroke="#D69811" stroke-width="0.3" stroke-miterlimit="10" x1="136.911" y1="0.158" x2="161.643" y2="170.596"/>
				
					<line fill="none" stroke="#D69811" stroke-width="0.3" stroke-miterlimit="10" x1="135.47" y1="0.158" x2="160.201" y2="170.598"/>
				
					<line fill="none" stroke="#D69811" stroke-width="0.3" stroke-miterlimit="10" x1="134.029" y1="0.158" x2="158.76" y2="170.598"/>
				
					<line fill="none" stroke="#D69811" stroke-width="0.3" stroke-miterlimit="10" x1="132.588" y1="0.158" x2="157.319" y2="170.598"/>
				
					<line fill="none" stroke="#D69811" stroke-width="0.3" stroke-miterlimit="10" x1="131.147" y1="0.158" x2="155.877" y2="170.598"/>
				
					<line fill="none" stroke="#D69811" stroke-width="0.3" stroke-miterlimit="10" x1="129.705" y1="0.158" x2="154.436" y2="170.598"/>
				
					<line fill="none" stroke="#D69811" stroke-width="0.3" stroke-miterlimit="10" x1="128.264" y1="0.158" x2="152.994" y2="170.598"/>
				
					<line fill="none" stroke="#D69811" stroke-width="0.3" stroke-miterlimit="10" x1="126.823" y1="0.158" x2="151.553" y2="170.598"/>
				
					<line fill="none" stroke="#D69811" stroke-width="0.3" stroke-miterlimit="10" x1="125.38" y1="0.158" x2="150.112" y2="170.598"/>
				
					<line fill="none" stroke="#D69811" stroke-width="0.3" stroke-miterlimit="10" x1="123.939" y1="0.158" x2="148.67" y2="170.598"/>
				
					<line fill="none" stroke="#D69811" stroke-width="0.3" stroke-miterlimit="10" x1="122.498" y1="0.158" x2="147.229" y2="170.598"/>
				
					<line fill="none" stroke="#D69811" stroke-width="0.3" stroke-miterlimit="10" x1="121.056" y1="0.158" x2="145.787" y2="170.598"/>
				
					<line fill="none" stroke="#D69811" stroke-width="0.3" stroke-miterlimit="10" x1="119.615" y1="0.158" x2="144.346" y2="170.598"/>
				
					<line fill="none" stroke="#D69811" stroke-width="0.3" stroke-miterlimit="10" x1="118.174" y1="0.158" x2="142.905" y2="170.598"/>
				
					<line fill="none" stroke="#D69811" stroke-width="0.3" stroke-miterlimit="10" x1="116.732" y1="0.158" x2="141.463" y2="170.598"/>
				
					<line fill="none" stroke="#D69811" stroke-width="0.3" stroke-miterlimit="10" x1="115.291" y1="0.158" x2="140.022" y2="170.598"/>
				
					<line fill="none" stroke="#D69811" stroke-width="0.3" stroke-miterlimit="10" x1="113.85" y1="0.158" x2="138.58" y2="170.598"/>
				
					<line fill="none" stroke="#D69811" stroke-width="0.3" stroke-miterlimit="10" x1="112.408" y1="0.158" x2="137.139" y2="170.598"/>
				
					<line fill="none" stroke="#D69811" stroke-width="0.3" stroke-miterlimit="10" x1="110.967" y1="0.158" x2="135.698" y2="170.598"/>
				
					<line fill="none" stroke="#D69811" stroke-width="0.3" stroke-miterlimit="10" x1="109.526" y1="0.158" x2="134.256" y2="170.598"/>
				
					<line fill="none" stroke="#D69811" stroke-width="0.3" stroke-miterlimit="10" x1="108.083" y1="0.158" x2="132.815" y2="170.598"/>
				
					<line fill="none" stroke="#D69811" stroke-width="0.3" stroke-miterlimit="10" x1="106.642" y1="0.158" x2="131.373" y2="170.598"/>
				
					<line fill="none" stroke="#D69811" stroke-width="0.3" stroke-miterlimit="10" x1="105.201" y1="0.158" x2="129.932" y2="170.598"/>
				
					<line fill="none" stroke="#D69811" stroke-width="0.3" stroke-miterlimit="10" x1="103.76" y1="0.158" x2="128.49" y2="170.598"/>
				
					<line fill="none" stroke="#D69811" stroke-width="0.3" stroke-miterlimit="10" x1="102.318" y1="0.158" x2="127.049" y2="170.598"/>
				
					<line fill="none" stroke="#D69811" stroke-width="0.3" stroke-miterlimit="10" x1="100.877" y1="0.158" x2="125.608" y2="170.598"/>
				
					<line fill="none" stroke="#D69811" stroke-width="0.3" stroke-miterlimit="10" x1="99.435" y1="0.158" x2="124.166" y2="170.598"/>
				
					<line fill="none" stroke="#D69811" stroke-width="0.3" stroke-miterlimit="10" x1="97.994" y1="0.158" x2="122.725" y2="170.598"/>
				
					<line fill="none" stroke="#D69811" stroke-width="0.3" stroke-miterlimit="10" x1="96.553" y1="0.158" x2="121.283" y2="170.598"/>
				
					<line fill="none" stroke="#D69811" stroke-width="0.3" stroke-miterlimit="10" x1="95.112" y1="0.158" x2="119.842" y2="170.598"/>
				
					<line fill="none" stroke="#D69811" stroke-width="0.3" stroke-miterlimit="10" x1="93.67" y1="0.158" x2="118.401" y2="170.598"/>
				
					<line fill="none" stroke="#D69811" stroke-width="0.3" stroke-miterlimit="10" x1="92.229" y1="0.158" x2="116.959" y2="170.598"/>
				
					<line fill="none" stroke="#D69811" stroke-width="0.3" stroke-miterlimit="10" x1="90.787" y1="0.158" x2="115.518" y2="170.598"/>
				
					<line fill="none" stroke="#D69811" stroke-width="0.3" stroke-miterlimit="10" x1="89.345" y1="0.158" x2="114.076" y2="170.598"/>
				
					<line fill="none" stroke="#D69811" stroke-width="0.3" stroke-miterlimit="10" x1="87.904" y1="0.158" x2="112.635" y2="170.598"/>
				
					<line fill="none" stroke="#D69811" stroke-width="0.3" stroke-miterlimit="10" x1="86.463" y1="0.158" x2="111.194" y2="170.598"/>
				
					<line fill="none" stroke="#D69811" stroke-width="0.3" stroke-miterlimit="10" x1="85.021" y1="0.158" x2="109.752" y2="170.598"/>
				
					<line fill="none" stroke="#D69811" stroke-width="0.3" stroke-miterlimit="10" x1="83.58" y1="0.158" x2="108.311" y2="170.598"/>
				
					<line fill="none" stroke="#D69811" stroke-width="0.3" stroke-miterlimit="10" x1="82.139" y1="0.158" x2="106.869" y2="170.598"/>
				
					<line fill="none" stroke="#D69811" stroke-width="0.3" stroke-miterlimit="10" x1="80.698" y1="0.158" x2="105.428" y2="170.598"/>
				
					<line fill="none" stroke="#D69811" stroke-width="0.3" stroke-miterlimit="10" x1="79.256" y1="0.158" x2="103.987" y2="170.598"/>
				
					<line fill="none" stroke="#D69811" stroke-width="0.3" stroke-miterlimit="10" x1="77.815" y1="0.158" x2="102.545" y2="170.598"/>
				
					<line fill="none" stroke="#D69811" stroke-width="0.3" stroke-miterlimit="10" x1="76.373" y1="0.158" x2="101.104" y2="170.598"/>
				
					<line fill="none" stroke="#D69811" stroke-width="0.3" stroke-miterlimit="10" x1="74.932" y1="0.158" x2="99.662" y2="170.598"/>
				
					<line fill="none" stroke="#D69811" stroke-width="0.3" stroke-miterlimit="10" x1="73.49" y1="0.158" x2="98.221" y2="170.598"/>
				
					<line fill="none" stroke="#D69811" stroke-width="0.3" stroke-miterlimit="10" x1="72.049" y1="0.158" x2="96.78" y2="170.598"/>
				
					<line fill="none" stroke="#D69811" stroke-width="0.3" stroke-miterlimit="10" x1="70.607" y1="0.158" x2="95.338" y2="170.598"/>
				
					<line fill="none" stroke="#D69811" stroke-width="0.3" stroke-miterlimit="10" x1="69.166" y1="0.158" x2="93.897" y2="170.598"/>
				
					<line fill="none" stroke="#D69811" stroke-width="0.3" stroke-miterlimit="10" x1="67.724" y1="0.158" x2="92.455" y2="170.598"/>
				
					<line fill="none" stroke="#D69811" stroke-width="0.3" stroke-miterlimit="10" x1="66.283" y1="0.158" x2="91.014" y2="170.598"/>
				
					<line fill="none" stroke="#D69811" stroke-width="0.3" stroke-miterlimit="10" x1="64.842" y1="0.158" x2="89.573" y2="170.598"/>
				
					<line fill="none" stroke="#D69811" stroke-width="0.3" stroke-miterlimit="10" x1="63.401" y1="0.158" x2="88.131" y2="170.598"/>
				
					<line fill="none" stroke="#D69811" stroke-width="0.3" stroke-miterlimit="10" x1="61.959" y1="0.158" x2="86.69" y2="170.598"/>
				
					<line fill="none" stroke="#D69811" stroke-width="0.3" stroke-miterlimit="10" x1="60.518" y1="0.158" x2="85.248" y2="170.598"/>
				
					<line fill="none" stroke="#D69811" stroke-width="0.3" stroke-miterlimit="10" x1="59.076" y1="0.158" x2="83.807" y2="170.598"/>
				
					<line fill="none" stroke="#D69811" stroke-width="0.3" stroke-miterlimit="10" x1="57.635" y1="0.158" x2="82.365" y2="170.598"/>
				
					<line fill="none" stroke="#D69811" stroke-width="0.3" stroke-miterlimit="10" x1="56.194" y1="0.158" x2="80.924" y2="170.598"/>
				
					<line fill="none" stroke="#D69811" stroke-width="0.3" stroke-miterlimit="10" x1="54.752" y1="0.158" x2="79.483" y2="170.598"/>
				
					<line fill="none" stroke="#D69811" stroke-width="0.3" stroke-miterlimit="10" x1="53.311" y1="0.158" x2="78.041" y2="170.598"/>
				<line fill="none" stroke="#D69811" stroke-width="0.3" stroke-miterlimit="10" x1="51.869" y1="0.158" x2="76.6" y2="170.598"/>
				
					<line fill="none" stroke="#D69811" stroke-width="0.3" stroke-miterlimit="10" x1="50.427" y1="0.158" x2="75.158" y2="170.598"/>
				
					<line fill="none" stroke="#D69811" stroke-width="0.3" stroke-miterlimit="10" x1="48.986" y1="0.158" x2="73.717" y2="170.598"/>
				
					<line fill="none" stroke="#D69811" stroke-width="0.3" stroke-miterlimit="10" x1="47.545" y1="0.158" x2="72.276" y2="170.598"/>
				
					<line fill="none" stroke="#D69811" stroke-width="0.3" stroke-miterlimit="10" x1="46.104" y1="0.158" x2="70.834" y2="170.598"/>
				
					<line fill="none" stroke="#D69811" stroke-width="0.3" stroke-miterlimit="10" x1="44.662" y1="0.158" x2="69.393" y2="170.598"/>
				
					<line fill="none" stroke="#D69811" stroke-width="0.3" stroke-miterlimit="10" x1="43.221" y1="0.158" x2="67.951" y2="170.598"/>
				<line fill="none" stroke="#D69811" stroke-width="0.3" stroke-miterlimit="10" x1="41.78" y1="0.158" x2="66.51" y2="170.598"/>
				
					<line fill="none" stroke="#D69811" stroke-width="0.3" stroke-miterlimit="10" x1="40.338" y1="0.158" x2="65.069" y2="170.598"/>
				
					<line fill="none" stroke="#D69811" stroke-width="0.3" stroke-miterlimit="10" x1="38.897" y1="0.158" x2="63.627" y2="170.598"/>
				
					<line fill="none" stroke="#D69811" stroke-width="0.3" stroke-miterlimit="10" x1="37.455" y1="0.158" x2="62.186" y2="170.598"/>
				
					<line fill="none" stroke="#D69811" stroke-width="0.3" stroke-miterlimit="10" x1="36.014" y1="0.158" x2="60.744" y2="170.598"/>
				
					<line fill="none" stroke="#D69811" stroke-width="0.3" stroke-miterlimit="10" x1="34.573" y1="0.158" x2="59.303" y2="170.598"/>
				
					<line fill="none" stroke="#D69811" stroke-width="0.3" stroke-miterlimit="10" x1="33.131" y1="0.158" x2="57.862" y2="170.598"/>
				
					<line fill="none" stroke="#D69811" stroke-width="0.3" stroke-miterlimit="10" x1="31.689" y1="0.158" x2="56.42" y2="170.598"/>
				
					<line fill="none" stroke="#D69811" stroke-width="0.3" stroke-miterlimit="10" x1="30.248" y1="0.158" x2="54.979" y2="170.598"/>
				
					<line fill="none" stroke="#D69811" stroke-width="0.3" stroke-miterlimit="10" x1="28.807" y1="0.158" x2="53.537" y2="170.598"/>
				
					<line fill="none" stroke="#D69811" stroke-width="0.3" stroke-miterlimit="10" x1="27.365" y1="0.158" x2="52.096" y2="170.598"/>
				
					<line fill="none" stroke="#D69811" stroke-width="0.3" stroke-miterlimit="10" x1="25.924" y1="0.158" x2="50.655" y2="170.598"/>
				
					<line fill="none" stroke="#D69811" stroke-width="0.3" stroke-miterlimit="10" x1="24.483" y1="0.158" x2="49.213" y2="170.598"/>
				
					<line fill="none" stroke="#D69811" stroke-width="0.3" stroke-miterlimit="10" x1="23.041" y1="0.158" x2="47.772" y2="170.598"/>
				<line fill="none" stroke="#D69811" stroke-width="0.3" stroke-miterlimit="10" x1="21.6" y1="0.158" x2="46.33" y2="170.598"/>
				
					<line fill="none" stroke="#D69811" stroke-width="0.3" stroke-miterlimit="10" x1="20.158" y1="0.158" x2="44.889" y2="170.598"/>
				
					<line fill="none" stroke="#D69811" stroke-width="0.3" stroke-miterlimit="10" x1="18.717" y1="0.158" x2="43.448" y2="170.598"/>
				
					<line fill="none" stroke="#D69811" stroke-width="0.3" stroke-miterlimit="10" x1="17.276" y1="0.158" x2="42.006" y2="170.598"/>
				
					<line fill="none" stroke="#D69811" stroke-width="0.3" stroke-miterlimit="10" x1="15.834" y1="0.158" x2="40.565" y2="170.598"/>
				
					<line fill="none" stroke="#D69811" stroke-width="0.3" stroke-miterlimit="10" x1="14.392" y1="0.158" x2="39.123" y2="170.598"/>
				
					<line fill="none" stroke="#D69811" stroke-width="0.3" stroke-miterlimit="10" x1="12.951" y1="0.158" x2="37.682" y2="170.598"/>
				<line fill="none" stroke="#D69811" stroke-width="0.3" stroke-miterlimit="10" x1="11.51" y1="0.158" x2="36.24" y2="170.598"/>
				
					<line fill="none" stroke="#D69811" stroke-width="0.3" stroke-miterlimit="10" x1="10.069" y1="0.158" x2="34.799" y2="170.598"/>
				
					<line fill="none" stroke="#D69811" stroke-width="0.3" stroke-miterlimit="10" x1="8.627" y1="0.158" x2="33.358" y2="170.598"/>
				
					<line fill="none" stroke="#D69811" stroke-width="0.3" stroke-miterlimit="10" x1="7.186" y1="0.158" x2="31.916" y2="170.598"/>
				
					<line fill="none" stroke="#D69811" stroke-width="0.3" stroke-miterlimit="10" x1="5.744" y1="0.158" x2="30.475" y2="170.598"/>
				
					<line fill="none" stroke="#D69811" stroke-width="0.3" stroke-miterlimit="10" x1="4.303" y1="0.158" x2="29.033" y2="170.598"/>
				
					<line fill="none" stroke="#D69811" stroke-width="0.3" stroke-miterlimit="10" x1="2.862" y1="0.158" x2="27.592" y2="170.598"/>
				<line fill="none" stroke="#D69811" stroke-width="0.3" stroke-miterlimit="10" x1="1.42" y1="0.158" x2="26.151" y2="170.598"/>
				
					<line fill="none" stroke="#D69811" stroke-width="0.3" stroke-miterlimit="10" x1="-0.021" y1="0.158" x2="24.709" y2="170.598"/>
				
					<line fill="none" stroke="#D69811" stroke-width="0.3" stroke-miterlimit="10" x1="-1.463" y1="0.158" x2="23.268" y2="170.598"/>
				
					<line fill="none" stroke="#D69811" stroke-width="0.3" stroke-miterlimit="10" x1="-2.905" y1="0.158" x2="21.826" y2="170.598"/>
				
					<line fill="none" stroke="#D69811" stroke-width="0.3" stroke-miterlimit="10" x1="-4.345" y1="0.158" x2="20.385" y2="170.598"/>
				
					<line fill="none" stroke="#D69811" stroke-width="0.3" stroke-miterlimit="10" x1="-5.787" y1="0.158" x2="18.944" y2="170.598"/>
				
					<line fill="none" stroke="#D69811" stroke-width="0.3" stroke-miterlimit="10" x1="-7.228" y1="0.158" x2="17.502" y2="170.598"/>
				
					<line fill="none" stroke="#D69811" stroke-width="0.3" stroke-miterlimit="10" x1="-8.67" y1="0.158" x2="16.061" y2="170.598"/>
				
					<line fill="none" stroke="#D69811" stroke-width="0.3" stroke-miterlimit="10" x1="-10.111" y1="0.158" x2="14.619" y2="170.598"/>
				
					<line fill="none" stroke="#D69811" stroke-width="0.3" stroke-miterlimit="10" x1="-11.552" y1="0.158" x2="13.178" y2="170.598"/>
				
					<line fill="none" stroke="#D69811" stroke-width="0.3" stroke-miterlimit="10" x1="-12.994" y1="0.158" x2="11.737" y2="170.598"/>
				
					<line fill="none" stroke="#D69811" stroke-width="0.3" stroke-miterlimit="10" x1="-14.435" y1="0.158" x2="10.295" y2="170.598"/>
				
					<line fill="none" stroke="#D69811" stroke-width="0.3" stroke-miterlimit="10" x1="-15.877" y1="0.158" x2="8.854" y2="170.598"/>
				
					<line fill="none" stroke="#D69811" stroke-width="0.3" stroke-miterlimit="10" x1="-17.318" y1="0.158" x2="7.412" y2="170.598"/>
				
					<line fill="none" stroke="#D69811" stroke-width="0.3" stroke-miterlimit="10" x1="-18.76" y1="0.158" x2="5.971" y2="170.598"/>
				
					<line fill="none" stroke="#D69811" stroke-width="0.3" stroke-miterlimit="10" x1="-20.201" y1="0.158" x2="4.53" y2="170.598"/>
				
					<line fill="none" stroke="#D69811" stroke-width="0.3" stroke-miterlimit="10" x1="-21.643" y1="0.158" x2="3.088" y2="170.598"/>
				
					<line fill="none" stroke="#D69811" stroke-width="0.3" stroke-miterlimit="10" x1="-23.084" y1="0.158" x2="1.647" y2="170.598"/>
				
					<line fill="none" stroke="#D69811" stroke-width="0.3" stroke-miterlimit="10" x1="-24.525" y1="0.158" x2="0.205" y2="170.598"/>
				
					<line fill="none" stroke="#D69811" stroke-width="0.3" stroke-miterlimit="10" x1="-25.967" y1="0.158" x2="-1.236" y2="170.598"/>
				
					<line fill="none" stroke="#D69811" stroke-width="0.3" stroke-miterlimit="10" x1="-27.408" y1="0.158" x2="-2.677" y2="170.598"/>
				
					<line fill="none" stroke="#D69811" stroke-width="0.3" stroke-miterlimit="10" x1="-28.849" y1="0.158" x2="-4.119" y2="170.598"/>
				
					<line fill="none" stroke="#D69811" stroke-width="0.3" stroke-miterlimit="10" x1="-30.291" y1="0.158" x2="-5.56" y2="170.598"/>
			</g>
		</g>
	</g>
</g>
<path fill="#2F2526" d="M49.461,70.471c0.984-5.028,1.772-10.65,2.464-17.06C56.758,9.135,64.745,1.049,75.888,1.049
	c8.382,0,12.721,8.185,12.721,19.13c0,17.652-11.044,42.501-33.822,51.672c-2.366,11.538-5.62,19.624-9.368,25.54
	c11.34,4.043,19.919,10.061,31.259,10.061c8.086,0,10.749-5.426,11.439-8.975c1.676,0.396,3.353,0.789,5.028,1.281
	c-1.479,6.408-6.605,11.834-16.37,11.834c-12.325,0-22.385-6.508-33.527-10.945c-6.51,8.381-14.298,10.945-22.089,10.945
	c-6.114,0-10.649-2.959-10.649-8.381c0-4.734,4.437-9.764,13.805-9.764c6.312,0,11.735,0.887,16.566,2.365
	c3.156-5.127,5.816-12.228,7.889-21.989c-4.141,1.084-8.579,1.774-13.411,1.774c-24.651,0-35.104-14.003-35.104-27.611
	c0-12.82,9.27-25.343,24.652-25.343c4.044,0,7.101,0.789,10.256,2.564c-0.789,1.676-1.678,3.253-2.468,4.832
	c-2.268-1.479-4.831-1.972-7.79-1.972c-12.521,0-19.919,9.96-19.919,20.512c0,11.538,9.072,24.061,30.372,24.061
	C40.487,72.641,45.22,71.851,49.461,70.471z M39.205,98.872c-4.536-1.578-9.369-2.563-14.496-2.563c-6.41,0-9.765,3.748-9.765,7.103
	c0,2.758,2.367,5.323,7.001,5.323C28.259,108.732,34.076,106.167,39.205,98.872z M57.645,53.411
	c-0.592,5.227-1.282,9.861-2.068,14.2C74.902,57.75,83.481,34.38,83.481,18.898c0-8.678-2.662-14.891-7.689-14.891
	C68.985,4.007,62.083,11.009,57.645,53.411z M108.239,64.751c0.493,0,1.775,0.691,1.775,0.987
	c-3.255,9.071-9.073,23.469-18.145,23.469c-7.595,0-10.554-7.298-10.554-16.074c0-13.412,6.903-30.273,16.37-30.273
	c3.748,0,5.621,2.563,5.621,6.113c0,7.791-8.974,16.666-16.468,18.046c-0.296,1.972-0.493,3.846-0.493,5.72
	c0,6.607,1.874,11.833,6.805,11.833C99.561,84.572,104.787,73.922,108.239,64.751z M87.135,64.456
	c8.283-3.846,12.03-10.749,12.03-15.383c0-2.367-0.69-3.55-1.974-3.55C92.954,45.522,88.812,55.285,87.135,64.456z M111.395,43.55
	c3.944-20.117,6.903-22.878,10.552-22.878c2.763,0,3.848,2.466,3.848,6.508c0,3.846-1.578,9.664-4.043,16.37h6.535l-0.594,3.155
	h-7.127c-2.069,5.325-4.731,10.946-7.396,16.468c-0.592,5.128-0.985,9.763-0.985,13.412c0,5.72,1.084,8.283,2.958,8.283
	c3.354,0,7.198-7.495,12.03-20.117c0.494,0,1.677,0.494,1.677,0.987v0.197c-5.917,15.778-9.96,23.272-15.383,23.272
	c-4.537,0-5.818-6.114-5.818-15.876c0.197-7.1,1.282-15.975,3.06-25.836c0-0.296,0.098-0.493,0.098-0.789h-3.747l0.591-3.155
	L111.395,43.55L111.395,43.55z M118.199,46.706h-2.467l-1.479,9.861L118.199,46.706z M121.947,24.419
	c-1.872,0-3.646,7.1-5.719,19.131h3.156c2.268-6.311,3.944-12.229,3.944-16.666C123.328,25.406,123.13,24.419,121.947,24.419z
	 M130.329,43.55c3.942-20.117,6.901-22.878,10.551-22.878c2.762,0,3.846,2.466,3.846,6.508c0,3.846-1.578,9.664-4.042,16.37h3.549
	l-0.591,3.155H139.5c-2.071,5.325-4.733,10.946-7.396,16.468c-0.592,5.128-0.984,9.763-0.984,13.412c0,5.72,1.085,8.283,2.958,8.283
	c3.353,0,7.196-7.495,12.029-20.117c0.492,0,1.678,0.494,1.678,0.987v0.197c-5.917,15.778-9.96,23.272-15.386,23.272
	c-4.536,0-5.816-6.114-5.816-15.876c0.195-7.1,1.28-15.975,3.057-25.836c0-0.296,0.099-0.493,0.099-0.789h-3.745l0.591-3.155
	L130.329,43.55L130.329,43.55z M137.133,46.706h-2.465l-1.479,9.861L137.133,46.706z M140.88,24.419
	c-1.874,0-3.648,7.1-5.719,19.131h3.154c2.269-6.311,3.944-12.229,3.944-16.666C142.261,25.406,142.063,24.419,140.88,24.419z
	 M172.24,64.751c0.492,0,1.773,0.691,1.773,0.987c-3.254,9.071-9.072,23.469-18.145,23.469c-7.594,0-10.553-7.298-10.553-16.074
	c0-13.412,6.902-30.273,16.369-30.273c3.748,0,5.621,2.563,5.621,6.113c0,7.791-8.975,16.666-16.469,18.046
	c-0.297,1.972-0.492,3.846-0.492,5.72c0,6.607,1.873,11.833,6.803,11.833C163.561,84.572,168.787,73.922,172.24,64.751z
	 M151.135,64.456c8.285-3.846,12.031-10.749,12.031-15.383c0-2.367-0.689-3.55-1.975-3.55
	C156.953,45.522,152.813,55.285,151.135,64.456z M184.074,84.671c2.762,0,6.508-7.1,11.438-19.919c0.396,0,1.777,0.494,1.777,0.987
	c-5.229,13.608-8.58,23.271-14.895,23.271c-3.646,0-5.227-2.465-5.227-6.508c0-6.706,4.637-13.905,4.637-20.117
	c0-4.733-2.072-7.791-3.453-11.045c-1.281,5.129-2.855,10.354-4.338,14.398c0,0-1.773-0.296-1.773-0.987
	c1.773-5.128,3.352-11.34,4.438-17.257c-0.688-1.479-0.986-3.452-0.986-6.015c0-3.55,0.691-7.593,1.775-11.637l4.635,1.282
	c-0.1,5.226-0.887,9.466-1.773,13.806l-0.594,1.972c2.467,3.846,7.002,7.988,7.002,14.595c0,7.297-4.635,15.285-4.635,20.412
	C182.102,83.783,182.891,84.671,184.074,84.671z M204.981,43.55c-3.154,15.088-6.213,29.09-6.213,37.176
	c0,2.958,0.789,4.043,1.775,4.043c3.059,0,6.705-7.198,11.537-20.018c0.494,0,1.773,0.494,1.773,0.987
	c-5.127,13.608-8.578,23.272-14.891,23.272c-3.549,0-5.029-4.241-5.029-10.255c0-9.96,3.748-25.146,5.818-35.205H204.981z
	 M201.135,33.195c0-2.168,1.381-4.831,4.043-4.831c2.07,0,2.959,1.578,2.959,3.352c0,2.269-1.578,4.635-4.043,4.635
	C202.024,36.351,201.135,34.872,201.135,33.195z M207.151,88.516c0.197-1.379,1.186-8.381,3.354-15.085
	c1.873-10.649,3.943-22.582,4.832-29.878h5.324l-2.365,13.707c3.549-7.396,7.199-14.101,13.115-14.101
	c3.152,0,5.025,2.268,5.025,6.311c0,8.283-6.9,23.568-6.9,31.654c0,2.662,0.984,3.648,2.365,3.648
	c3.256,0,7.299-8.678,11.639-20.018c0.592,0,1.771,0.789,1.771,0.987l-1.084,2.859c-3.846,10.256-8.479,20.413-14.396,20.413
	c-3.254,0-5.621-2.465-5.621-7.002c0-9.17,7.004-25.145,7.004-31.457c0-2.367-0.691-3.647-2.271-3.647
	c-3.254,0-9.172,9.17-12.816,22.089l-3.65,19.523h-5.325V88.516z M276.871,65.836c-4.145,10.749-10.061,17.947-15.582,23.666
	c-2.268,12.623-3.746,28.994-11.934,28.994c-3.447,0-5.916-2.566-5.916-7.004c0-7.592,6.115-13.41,12.82-20.215
	c0.984-4.93,1.773-10.354,2.662-15.383c-2.859,7.298-6.41,13.018-11.146,13.018c-4.141,0-5.914-4.538-5.914-11.341
	c0-13.806,7.199-34.613,16.072-34.613c3.354,0,5.029,2.465,5.621,6.114l1.186-5.522h5.127c-1.186,4.339-4.832,24.751-7.891,41.811
	c4.832-5.325,9.664-11.734,13.115-20.61C275.785,64.751,276.971,65.245,276.871,65.836z M246.795,77.571
	c0,4.142,0.887,7.001,2.959,7.001c4.141,0,9.17-11.932,11.732-23.47c0.297-2.07,0.689-4.141,0.689-6.212
	c0-4.339-1.184-7.988-4.043-7.988C252.711,46.903,246.795,66.625,246.795,77.571z M249.358,115.34c1.873,0,3.061-2.072,3.65-5.523
	l2.562-14.396c-4.832,5.029-8.773,9.959-8.773,16.072C246.795,114.157,247.977,115.34,249.358,115.34z"/>
<path fill="#E4D087" d="M258.72,89.232l-0.019,0.02c0.438-2.396,0.847-4.872,1.242-7.284c0.317-1.932,5.585-32.473,5.585-32.473
	l0.844-3.928h0.952c-1.52,7.006-4.479,23.54-7.138,38.364l-1.43,7.981l0.083-0.092c-0.134,0.799-0.269,1.604-0.401,2.416
	c-0.87,5.271-1.854,11.229-3.396,15.652L258.72,89.232z M76.776,109.577c-8.76,0-16.338-3.461-24.359-7.125
	c-0.771-0.353-1.549-0.707-2.333-1.062c1.47,0.621,2.904,1.258,4.319,1.885c7.19,3.184,13.981,6.188,22.274,6.188
	c8.456,0,11.67-5.229,12.86-8.575c0.361,0.088,0.727,0.178,1.089,0.271C88.612,106.537,83.667,109.577,76.776,109.577z
	 M14.257,107.436c-1.024-0.939-1.732-2.291-1.732-4.225c0-1.619,0.695-3.293,2.146-4.668c-1.148,1.482-1.739,3.193-1.739,4.865
	C12.93,104.791,13.361,106.214,14.257,107.436z M39.115,102.307c0.594-0.711,3.481-5.438,3.481-5.438
	c3.437-5.58,6.099-12.981,8.146-22.627l0.678-3.196l-0.02,0.004l0.038-0.193c0.948-4.837,1.765-10.474,2.49-17.231
	C57.388,21.937,62.44,9.97,67.932,5.553c-4.819,5.35-9.208,18.184-12.292,47.648c-0.56,4.944-1.229,9.545-2.049,14.049l-0.612,3.371
	l-0.169,0.825c-2.144,10.454-5.119,18.587-9.096,24.867l-1.352,2.131l-0.709,0.969C40.841,100.458,39.995,101.423,39.115,102.307z
	 M155.869,87.191c-7.428,0-8.535-8.809-8.535-14.059c0-0.277,0.023-2.887,0.441-6.256s2.77-10.909,4.86-14.607
	c-1.688,3.911-2.859,8.397-3.486,11.823c0,0-0.299,1.923-0.479,3.618c-0.227,2.13-0.341,4.199-0.341,5.028
	c0,12.5,6.167,13.849,8.816,13.849c0.661,0,1.316-0.082,1.965-0.246C158.079,86.885,156.996,87.191,155.869,87.191z M132.4,87.191
	c-2.558,0-3.802-4.533-3.802-13.86c0.014-0.487,0.035-1.041,0.062-1.604l0.496-6.715c0.509-5.11,1.339-10.884,2.469-17.159
	l0.03-0.177v-0.18c0.044-0.165,0.101-0.441,0.101-0.789l0.232-1.139l0.319-1.628c1.595-8.136,2.993-13.216,4.252-16.358
	c-1.012,3.118-2.075,8.017-3.385,15.629l-0.406,2.358h0.032l-1.605,10.701l-1.094,6.675c-0.682,5.907-0.999,10.242-0.999,13.643
	c0,2.51,0,10.073,4.758,10.294C133.37,87.089,132.885,87.191,132.4,87.191z M113.467,87.191c-2.559,0-3.802-4.533-3.802-13.86
	c0.013-0.446,0.029-0.957,0.054-1.477l0.504-6.846c0.507-5.11,1.337-10.883,2.467-17.157l0.686-3.914
	c1.596-8.14,2.995-13.221,4.254-16.363c-1.013,3.117-2.076,8.018-3.387,15.634l-0.406,2.358l-1.574,10.701l-1.055,6.336
	l-0.039,0.338c-0.672,5.823-0.999,10.286-0.999,13.643c0,2.514,0,10.096,4.781,10.295C114.454,87.09,113.961,87.191,113.467,87.191z
	 M91.869,87.191c-7.429,0-8.536-8.809-8.536-14.059c0-7.162,2.1-15.218,5.313-20.89c-1.692,3.917-2.869,8.417-3.496,11.849
	c0,0-0.517,1.992-0.732,4.144c-0.192,1.899-0.087,3.936-0.087,4.641c0,12.5,6.168,13.711,8.818,13.711
	c0.681,0,1.354-0.087,2.021-0.26C94.076,86.902,92.976,87.191,91.869,87.191z M229.83,86.995c-3.254,0-3.605-3.487-3.605-4.987
	c0-4.719,2.075-11.707,3.906-17.872c1.662-5.597,3.098-10.43,3.098-13.585c0-3.392-1.316-4.776-2.583-5.324
	c0.251-0.037,0.506-0.055,0.767-0.055c0.745,0,3.012,0,3.012,4.295c0,3.876-1.729,9.753-3.4,15.438
	c-1.802,6.124-3.502,11.907-3.502,16.216c0,4.312,2.259,5.361,3.639,5.599C230.706,86.902,230.264,86.995,229.83,86.995z
	 M198.965,86.995c-2.796,0-3.014-6.307-3.014-8.24c0-1.42,0.082-3.037,0.242-4.807l1.146-8.445
	c0.894-5.278,2.089-10.814,3.145-15.699c0.317-1.473,0.624-2.893,0.908-4.238h1.105l-0.112,0.537
	c-3.023,14.413-5.634,26.861-5.634,34.623c0,5.024,2.238,5.931,3.483,6.045C199.818,86.921,199.395,86.995,198.965,86.995z
	 M182.397,86.995c-1.122,0-3.211,0-3.211-4.493c0-3.084,1.158-6.494,2.278-9.791c1.159-3.415,2.358-6.946,2.358-10.326
	c0-4.172-1.431-7.174-2.69-9.823c-0.13-0.273-0.26-0.545-0.387-0.816c2.06,2.792,3.976,5.767,3.976,9.752
	c0,3.647-1.282,7.548-2.521,11.321c-1.088,3.307-2.112,6.43-2.112,9.09c0,3.407,2.005,4.69,3.8,4.772
	C183.403,86.889,182.907,86.995,182.397,86.995z M247.78,86.896c-3.392,0-3.896-5.842-3.896-9.327c0-1.005,0.041-2.07,0.121-3.165
	c0,0,0.589-5.279,1.354-8.823c2.012-9.291,6.239-17.467,10.129-19.838c-6.532,4.286-10.707,23.478-10.707,31.825
	c0,6.99,2.382,8.8,4.55,9C248.811,86.788,248.295,86.896,247.78,86.896z M209.5,86.5c0.635-3.85,6.814-34.977,7.608-40.934h1.156
	l-1.958,11.348L210.801,86.5H209.5z M10.018,65.548c-5.479-4.965-7.749-11.522-7.749-17.56c0-11.309,7.936-23.327,22.639-23.327
	c2.945,0,5.258,0.43,7.559,1.446c-0.196,0.379-0.612,1.172-0.624,1.195c-1.966-0.848-4.221-1.25-6.936-1.25
	C10.658,26.052,2.97,37.659,2.97,48.58C2.97,54.535,5.249,60.705,10.018,65.548z M66.7,62.287
	c13.602-12.492,18.796-31.62,18.796-43.389c0-5.338-0.977-9.641-2.729-12.57c2.733,3.319,3.825,8.696,3.825,13.852
	C86.593,34.003,79.699,51.278,66.7,62.287z M164.855,51.821c0.222-0.961,0.327-1.885,0.327-2.749c0-0.878-0.088-1.618-0.239-2.243
	c0.233,0.585,0.353,1.3,0.353,2.144C165.293,49.908,165.138,50.864,164.855,51.821z M100.857,51.808
	c0.22-0.956,0.325-1.876,0.325-2.735c0-0.875-0.088-1.613-0.238-2.236c0.231,0.583,0.349,1.296,0.349,2.138
	C101.291,49.904,101.138,50.855,100.857,51.808z M178.081,45.398c-0.251-1.028-0.374-2.324-0.374-3.919
	c0-2.651,0.407-5.72,1.211-9.144l1.116,0.309c-0.207,4.342-0.902,8.066-1.665,11.793L178.081,45.398z M204.094,34.335
	c-0.398,0-0.943,0-0.943-1.14c0-0.882,0.513-2.815,2.027-2.815c0.329,0,0.943,0,0.943,1.336
	C206.121,32.814,205.416,34.335,204.094,34.335z"/>
</svg>
