<?xml version="1.0" encoding="utf-8"?>
<!-- Generator: Adobe Illustrator 15.0.0, SVG Export Plug-In . SVG Version: 6.00 Build 0)  -->
<!DOCTYPE svg PUBLIC "-//W3C//DTD SVG 1.1//EN" "http://www.w3.org/Graphics/SVG/1.1/DTD/svg11.dtd">
<svg version="1.1" id="Layer_1" xmlns="http://www.w3.org/2000/svg" xmlns:xlink="http://www.w3.org/1999/xlink" x="0px" y="0px"
	 width="287.93px" height="170.879px" viewBox="0 0 287.93 170.879" enable-background="new 0 0 287.93 170.879"
	 xml:space="preserve">
<g display="none">
	<path display="inline" d="M23.663,59.621h9.331v-57.5h-4.875c-1.122,0-2.385,0.099-3.783,0.294
		c-1.401,0.197-2.815,0.743-4.246,1.639c-1.429,0.897-2.803,2.312-4.118,4.245c-1.317,1.934-2.452,4.61-3.404,8.028h-0.925V0.945
		h51.109v15.383h-0.924c-0.954-3.417-2.088-6.094-3.405-8.028c-1.316-1.934-2.689-3.348-4.118-4.245
		c-1.43-0.896-2.846-1.442-4.245-1.639c-1.399-0.196-2.663-0.294-3.783-0.294H41.4v57.5h9.331v1.177H23.663V59.621z"/>
	<path display="inline" d="M55.707,24.735h20.597v1.177h-7.062l10.844,26.396l11.35-26.396h-6.979v-1.177h12.86v1.177h-4.539
		L78.909,58.36c-1.065,2.411-2.074,4.834-3.026,7.271c-0.953,2.438-1.905,4.889-2.857,7.355c-0.785,2.018-1.568,3.783-2.354,5.296
		c-0.786,1.513-1.611,2.745-2.479,3.699c-0.869,0.952-1.808,1.667-2.814,2.144c-1.009,0.476-2.188,0.714-3.53,0.714
		c-1.627,0-2.93-0.252-3.909-0.756s-1.752-1.093-2.312-1.766c-0.562-0.672-0.926-1.374-1.094-2.102
		c-0.168-0.729-0.253-1.345-0.253-1.849c0-1.401,0.395-2.452,1.179-3.152c0.783-0.702,1.734-1.051,2.856-1.051
		c0.394,0,0.812,0.042,1.263,0.126c0.446,0.084,0.866,0.238,1.261,0.462c0.393,0.223,0.729,0.532,1.01,0.925
		c0.279,0.391,0.42,0.868,0.42,1.429c0,0.784-0.239,1.526-0.716,2.228c-0.478,0.7-0.714,1.471-0.714,2.312
		c0,0.728,0.195,1.205,0.588,1.429c0.393,0.223,0.926,0.336,1.598,0.336c0.896,0,1.726-0.21,2.479-0.631
		c0.756-0.421,1.499-1.107,2.229-2.06c0.729-0.954,1.457-2.2,2.188-3.741c0.729-1.542,1.541-3.434,2.438-5.674l3.698-9.415
		L61.507,25.912h-5.8V24.735z"/>
	<path display="inline" d="M100.562,83.159h6.475V25.912h-6.475v-1.177h13.534v7.061h0.168c0.841-2.354,2.229-4.3,4.16-5.842
		c1.935-1.541,4.441-2.312,7.522-2.312c2.408,0,4.68,0.519,6.81,1.555c2.13,1.038,4.007,2.41,5.633,4.119
		c1.625,1.71,2.914,3.713,3.866,6.011c0.952,2.299,1.43,4.708,1.43,7.229c0,2.578-0.491,5.031-1.472,7.355
		c-0.98,2.326-2.312,4.386-3.992,6.179c-1.682,1.794-3.63,3.223-5.843,4.287c-2.215,1.064-4.554,1.597-7.021,1.597
		c-1.904,0-3.519-0.323-4.833-0.967c-1.315-0.644-2.396-1.4-3.234-2.27c-0.842-0.868-1.485-1.765-1.936-2.69
		c-0.448-0.925-0.756-1.667-0.925-2.228h-0.168v29.338h6.473v1.177H100.56L100.562,83.159L100.562,83.159z M135.28,41.547
		c0-2.577-0.141-4.889-0.42-6.935c-0.279-2.045-0.771-3.796-1.471-5.254c-0.702-1.457-1.683-2.577-2.942-3.363
		c-1.261-0.784-2.871-1.177-4.831-1.177c-2.074,0-3.783,0.365-5.13,1.093c-1.345,0.729-2.438,1.654-3.276,2.774
		c-0.618,0.786-1.106,1.626-1.473,2.522c-0.363,0.897-0.658,1.962-0.883,3.194c-0.226,1.233-0.378,2.648-0.462,4.245
		s-0.126,3.489-0.126,5.674c0,1.85,0.139,3.755,0.42,5.716c0.279,1.962,0.812,3.741,1.599,5.338c0.782,1.597,1.891,2.9,3.318,3.909
		c1.431,1.009,3.32,1.513,5.674,1.513c2.299,0,4.119-0.448,5.466-1.345c1.345-0.896,2.354-2.186,3.024-3.867
		c0.673-1.681,1.093-3.712,1.261-6.095C135.196,47.11,135.28,44.462,135.28,41.547z"/>
	<path display="inline" d="M158.801,39.95c0,0.561-0.015,1.135-0.042,1.723c-0.028,0.588-0.042,1.332-0.042,2.228
		c0,1.85,0.112,3.783,0.336,5.801c0.224,2.018,0.715,3.839,1.472,5.464c0.756,1.626,1.877,2.971,3.361,4.035
		c1.484,1.065,3.461,1.597,5.928,1.597c2.465,0,4.497-0.364,6.097-1.093c1.597-0.728,2.856-1.61,3.781-2.648
		c0.927-1.037,1.609-2.087,2.062-3.152c0.448-1.064,0.784-1.934,1.009-2.606l1.262,0.252c-0.168,0.618-0.49,1.5-0.967,2.648
		c-0.478,1.149-1.232,2.299-2.271,3.447c-1.038,1.149-2.438,2.158-4.203,3.026c-1.768,0.868-4.051,1.303-6.853,1.303
		c-2.804,0-5.396-0.449-7.774-1.345c-2.385-0.896-4.441-2.186-6.181-3.867c-1.736-1.681-3.083-3.684-4.033-6.01
		c-0.954-2.325-1.431-4.918-1.431-7.776c0-2.465,0.489-4.861,1.473-7.188c0.979-2.325,2.323-4.384,4.033-6.179
		c1.709-1.793,3.712-3.236,6.012-4.329c2.297-1.093,4.763-1.639,7.396-1.639c1.567,0,3.25,0.281,5.043,0.84
		c1.793,0.561,3.46,1.471,5.002,2.732c1.541,1.261,2.829,2.929,3.867,5.002c1.036,2.074,1.555,4.652,1.555,7.734H158.801z
		 M176.118,38.773c0.11-0.784,0.168-1.513,0.168-2.186c0-0.672,0-1.373,0-2.102c0-1.904-0.185-3.474-0.546-4.708
		c-0.365-1.232-0.87-2.213-1.515-2.942c-0.646-0.728-1.43-1.247-2.354-1.555c-0.926-0.308-1.92-0.462-2.983-0.462
		c-1.906,0-3.477,0.378-4.708,1.135c-1.231,0.756-2.215,1.78-2.94,3.068c-0.729,1.29-1.275,2.774-1.641,4.455
		c-0.365,1.682-0.604,3.447-0.715,5.296L176.118,38.773L176.118,38.773z"/>
	<path display="inline" d="M10.97,150.622h9.33V93.124h-9.33v-1.179h15.636c0.784,0,1.567-0.013,2.354-0.042
		c0.784-0.027,1.566-0.068,2.354-0.126c0.784,0,1.567-0.013,2.354-0.042c0.784-0.025,1.566-0.042,2.354-0.042
		c1.683,0,3.182,0.029,4.498,0.084c1.315,0.058,2.549,0.155,3.698,0.294c1.148,0.143,2.241,0.338,3.278,0.59
		s2.145,0.573,3.319,0.967c3.417,1.121,6.374,2.621,8.869,4.498c2.493,1.877,4.539,4.049,6.137,6.516s2.773,5.154,3.53,8.068
		s1.135,5.97,1.135,9.162c0,3.698-0.447,7.021-1.345,9.963c-0.896,2.94-2.13,5.547-3.699,7.816c-1.568,2.27-3.403,4.23-5.506,5.885
		c-2.103,1.653-4.356,2.983-6.768,3.993c-1.345,0.617-2.621,1.093-3.824,1.429c-1.206,0.338-2.438,0.59-3.699,0.758
		s-2.646,0.279-4.161,0.336c-1.513,0.057-3.251,0.084-5.212,0.084c-0.841,0-1.736-0.014-2.688-0.041
		c-0.954-0.028-1.905-0.07-2.857-0.127c-0.954-0.057-1.893-0.098-2.814-0.127c-0.926-0.026-1.809-0.041-2.647-0.041H10.97V150.622z
		 M28.707,150.622c0.952,0.112,2.061,0.196,3.318,0.252c1.263,0.059,2.647,0.084,4.161,0.084c1.904,0,3.796-0.098,5.674-0.293
		c1.877-0.195,3.672-0.617,5.382-1.263c1.708-0.646,3.306-1.567,4.792-2.772c1.482-1.205,2.814-2.787,3.991-4.75
		c1.792-3.024,3.039-6.121,3.741-9.289c0.699-3.166,1.051-6.627,1.051-10.381c0-4.428-0.42-8.449-1.261-12.062
		s-2.229-6.695-4.161-9.247c-1.934-2.549-4.497-4.524-7.689-5.926c-3.194-1.399-7.146-2.103-11.854-2.103
		c-1.4,0-2.678,0.027-3.825,0.084c-1.147,0.055-2.256,0.111-3.318,0.168L28.707,150.622L28.707,150.622z"/>
	<path display="inline" d="M87.189,130.952c0,0.562-0.016,1.135-0.042,1.723c-0.027,0.59-0.042,1.332-0.042,2.229
		c0,1.851,0.111,3.783,0.336,5.802c0.225,2.02,0.714,3.84,1.473,5.465c0.756,1.625,1.877,2.972,3.36,4.035s3.46,1.598,5.929,1.598
		c2.465,0,4.497-0.363,6.095-1.094c1.598-0.729,2.856-1.608,3.783-2.646c0.925-1.036,1.608-2.087,2.061-3.15
		c0.447-1.063,0.783-1.936,1.009-2.606l1.263,0.253c-0.168,0.618-0.491,1.5-0.969,2.646c-0.478,1.148-1.231,2.299-2.271,3.446
		s-2.438,2.158-4.202,3.024c-1.767,0.869-4.051,1.304-6.852,1.304c-2.805,0-5.396-0.448-7.776-1.345
		c-2.383-0.895-4.441-2.188-6.179-3.866c-1.738-1.683-3.083-3.687-4.035-6.013c-0.954-2.323-1.429-4.918-1.429-7.774
		c0-2.465,0.488-4.86,1.471-7.188c0.979-2.322,2.325-4.385,4.035-6.178c1.709-1.793,3.712-3.236,6.01-4.33
		c2.298-1.093,4.764-1.64,7.396-1.64c1.568,0,3.25,0.28,5.045,0.84c1.793,0.562,3.46,1.472,5.002,2.731
		c1.541,1.263,2.827,2.931,3.865,5.002c1.037,2.074,1.557,4.652,1.557,7.734H87.189V130.952z M104.506,129.773
		c0.112-0.782,0.168-1.515,0.168-2.187s0-1.373,0-2.104c0-1.902-0.183-3.477-0.546-4.707c-0.364-1.23-0.87-2.213-1.513-2.941
		c-0.646-0.729-1.431-1.246-2.354-1.556c-0.926-0.308-1.921-0.463-2.984-0.463c-1.904,0-3.477,0.378-4.708,1.136
		s-2.214,1.779-2.94,3.067c-0.729,1.29-1.274,2.772-1.641,4.455c-0.365,1.683-0.604,3.444-0.714,5.296L104.506,129.773
		L104.506,129.773z"/>
	<path display="inline" d="M120.318,140.029h0.927c0.391,1.347,0.896,2.705,1.513,4.077c0.616,1.374,1.442,2.637,2.479,3.782
		c1.036,1.149,2.312,2.09,3.825,2.815c1.515,0.729,3.333,1.094,5.464,1.094c1.793,0,3.392-0.547,4.792-1.641
		c1.399-1.094,2.104-2.871,2.104-5.339c0-2.13-0.546-3.628-1.642-4.496c-1.093-0.868-2.366-1.557-3.823-2.062l-6.559-2.27
		c-0.841-0.279-1.752-0.632-2.73-1.052c-0.98-0.42-1.893-1.008-2.731-1.767c-0.842-0.756-1.525-1.723-2.061-2.898
		c-0.534-1.176-0.798-2.689-0.798-4.54c0-1.567,0.307-3.024,0.924-4.371c0.616-1.345,1.457-2.521,2.521-3.528
		c1.063-1.01,2.339-1.793,3.825-2.354c1.483-0.562,3.096-0.84,4.834-0.84c1.231,0,2.229,0.101,2.983,0.294
		c0.756,0.195,1.415,0.395,1.976,0.589c0.562,0.196,1.063,0.396,1.513,0.588c0.448,0.197,0.979,0.298,1.599,0.298
		c0.616,0,1.062-0.227,1.346-0.676h0.925v9.583h-0.925c-0.394-1.229-0.842-2.424-1.346-3.569c-0.504-1.148-1.106-2.172-1.809-3.068
		c-0.701-0.896-1.568-1.598-2.604-2.102c-1.038-0.508-2.257-0.76-3.656-0.76c-2.688,0-4.779,0.604-6.264,1.811
		c-1.485,1.205-2.229,2.813-2.229,4.834c0,1.793,0.631,3.149,1.894,4.076c1.261,0.924,3.124,1.776,5.59,2.562l6.138,2.021
		c2.633,0.896,4.792,2.129,6.475,3.695c1.681,1.566,2.521,3.646,2.521,6.223c0,1.514-0.295,3-0.884,4.457s-1.458,2.729-2.605,3.821
		c-1.147,1.095-2.551,1.978-4.203,2.646c-1.652,0.672-3.545,1.011-5.674,1.011c-1.231,0-2.368-0.125-3.402-0.38
		c-1.038-0.252-1.99-0.52-2.858-0.799c-0.869-0.277-1.668-0.547-2.396-0.799c-0.729-0.252-1.401-0.379-2.019-0.379
		c-0.618,0-1.064,0.127-1.346,0.379s-0.504,0.521-0.672,0.799h-0.927L120.318,140.029L120.318,140.029z"/>
	<path display="inline" d="M153.254,146.333c0-1.514,0.28-2.814,0.842-3.908c0.561-1.094,1.246-2.045,2.061-2.857
		c0.812-0.812,1.682-1.471,2.604-1.977c0.925-0.504,1.752-0.926,2.479-1.262c-3.25-2.24-4.875-5.268-4.875-9.078
		c0-1.961,0.476-3.728,1.429-5.297c0.952-1.568,2.157-2.897,3.615-3.992c1.457-1.094,3.066-1.92,4.833-2.479
		c1.765-0.561,3.46-0.84,5.086-0.84c2.521,0,4.691,0.504,6.515,1.514c1.821,1.01,3.152,1.936,3.993,2.773
		c0.616-1.062,1.524-2.047,2.73-2.942c1.205-0.896,2.703-1.345,4.498-1.345c1.121,0,2.157,0.236,3.109,0.715s1.43,1.5,1.43,3.066
		c0,1.01-0.321,1.767-0.967,2.271c-0.646,0.506-1.304,0.758-1.977,0.758c-0.786,0-1.347-0.225-1.683-0.674
		c-0.336-0.445-0.63-0.925-0.883-1.43c-0.253-0.504-0.52-0.979-0.799-1.432c-0.28-0.445-0.701-0.672-1.261-0.672
		c-0.562,0-1.137,0.238-1.725,0.715c-0.588,0.479-1.105,1.022-1.556,1.641c0.505,0.562,1.147,1.516,1.935,2.857
		c0.784,1.346,1.179,3.024,1.179,5.043c0,1.684-0.42,3.226-1.263,4.623c-0.84,1.401-1.946,2.635-3.318,3.699
		c-1.374,1.064-2.973,1.891-4.792,2.479c-1.822,0.588-3.688,0.883-5.591,0.883c-1.963,0-3.672-0.267-5.128-0.799
		c-1.458-0.532-2.577-0.994-3.361-1.388c-0.618,0.281-1.274,0.588-1.978,0.924s-1.345,0.758-1.935,1.263
		c-0.588,0.504-1.08,1.106-1.471,1.808c-0.395,0.7-0.589,1.5-0.589,2.396c0,0.84,0.168,1.541,0.505,2.104
		c0.336,0.562,0.771,0.979,1.303,1.26c0.532,0.281,1.136,0.479,1.808,0.588c0.673,0.113,1.373,0.171,2.104,0.171h13.281
		c3.923,0,7.048,0.938,9.372,2.813c2.325,1.875,3.489,4.834,3.489,8.867c0,2.467-0.534,4.708-1.599,6.727
		c-1.065,2.02-2.479,3.771-4.245,5.254c-1.766,1.484-3.797,2.636-6.094,3.447c-2.3,0.812-4.652,1.219-7.062,1.219
		c-2.187,0-4.188-0.252-6.012-0.756c-1.821-0.504-3.403-1.19-4.75-2.062c-1.345-0.87-2.396-1.921-3.151-3.151
		c-0.756-1.231-1.136-2.604-1.136-4.119c0-1.457,0.295-2.787,0.884-3.992c0.589-1.204,1.346-2.27,2.271-3.193
		c0.925-0.923,1.977-1.725,3.15-2.396c1.179-0.674,2.354-1.233,3.531-1.684v-0.168c-3.699,0-6.432-0.604-8.196-1.809
		C154.135,151.307,153.254,149.25,153.254,146.333z M165.863,154.32c-0.729,0.447-1.471,0.91-2.229,1.388
		c-0.756,0.478-1.429,1.078-2.018,1.81c-0.59,0.729-1.065,1.583-1.431,2.562c-0.365,0.979-0.546,2.198-0.546,3.656
		c0,2.02,0.352,3.686,1.051,5.002c0.7,1.314,1.599,2.383,2.689,3.194c1.093,0.812,2.312,1.387,3.657,1.723
		c1.345,0.339,2.661,0.507,3.95,0.507c2.019,0,3.854-0.311,5.507-0.927c1.65-0.616,3.082-1.442,4.287-2.479
		c1.204-1.037,2.129-2.228,2.772-3.57c0.645-1.346,0.967-2.746,0.967-4.203c0-3.141-0.854-5.367-2.562-6.684
		c-1.71-1.316-4.049-1.978-7.021-1.978H165.863z M179.482,127c0-1.289-0.084-2.592-0.252-3.908s-0.52-2.522-1.051-3.614
		c-0.533-1.095-1.346-1.978-2.438-2.647c-1.095-0.674-2.564-1.01-4.413-1.01c-2.857,0-5.018,0.87-6.475,2.605
		c-1.458,1.738-2.187,4.597-2.187,8.574c0,1.683,0.126,3.191,0.378,4.539c0.252,1.346,0.714,2.51,1.388,3.486
		c0.672,0.979,1.567,1.727,2.689,2.229c1.12,0.504,2.549,0.758,4.287,0.758c2.914,0,4.985-0.91,6.221-2.73
		C178.865,133.458,179.482,130.7,179.482,127z"/>
	<path display="inline" d="M197,150.622h6.474v-33.709H197v-1.178h13.702v34.887h6.473v1.178H197V150.622z M202.464,96.148
		c0-1.231,0.435-2.282,1.304-3.151c0.867-0.867,1.919-1.304,3.151-1.304c1.23,0,2.283,0.437,3.15,1.304
		c0.868,0.871,1.305,1.92,1.305,3.151s-0.437,2.284-1.305,3.151c-0.868,0.869-1.92,1.304-3.15,1.304
		c-1.232,0-2.284-0.435-3.151-1.304C202.898,98.432,202.464,97.379,202.464,96.148z"/>
	<path display="inline" d="M221.706,150.622h6.474v-33.709h-6.474v-1.178h13.534v8.995h0.168c0.336-0.729,0.824-1.651,1.471-2.772
		c0.645-1.121,1.524-2.215,2.646-3.278c1.121-1.062,2.521-1.978,4.203-2.731c1.684-0.756,3.729-1.135,6.139-1.135
		c3.697,0,6.711,0.896,9.035,2.688c2.325,1.795,3.488,4.651,3.488,8.576v24.545h6.473v1.178H248.69v-1.178h6.475V123.47
		c0-2.187-0.521-3.979-1.557-5.38c-1.038-1.398-2.646-2.104-4.833-2.104c-1.794,0-3.503,0.395-5.128,1.178
		c-1.626,0.785-3.056,1.879-4.287,3.278s-2.198,3.056-2.898,4.959c-0.701,1.906-1.051,3.979-1.051,6.222v18.998h6.473v1.178h-20.175
		L221.706,150.622L221.706,150.622z"/>
</g>
<path fill="none" stroke="#000000" stroke-width="0.35" d="M11.642,0.945h51.109v15.383h-0.924
	c-0.954-3.417-2.089-6.094-3.405-8.028c-1.316-1.934-2.689-3.348-4.118-4.245c-1.43-0.896-2.846-1.442-4.245-1.639
	c-1.399-0.196-2.663-0.294-3.783-0.294H41.4v57.5h9.331v1.177H23.663v-1.177h9.331v-57.5h-4.875c-1.122,0-2.385,0.099-3.783,0.294
	c-1.401,0.197-2.815,0.743-4.246,1.639c-1.429,0.897-2.803,2.312-4.118,4.245c-1.317,1.934-2.452,4.61-3.404,8.028"/>
<path fill="none" stroke="#000000" stroke-width="0.35" d="M76.303,25.912h-7.062l10.844,26.396l11.35-26.396h-6.979v-1.177h12.86
	v1.177h-4.539L78.909,58.36c-1.065,2.411-2.074,4.834-3.026,7.271c-0.953,2.438-1.905,4.889-2.857,7.355
	c-0.785,2.018-1.568,3.783-2.354,5.296c-0.786,1.513-1.611,2.745-2.479,3.699c-0.869,0.952-1.808,1.667-2.814,2.144
	c-1.009,0.476-2.188,0.714-3.53,0.714c-1.627,0-2.93-0.252-3.909-0.756s-1.752-1.093-2.312-1.766
	c-0.562-0.672-0.926-1.374-1.094-2.102c-0.168-0.729-0.253-1.345-0.253-1.849c0-1.401,0.395-2.452,1.179-3.152
	c0.783-0.702,1.734-1.051,2.856-1.051c0.394,0,0.812,0.042,1.263,0.126c0.446,0.084,0.866,0.238,1.261,0.462
	c0.393,0.223,0.729,0.532,1.01,0.925c0.279,0.391,0.42,0.868,0.42,1.429c0,0.784-0.239,1.526-0.716,2.228
	c-0.478,0.7-0.714,1.471-0.714,2.312c0,0.728,0.195,1.205,0.588,1.429c0.393,0.223,0.926,0.336,1.598,0.336
	c0.896,0,1.726-0.21,2.479-0.631c0.756-0.421,1.499-1.107,2.229-2.06c0.729-0.954,1.457-2.2,2.188-3.741
	c0.729-1.542,1.541-3.434,2.438-5.674l3.698-9.415"/>
<path fill="none" stroke="#000000" stroke-width="0.35" d="M114.433,53.821h-0.168v29.338h6.473v1.177h-20.175v-1.177h6.475V25.912
	h-6.475v-1.177h13.534v7.061h0.168c0.841-2.354,2.229-4.3,4.16-5.842c1.935-1.541,4.441-2.312,7.523-2.312
	c2.407,0,4.679,0.519,6.809,1.555c2.13,1.038,4.007,2.41,5.633,4.119c1.625,1.71,2.914,3.713,3.866,6.011 M135.28,41.547
	c0-2.577-0.141-4.889-0.42-6.935c-0.279-2.045-0.771-3.796-1.471-5.254c-0.702-1.457-1.683-2.577-2.942-3.363
	c-1.261-0.784-2.871-1.177-4.831-1.177c-2.074,0-3.783,0.365-5.13,1.093c-1.345,0.729-2.438,1.654-3.276,2.774
	c-0.618,0.786-1.106,1.626-1.473,2.522c-0.363,0.897-0.658,1.962-0.883,3.194c-0.226,1.233-0.378,2.648-0.462,4.245
	s-0.126,3.489-0.126,5.674c0,1.85,0.139,3.755,0.42,5.716c0.279,1.962,0.812,3.741,1.599,5.338c0.782,1.597,1.891,2.9,3.318,3.909
	c1.431,1.009,3.32,1.513,5.674,1.513c2.299,0,4.119-0.448,5.466-1.345c1.345-0.896,2.354-2.186,3.024-3.867
	c0.673-1.681,1.093-3.712,1.261-6.095C135.196,47.11,135.28,44.462,135.28,41.547z"/>
<path fill="none" stroke="#000000" stroke-width="0.35" d="M184.692,39.95H158.8c0,0.561-0.015,1.135-0.042,1.723
	c-0.028,0.588-0.042,1.332-0.042,2.228c0,1.85,0.112,3.783,0.336,5.801c0.224,2.018,0.715,3.839,1.472,5.464
	c0.756,1.626,1.877,2.971,3.361,4.035c1.484,1.065,3.461,1.597,5.928,1.597c2.465,0,4.497-0.364,6.097-1.093
	c1.597-0.728,2.856-1.61,3.781-2.648c0.927-1.037,1.609-2.087,2.062-3.152c0.448-1.064,0.784-1.934,1.009-2.606l1.262,0.252
	c-0.168,0.618-0.49,1.5-0.967,2.648c-0.478,1.149-1.233,2.299-2.271,3.447c-1.038,1.149-2.438,2.158-4.203,3.026
	c-1.768,0.868-4.052,1.303-6.853,1.303c-2.804,0-5.396-0.449-7.774-1.345c-2.385-0.896-4.441-2.186-6.181-3.867
	c-1.736-1.681-3.083-3.684-4.033-6.01c-0.954-2.325-1.431-4.918-1.431-7.776c0-2.465,0.489-4.861,1.473-7.188
	c0.979-2.325,2.323-4.384,4.033-6.179c1.709-1.793,3.712-3.236,6.012-4.329 M176.118,38.773c0.11-0.784,0.168-1.513,0.168-2.186
	c0-0.672,0-1.373,0-2.102c0-1.904-0.185-3.474-0.546-4.708c-0.365-1.232-0.87-2.213-1.515-2.942
	c-0.646-0.728-1.43-1.247-2.354-1.555c-0.926-0.308-1.92-0.462-2.983-0.462c-1.906,0-3.477,0.378-4.708,1.135
	c-1.231,0.756-2.215,1.78-2.94,3.068c-0.729,1.29-1.275,2.774-1.641,4.455c-0.365,1.682-0.604,3.447-0.715,5.296L176.118,38.773
	L176.118,38.773z"/>
<line fill="none" stroke="#00BAFF" stroke-width="0.3" x1="12.877" y1="4.927" x2="12.908" y2="16.185"/>
<rect x="12.289" y="4.308" fill="#00BAFF" width="1.236" height="1.238"/>
<rect x="77.801" y="54.234" transform="matrix(-0.9351 -0.3543 0.3543 -0.9351 132.317 133.9338)" fill="#00BAFF" width="1.238" height="1.239"/>
<line fill="none" stroke="#00BAFF" stroke-width="0.3" x1="0.619" y1="16.287" x2="12.877" y2="16.255"/>
<rect x="0" y="15.636" fill="#00BAFF" width="1.236" height="1.238"/>
<g>
	<rect x="12.196" y="15.543" fill="#FFFFFF" width="1.427" height="1.425"/>
	<path fill="#00BAFF" d="M13.471,15.693v1.125h-1.125v-1.125H13.471 M13.771,15.393h-0.3h-1.125h-0.301v0.3v1.125v0.3h0.301h1.125
		h0.3v-0.3v-1.125V15.393L13.771,15.393z"/>
</g>
<g>
	<rect x="11.071" y="0.232" fill="#FFFFFF" width="1.427" height="1.425"/>
	<path fill="#00BAFF" d="M12.346,0.382v1.125h-1.125V0.382H12.346 M12.646,0.083h-0.3h-1.125H10.92v0.3v1.125v0.3h0.301h1.125h0.3
		v-0.3V0.382V0.083L12.646,0.083z"/>
</g>
<g>
	<rect x="32.227" y="1.357" fill="#FFFFFF" width="1.425" height="1.425"/>
	<path fill="#00BAFF" d="M33.502,1.507v1.125h-1.125V1.507H33.502 M33.802,1.208h-0.3h-1.125h-0.3v0.3v1.125v0.3h0.3h1.125h0.3v-0.3
		V1.507V1.208L33.802,1.208z"/>
</g>
<g>
	<rect x="32.248" y="58.857" fill="#FFFFFF" width="1.425" height="1.425"/>
	<path fill="#00BAFF" d="M33.523,59.007v1.125h-1.125v-1.125H33.523 M33.823,58.708h-0.302h-1.125h-0.3v0.3v1.125v0.3h0.3h1.125
		h0.302v-0.3v-1.125V58.708L33.823,58.708z"/>
</g>
<g>
	<rect x="40.707" y="58.857" fill="#FFFFFF" width="1.425" height="1.425"/>
	<path fill="#00BAFF" d="M41.981,59.007v1.125h-1.125v-1.125H41.981 M42.281,58.708H41.98h-1.125h-0.3v0.3v1.125v0.3h0.3h1.125
		h0.302v-0.3v-1.125V58.708L42.281,58.708z"/>
</g>
<g>
	<rect x="50.04" y="60.085" fill="#FFFFFF" width="1.425" height="1.425"/>
	<path fill="#00BAFF" d="M51.315,60.235v1.125H50.19v-1.125H51.315 M51.615,59.936h-0.302H50.19h-0.3v0.3v1.125v0.3h0.3h1.125h0.302
		v-0.3v-1.125L51.615,59.936L51.615,59.936z"/>
</g>
<g>
	<rect x="50.04" y="58.857" fill="#FFFFFF" width="1.425" height="1.425"/>
	<path fill="#00BAFF" d="M51.315,59.007v1.125H50.19v-1.125H51.315 M51.615,58.708h-0.302H50.19h-0.3v0.3v1.125v0.3h0.3h1.125h0.302
		v-0.3v-1.125L51.615,58.708L51.615,58.708z"/>
</g>
<g>
	<rect x="22.915" y="60.085" fill="#FFFFFF" width="1.425" height="1.425"/>
	<path fill="#00BAFF" d="M24.19,60.235v1.125h-1.125v-1.125H24.19 M24.49,59.936H24.19h-1.125h-0.3v0.3v1.125v0.3h0.3h1.125h0.302
		v-0.3v-1.125L24.49,59.936L24.49,59.936z"/>
</g>
<g>
	<rect x="22.915" y="58.96" fill="#FFFFFF" width="1.425" height="1.425"/>
	<path fill="#00BAFF" d="M24.19,59.11v1.125h-1.125V59.11H24.19 M24.49,58.811H24.19h-1.125h-0.3v0.3v1.125v0.3h0.3h1.125h0.302
		v-0.3V59.11L24.49,58.811L24.49,58.811z"/>
</g>
<g>
	<rect x="40.688" y="1.409" fill="#FFFFFF" width="1.425" height="1.425"/>
	<path fill="#00BAFF" d="M41.963,1.559v1.125h-1.125V1.559H41.963 M42.263,1.259h-0.301h-1.125h-0.3v0.3v1.125v0.3h0.3h1.125h0.301
		v-0.3V1.559V1.259L42.263,1.259z"/>
</g>
<g>
	<rect x="62.04" y="0.232" fill="#FFFFFF" width="1.425" height="1.425"/>
	<path fill="#00BAFF" d="M63.315,0.382v1.125H62.19V0.382H63.315 M63.615,0.083h-0.302H62.19h-0.3v0.3v1.125v0.3h0.3h1.125h0.302
		v-0.3V0.382L63.615,0.083L63.615,0.083z"/>
</g>
<g>
	<rect x="62.04" y="15.566" fill="#FFFFFF" width="1.425" height="1.425"/>
	<path fill="#00BAFF" d="M63.315,15.716v1.125H62.19v-1.125H63.315 M63.615,15.416h-0.302H62.19h-0.3v0.3v1.125v0.3h0.3h1.125h0.302
		v-0.3v-1.125L63.615,15.416L63.615,15.416z"/>
</g>
<g>
	<rect x="61.165" y="15.566" fill="#FFFFFF" width="1.425" height="1.425"/>
	<path fill="#00BAFF" d="M62.44,15.716v1.125h-1.125v-1.125H62.44 M62.74,15.416H62.44h-1.125h-0.3v0.3v1.125v0.3h0.3h1.125h0.302
		v-0.3v-1.125L62.74,15.416L62.74,15.416z"/>
</g>
<g>
	<rect x="83.79" y="24.022" fill="#FFFFFF" width="1.425" height="1.425"/>
	<path fill="#00BAFF" d="M85.064,24.172v1.125h-1.125v-1.125H85.064 M85.364,23.873h-0.3h-1.125h-0.3v0.3v1.125v0.3h0.3h1.125h0.3
		v-0.3v-1.125V23.873L85.364,23.873z"/>
</g>
<g>
	<rect x="96.606" y="24.022" fill="#FFFFFF" width="1.427" height="1.425"/>
	<path fill="#00BAFF" d="M97.881,24.172v1.125h-1.125v-1.125H97.881 M98.181,23.873H97.88h-1.125h-0.3v0.3v1.125v0.3h0.3h1.125
		h0.301v-0.3v-1.125V23.873L98.181,23.873z"/>
</g>
<g>
	<rect x="83.79" y="25.147" fill="#FFFFFF" width="1.425" height="1.425"/>
	<path fill="#00BAFF" d="M85.064,25.297v1.125h-1.125v-1.125H85.064 M85.364,24.998h-0.3h-1.125h-0.3v0.3v1.125v0.3h0.3h1.125h0.3
		v-0.3v-1.125V24.998L85.364,24.998z"/>
</g>
<g>
	<rect x="96.606" y="25.147" fill="#FFFFFF" width="1.427" height="1.425"/>
	<path fill="#00BAFF" d="M97.881,25.297v1.125h-1.125v-1.125H97.881 M98.181,24.998H97.88h-1.125h-0.3v0.3v1.125v0.3h0.3h1.125
		h0.301v-0.3v-1.125V24.998L98.181,24.998z"/>
</g>
<g>
	<rect x="99.727" y="24.022" fill="#FFFFFF" width="1.425" height="1.425"/>
	<path fill="#00BAFF" d="M101.002,24.172v1.125h-1.125v-1.125H101.002 M101.302,23.873h-0.3h-1.125h-0.3v0.3v1.125v0.3h0.3h1.125
		h0.3v-0.3v-1.125V23.873L101.302,23.873z"/>
</g>
<g>
	<rect x="113.415" y="24.022" fill="#FFFFFF" width="1.425" height="1.425"/>
	<path fill="#00BAFF" d="M114.689,24.172v1.125h-1.125v-1.125H114.689 M114.989,23.873h-0.3h-1.125h-0.3v0.3v1.125v0.3h0.3h1.125
		h0.3v-0.3v-1.125V23.873L114.989,23.873z"/>
</g>
<g>
	<rect x="99.727" y="25.147" fill="#FFFFFF" width="1.425" height="1.425"/>
	<path fill="#00BAFF" d="M101.002,25.297v1.125h-1.125v-1.125H101.002 M101.302,24.998h-0.3h-1.125h-0.3v0.3v1.125v0.3h0.3h1.125
		h0.3v-0.3v-1.125V24.998L101.302,24.998z"/>
</g>
<g>
	<rect x="99.727" y="82.44" fill="#FFFFFF" width="1.425" height="1.425"/>
	<path fill="#00BAFF" d="M101.002,82.59v1.125h-1.125V82.59H101.002 M101.302,82.29h-0.3h-1.125h-0.3v0.3v1.125v0.3h0.3h1.125h0.3
		v-0.3V82.59V82.29L101.302,82.29z"/>
</g>
<g>
	<rect x="106.323" y="82.44" fill="#FFFFFF" width="1.425" height="1.425"/>
	<path fill="#00BAFF" d="M107.598,82.59v1.125h-1.125V82.59H107.598 M107.897,82.29h-0.3h-1.125h-0.301v0.3v1.125v0.3h0.301h1.125
		h0.3v-0.3V82.59V82.29L107.897,82.29z"/>
</g>
<g>
	<rect x="99.727" y="83.565" fill="#FFFFFF" width="1.425" height="1.425"/>
	<path fill="#00BAFF" d="M101.002,83.715v1.125h-1.125v-1.125H101.002 M101.302,83.415h-0.3h-1.125h-0.3v0.3v1.125v0.3h0.3h1.125
		h0.3v-0.3v-1.125V83.415L101.302,83.415z"/>
</g>
<g>
	<rect x="120.212" y="82.44" fill="#FFFFFF" width="1.426" height="1.425"/>
	<path fill="#00BAFF" d="M121.487,82.59v1.125h-1.125V82.59H121.487 M121.787,82.29h-0.302h-1.125h-0.3v0.3v1.125v0.3h0.3h1.125
		h0.302v-0.3V82.59V82.29L121.787,82.29z"/>
</g>
<g>
	<rect x="113.712" y="82.44" fill="#FFFFFF" width="1.426" height="1.425"/>
	<path fill="#00BAFF" d="M114.987,82.59v1.125h-1.125V82.59H114.987 M115.287,82.29h-0.302h-1.125h-0.3v0.3v1.125v0.3h0.3h1.125
		h0.302v-0.3V82.59V82.29L115.287,82.29z"/>
</g>
<g>
	<rect x="113.712" y="53.276" fill="#FFFFFF" width="1.426" height="1.425"/>
	<path fill="#00BAFF" d="M114.987,53.426v1.125h-1.125v-1.125H114.987 M115.287,53.126h-0.302h-1.125h-0.3v0.3v1.125v0.3h0.3h1.125
		h0.302v-0.3v-1.125V53.126L115.287,53.126z"/>
</g>
<g>
	<rect x="120.212" y="83.565" fill="#FFFFFF" width="1.426" height="1.425"/>
	<path fill="#00BAFF" d="M121.487,83.715v1.125h-1.125v-1.125H121.487 M121.787,83.415h-0.302h-1.125h-0.3v0.3v1.125v0.3h0.3h1.125
		h0.302v-0.3v-1.125V83.415L121.787,83.415z"/>
</g>
<g>
	<rect x="106.323" y="25.147" fill="#FFFFFF" width="1.425" height="1.425"/>
	<path fill="#00BAFF" d="M107.598,25.297v1.125h-1.125v-1.125H107.598 M107.897,24.998h-0.3h-1.125h-0.301v0.3v1.125v0.3h0.301
		h1.125h0.3v-0.3v-1.125V24.998L107.897,24.998z"/>
</g>
<g>
	<rect x="113.415" y="25.147" fill="#FFFFFF" width="1.425" height="1.425"/>
	<path fill="#00BAFF" d="M114.689,25.297v1.125h-1.125v-1.125H114.689 M114.989,24.998h-0.3h-1.125h-0.3v0.3v1.125v0.3h0.3h1.125
		h0.3v-0.3v-1.125V24.998L114.989,24.998z"/>
</g>
<g>
	<rect x="113.415" y="31.083" fill="#FFFFFF" width="1.425" height="1.425"/>
	<path fill="#00BAFF" d="M114.689,31.233v1.125h-1.125v-1.125H114.689 M114.989,30.934h-0.3h-1.125h-0.3v0.3v1.125v0.3h0.3h1.125
		h0.3v-0.3v-1.125V30.934L114.989,30.934z"/>
</g>
<g>
	<rect x="125.237" y="22.93" fill="#FFFFFF" width="1.427" height="1.425"/>
	<path fill="#00BAFF" d="M126.512,23.08v1.125h-1.125V23.08H126.512 M126.812,22.78h-0.3h-1.125h-0.301v0.3v1.125v0.3h0.301h1.125
		h0.3v-0.3V23.08V22.78L126.812,22.78z"/>
</g>
<g>
	<rect x="124.564" y="60.085" fill="#FFFFFF" width="1.427" height="1.425"/>
	<path fill="#00BAFF" d="M125.839,60.235v1.125h-1.125v-1.125H125.839 M126.139,59.936h-0.301h-1.125h-0.3v0.3v1.125v0.3h0.3h1.125
		h0.301v-0.3v-1.125V59.936L126.139,59.936z"/>
</g>
<g>
	<rect x="182.064" y="50.559" fill="#FFFFFF" width="1.427" height="1.425"/>
	<path fill="#00BAFF" d="M183.339,50.708v1.125h-1.125v-1.125H183.339 M183.639,50.409h-0.301h-1.125h-0.3v0.3v1.125v0.3h0.3h1.125
		h0.301v-0.3v-1.125V50.409L183.639,50.409z"/>
</g>
<g>
	<rect x="183.368" y="50.918" fill="#FFFFFF" width="1.425" height="1.425"/>
	<path fill="#00BAFF" d="M184.643,51.068v1.125h-1.125v-1.125H184.643 M184.942,50.768h-0.3h-1.125h-0.301v0.3v1.125v0.3h0.301
		h1.125h0.3v-0.3v-1.125V50.768L184.942,50.768z"/>
</g>
<g>
	<rect x="169.017" y="61.262" fill="#FFFFFF" width="1.425" height="1.425"/>
	<path fill="#00BAFF" d="M170.292,61.412v1.125h-1.125v-1.125H170.292 M170.591,61.112h-0.3h-1.125h-0.3v0.3v1.125v0.3h0.3h1.125
		h0.3v-0.3v-1.125V61.112L170.591,61.112z"/>
</g>
<g>
	<rect x="158.126" y="39.34" fill="#FFFFFF" width="1.425" height="1.425"/>
	<path fill="#00BAFF" d="M159.401,39.49v1.125h-1.125V39.49H159.401 M159.701,39.19H159.4h-1.125h-0.3v0.3v1.125v0.3h0.3h1.125
		h0.302v-0.3V39.49V39.19L159.701,39.19z"/>
</g>
<g>
	<rect x="149.598" y="43.247" fill="#FFFFFF" width="1.425" height="1.425"/>
	<path fill="#00BAFF" d="M150.873,43.397v1.125h-1.125v-1.125H150.873 M151.172,43.097h-0.3h-1.125h-0.302v0.3v1.125v0.3h0.302
		h1.125h0.3v-0.3v-1.125V43.097L151.172,43.097z"/>
</g>
<g>
	<rect x="158.126" y="37.965" fill="#FFFFFF" width="1.425" height="1.425"/>
	<path fill="#00BAFF" d="M159.401,38.115v1.125h-1.125v-1.125H159.401 M159.701,37.815H159.4h-1.125h-0.3v0.3v1.125v0.3h0.3h1.125
		h0.302v-0.3v-1.125V37.815L159.701,37.815z"/>
</g>
<g>
	<rect x="175.347" y="37.965" fill="#FFFFFF" width="1.425" height="1.425"/>
	<path fill="#00BAFF" d="M176.622,38.115v1.125h-1.125v-1.125H176.622 M176.921,37.815h-0.3h-1.125h-0.302v0.3v1.125v0.3h0.302
		h1.125h0.3v-0.3v-1.125V37.815L176.921,37.815z"/>
</g>
<g>
	<rect x="168.454" y="24.106" fill="#FFFFFF" width="1.425" height="1.425"/>
	<path fill="#00BAFF" d="M169.729,24.256v1.125h-1.125v-1.125H169.729 M170.029,23.957h-0.3h-1.125h-0.3v0.3v1.125v0.3h0.3h1.125
		h0.3v-0.3v-1.125V23.957L170.029,23.957z"/>
</g>
<g>
	<rect x="169.101" y="60.085" fill="#FFFFFF" width="1.425" height="1.425"/>
	<path fill="#00BAFF" d="M170.375,60.235v1.125h-1.125v-1.125H170.375 M170.675,59.936h-0.3h-1.125h-0.3v0.3v1.125v0.3h0.3h1.125
		h0.3v-0.3v-1.125V59.936L170.675,59.936z"/>
</g>
<g>
	<rect x="124.674" y="24.585" fill="#FFFFFF" width="1.426" height="1.425"/>
	<path fill="#00BAFF" d="M125.949,24.735v1.125h-1.125v-1.125H125.949 M126.249,24.435h-0.3h-1.125h-0.302v0.3v1.125v0.3h0.302
		h1.125h0.3v-0.3v-1.125V24.435L126.249,24.435z"/>
</g>
<g>
	<rect x="92.446" y="25.147" fill="#FFFFFF" width="1.427" height="1.425"/>
	<path fill="#00BAFF" d="M93.721,25.297v1.125h-1.125v-1.125H93.721 M94.021,24.998h-0.3h-1.125h-0.301v0.3v1.125v0.3h0.301h1.125
		h0.3v-0.3v-1.125V24.998L94.021,24.998z"/>
</g>
<g>
	<rect x="69.211" y="78.788" fill="#FFFFFF" width="1.426" height="1.425"/>
	<path fill="#00BAFF" d="M70.486,78.938v1.125h-1.125v-1.125H70.486 M70.786,78.638h-0.302H69.36h-0.3v0.3v1.125v0.3h0.3h1.125
		h0.302v-0.3v-1.125V78.638L70.786,78.638z"/>
</g>
<g>
	<rect x="60.603" y="84.127" fill="#FFFFFF" width="1.425" height="1.425"/>
	<path fill="#00BAFF" d="M61.877,84.277v1.125h-1.125v-1.125H61.877 M62.177,83.978h-0.3h-1.125h-0.3v0.3v1.125v0.3h0.3h1.125h0.3
		v-0.3v-1.125V83.978L62.177,83.978z"/>
</g>
<g>
	<rect x="53.565" y="78.226" fill="#FFFFFF" width="1.427" height="1.425"/>
	<path fill="#00BAFF" d="M54.84,78.375V79.5h-1.125v-1.125H54.84 M55.14,78.076h-0.3h-1.125h-0.3v0.3V79.5v0.3h0.3h1.125h0.301v-0.3
		v-1.125L55.14,78.076L55.14,78.076z"/>
</g>
<g>
	<rect x="57.601" y="73.452" fill="#FFFFFF" width="1.425" height="1.425"/>
	<path fill="#00BAFF" d="M58.875,73.602v1.125H57.75v-1.125H58.875 M59.175,73.302h-0.3H57.75h-0.3v0.3v1.125v0.3h0.3h1.125h0.3
		v-0.3v-1.125V73.302L59.175,73.302z"/>
</g>
<g>
	<rect x="61.478" y="77.101" fill="#FFFFFF" width="1.425" height="1.425"/>
	<path fill="#00BAFF" d="M62.752,77.25v1.125h-1.125V77.25H62.752 M63.052,76.951h-0.3h-1.125h-0.3v0.3v1.125v0.3h0.3h1.125h0.3
		v-0.3V77.25V76.951L63.052,76.951z"/>
</g>
<g>
	<rect x="60.123" y="80.933" fill="#FFFFFF" width="1.425" height="1.425"/>
	<path fill="#00BAFF" d="M61.397,81.083v1.125h-1.125v-1.125H61.397 M61.697,80.783h-0.3h-1.125h-0.3v0.3v1.125v0.3h0.3h1.125h0.3
		v-0.3v-1.125V80.783L61.697,80.783z"/>
</g>
<g>
	<rect x="90.665" y="25.147" fill="#FFFFFF" width="1.425" height="1.425"/>
	<path fill="#00BAFF" d="M91.939,25.297v1.125h-1.125v-1.125H91.939 M92.239,24.998h-0.3h-1.125h-0.3v0.3v1.125v0.3h0.3h1.125h0.3
		v-0.3v-1.125V24.998L92.239,24.998z"/>
</g>
<g>
	<rect x="75.59" y="25.199" fill="#FFFFFF" width="1.426" height="1.425"/>
	<path fill="#00BAFF" d="M76.865,25.349v1.125H75.74v-1.125H76.865 M77.165,25.049h-0.3H75.74H75.44v0.3v1.125v0.3h0.302h1.125h0.3
		v-0.3v-1.125L77.165,25.049L77.165,25.049z"/>
</g>
<g>
	<rect x="68.529" y="25.199" fill="#FFFFFF" width="1.427" height="1.425"/>
	<path fill="#00BAFF" d="M69.804,25.349v1.125h-1.125v-1.125H69.804 M70.104,25.049h-0.3h-1.125h-0.301v0.3v1.125v0.3h0.301h1.125
		h0.3v-0.3v-1.125V25.049L70.104,25.049z"/>
</g>
<g>
	<rect x="79.373" y="51.595" fill="#FFFFFF" width="1.425" height="1.425"/>
	<path fill="#00BAFF" d="M80.648,51.745v1.125h-1.125v-1.125H80.648 M80.948,51.445h-0.302h-1.125h-0.3v0.3v1.125v0.3h0.3h1.125
		h0.302v-0.3v-1.125V51.445L80.948,51.445z"/>
</g>
<line fill="none" stroke="#00BAFF" stroke-width="0.3" x1="78.424" y1="54.99" x2="75.798" y2="61.923"/>
<rect x="184.073" y="27.748" fill="#00BAFF" width="1.236" height="1.238"/>
<line fill="none" stroke="#00BAFF" stroke-width="0.3" x1="184.692" y1="28.615" x2="184.692" y2="40.615"/>
<rect x="171.869" y="18.953" transform="matrix(-0.4796 -0.8775 0.8775 -0.4796 238.0338 180.3185)" fill="#00BAFF" width="1.238" height="1.24"/>
<line fill="none" stroke="#00BAFF" stroke-width="0.3" x1="172.255" y1="19.695" x2="161.726" y2="25.451"/>
<rect x="150.612" y="30.571" transform="matrix(0.4796 0.8775 -0.8775 0.4796 106.076 -116.4728)" fill="#00BAFF" width="1.238" height="1.241"/>
<line fill="none" stroke="#00BAFF" stroke-width="0.3" x1="151.453" y1="31.068" x2="161.982" y2="25.311"/>
<rect x="136.791" y="23.491" transform="matrix(-0.9181 0.3964 -0.3964 -0.9181 273.1223 -8.2237)" fill="#00BAFF" width="1.239" height="1.238"/>
<line fill="none" stroke="#00BAFF" stroke-width="0.3" x1="137.504" y1="24.336" x2="142.258" y2="35.354"/>
<rect x="146.48" y="45.967" transform="matrix(0.9184 -0.3957 0.3957 0.9184 -6.4274 62.014)" fill="#00BAFF" width="1.239" height="1.238"/>
<line fill="none" stroke="#00BAFF" stroke-width="0.3" x1="147.012" y1="46.373" x2="142.258" y2="35.354"/>
<rect x="69.733" y="50.286" transform="matrix(-0.8999 0.4361 -0.4361 -0.8999 155.8615 66.0299)" fill="#00BAFF" width="1.238" height="1.238"/>
<line fill="none" stroke="#00BAFF" stroke-width="0.3" x1="70.46" y1="51.125" x2="75.694" y2="61.923"/>
<g>
	<rect x="75.085" y="61.21" fill="#FFFFFF" width="1.425" height="1.425"/>
	<path fill="#00BAFF" d="M76.36,61.36v1.125h-1.125V61.36H76.36 M76.66,61.061H76.36h-1.125h-0.3v0.3v1.125v0.3h0.3h1.125h0.302
		v-0.3V61.36L76.66,61.061L76.66,61.061z"/>
</g>
<g>
	<rect x="141.545" y="34.642" fill="#FFFFFF" width="1.426" height="1.425"/>
	<path fill="#00BAFF" d="M142.82,34.792v1.125h-1.125v-1.125H142.82 M143.12,34.492h-0.302h-1.125h-0.3v0.3v1.125v0.3h0.3h1.125
		h0.302v-0.3v-1.125V34.492L143.12,34.492z"/>
</g>
<g>
	<rect x="183.979" y="39.34" fill="#FFFFFF" width="1.425" height="1.425"/>
	<path fill="#00BAFF" d="M185.254,39.49v1.125h-1.125V39.49H185.254 M185.554,39.19h-0.301h-1.125h-0.3v0.3v1.125v0.3h0.3h1.125
		h0.301v-0.3V39.49V39.19L185.554,39.19z"/>
</g>
<g>
	<rect x="161.142" y="24.669" fill="#FFFFFF" width="1.425" height="1.425"/>
	<path fill="#00BAFF" d="M162.417,24.819v1.125h-1.125v-1.125H162.417 M162.716,24.519h-0.3h-1.125h-0.3v0.3v1.125v0.3h0.3h1.125
		h0.3v-0.3v-1.125V24.519L162.716,24.519z"/>
</g>
<line fill="none" stroke="#00BAFF" stroke-width="0.3" x1="68.52" y1="152.14" x2="68.52" y2="90.14"/>
<line fill="none" stroke="#00BAFF" stroke-width="0.3" x1="76.321" y1="90.14" x2="76.321" y2="152.14"/>
<g>
	<g>
		<defs>
			<rect id="SVGID_1_" x="108.983" y="90.14" width="6.875" height="62"/>
		</defs>
		<clipPath id="SVGID_2_">
			<use xlink:href="#SVGID_1_"  overflow="visible"/>
		</clipPath>
		<g opacity="0.5" clip-path="url(#SVGID_2_)">
			<line fill="none" stroke="#00BAFF" stroke-width="0.2" x1="104.918" y1="162.499" x2="119.923" y2="177.502"/>
			<line fill="none" stroke="#00BAFF" stroke-width="0.2" x1="104.918" y1="161.049" x2="119.923" y2="176.054"/>
			<line fill="none" stroke="#00BAFF" stroke-width="0.2" x1="104.918" y1="159.601" x2="119.924" y2="174.606"/>
			<line fill="none" stroke="#00BAFF" stroke-width="0.2" x1="104.918" y1="158.153" x2="119.923" y2="173.159"/>
			<line fill="none" stroke="#00BAFF" stroke-width="0.2" x1="104.918" y1="156.706" x2="119.923" y2="171.709"/>
			<line fill="none" stroke="#00BAFF" stroke-width="0.2" x1="104.919" y1="155.256" x2="119.924" y2="170.262"/>
			<line fill="none" stroke="#00BAFF" stroke-width="0.2" x1="104.918" y1="153.809" x2="119.923" y2="168.814"/>
			<line fill="none" stroke="#00BAFF" stroke-width="0.2" x1="104.918" y1="152.361" x2="119.923" y2="167.366"/>
			<line fill="none" stroke="#00BAFF" stroke-width="0.2" x1="104.918" y1="150.913" x2="119.924" y2="165.918"/>
			<line fill="none" stroke="#00BAFF" stroke-width="0.2" x1="104.918" y1="149.463" x2="119.923" y2="164.469"/>
			<line fill="none" stroke="#00BAFF" stroke-width="0.2" x1="104.918" y1="148.017" x2="119.924" y2="163.022"/>
			<line fill="none" stroke="#00BAFF" stroke-width="0.2" x1="104.919" y1="146.569" x2="119.923" y2="161.575"/>
			<line fill="none" stroke="#00BAFF" stroke-width="0.2" x1="104.918" y1="145.122" x2="119.923" y2="160.125"/>
			<line fill="none" stroke="#00BAFF" stroke-width="0.2" x1="104.918" y1="143.672" x2="119.923" y2="158.676"/>
			<line fill="none" stroke="#00BAFF" stroke-width="0.2" x1="104.918" y1="142.224" x2="119.924" y2="157.229"/>
			<line fill="none" stroke="#00BAFF" stroke-width="0.2" x1="104.918" y1="140.776" x2="119.923" y2="155.782"/>
			<line fill="none" stroke="#00BAFF" stroke-width="0.2" x1="104.918" y1="139.329" x2="119.924" y2="154.333"/>
			<line fill="none" stroke="#00BAFF" stroke-width="0.2" x1="104.918" y1="137.879" x2="119.923" y2="152.885"/>
			<line fill="none" stroke="#00BAFF" stroke-width="0.2" x1="104.918" y1="136.432" x2="119.923" y2="151.437"/>
			<line fill="none" stroke="#00BAFF" stroke-width="0.2" x1="104.918" y1="134.984" x2="119.923" y2="149.989"/>
			<line fill="none" stroke="#00BAFF" stroke-width="0.2" x1="104.919" y1="133.536" x2="119.924" y2="148.542"/>
			<line fill="none" stroke="#00BAFF" stroke-width="0.2" x1="104.918" y1="132.086" x2="119.923" y2="147.092"/>
			<line fill="none" stroke="#00BAFF" stroke-width="0.2" x1="104.918" y1="130.639" x2="119.923" y2="145.644"/>
			<line fill="none" stroke="#00BAFF" stroke-width="0.2" x1="104.918" y1="129.192" x2="119.923" y2="144.198"/>
			<line fill="none" stroke="#00BAFF" stroke-width="0.2" x1="104.919" y1="127.745" x2="119.924" y2="142.749"/>
			<line fill="none" stroke="#00BAFF" stroke-width="0.2" x1="104.918" y1="126.295" x2="119.923" y2="141.299"/>
			<line fill="none" stroke="#00BAFF" stroke-width="0.2" x1="104.918" y1="124.847" x2="119.923" y2="139.852"/>
			<line fill="none" stroke="#00BAFF" stroke-width="0.2" x1="104.918" y1="123.399" x2="119.923" y2="138.405"/>
			<line fill="none" stroke="#00BAFF" stroke-width="0.2" x1="104.919" y1="121.952" x2="119.924" y2="136.958"/>
			<line fill="none" stroke="#00BAFF" stroke-width="0.2" x1="104.918" y1="120.502" x2="119.923" y2="135.508"/>
			<line fill="none" stroke="#00BAFF" stroke-width="0.2" x1="104.918" y1="119.055" x2="119.923" y2="134.06"/>
			<line fill="none" stroke="#00BAFF" stroke-width="0.2" x1="104.919" y1="117.607" x2="119.924" y2="132.612"/>
			<line fill="none" stroke="#00BAFF" stroke-width="0.2" x1="104.918" y1="116.159" x2="119.923" y2="131.165"/>
			<line fill="none" stroke="#00BAFF" stroke-width="0.2" x1="104.919" y1="114.709" x2="119.923" y2="129.715"/>
			<line fill="none" stroke="#00BAFF" stroke-width="0.2" x1="104.918" y1="113.262" x2="119.923" y2="128.268"/>
			<line fill="none" stroke="#00BAFF" stroke-width="0.2" x1="104.919" y1="111.815" x2="119.924" y2="126.819"/>
			<line fill="none" stroke="#00BAFF" stroke-width="0.2" x1="104.918" y1="110.368" x2="119.923" y2="125.372"/>
			<line fill="none" stroke="#00BAFF" stroke-width="0.2" x1="104.919" y1="108.918" x2="119.923" y2="123.922"/>
			<line fill="none" stroke="#00BAFF" stroke-width="0.2" x1="104.918" y1="107.47" x2="119.923" y2="122.475"/>
			<line fill="none" stroke="#00BAFF" stroke-width="0.2" x1="104.918" y1="106.022" x2="119.924" y2="121.028"/>
			<line fill="none" stroke="#00BAFF" stroke-width="0.2" x1="104.918" y1="104.575" x2="119.923" y2="119.579"/>
			<line fill="none" stroke="#00BAFF" stroke-width="0.2" x1="104.918" y1="103.125" x2="119.923" y2="118.131"/>
			<line fill="none" stroke="#00BAFF" stroke-width="0.2" x1="104.918" y1="101.678" x2="119.923" y2="116.683"/>
			<line fill="none" stroke="#00BAFF" stroke-width="0.2" x1="104.918" y1="100.23" x2="119.924" y2="115.235"/>
			<line fill="none" stroke="#00BAFF" stroke-width="0.2" x1="104.918" y1="98.782" x2="119.923" y2="113.788"/>
			<line fill="none" stroke="#00BAFF" stroke-width="0.2" x1="104.918" y1="97.333" x2="119.923" y2="112.338"/>
			<line fill="none" stroke="#00BAFF" stroke-width="0.2" x1="104.918" y1="95.885" x2="119.923" y2="110.891"/>
			<line fill="none" stroke="#00BAFF" stroke-width="0.2" x1="104.918" y1="94.438" x2="119.924" y2="109.442"/>
			<line fill="none" stroke="#00BAFF" stroke-width="0.2" x1="104.918" y1="92.991" x2="119.923" y2="107.995"/>
			<line fill="none" stroke="#00BAFF" stroke-width="0.2" x1="104.918" y1="91.542" x2="119.923" y2="106.545"/>
			<line fill="none" stroke="#00BAFF" stroke-width="0.2" x1="104.918" y1="90.092" x2="119.923" y2="105.098"/>
			<line fill="none" stroke="#00BAFF" stroke-width="0.2" x1="104.918" y1="88.645" x2="119.924" y2="103.651"/>
			<line fill="none" stroke="#00BAFF" stroke-width="0.2" x1="104.918" y1="87.198" x2="119.923" y2="102.202"/>
			<line fill="none" stroke="#00BAFF" stroke-width="0.2" x1="104.918" y1="85.75" x2="119.923" y2="100.754"/>
			<line fill="none" stroke="#00BAFF" stroke-width="0.2" x1="104.918" y1="84.301" x2="119.923" y2="99.306"/>
			<line fill="none" stroke="#00BAFF" stroke-width="0.2" x1="104.918" y1="82.853" x2="119.924" y2="97.858"/>
			<line fill="none" stroke="#00BAFF" stroke-width="0.2" x1="104.918" y1="81.405" x2="119.923" y2="96.411"/>
			<line fill="none" stroke="#00BAFF" stroke-width="0.2" x1="104.918" y1="79.957" x2="119.923" y2="94.961"/>
			<line fill="none" stroke="#00BAFF" stroke-width="0.2" x1="104.918" y1="78.509" x2="119.923" y2="93.514"/>
			<line fill="none" stroke="#00BAFF" stroke-width="0.2" x1="104.918" y1="77.061" x2="119.924" y2="92.065"/>
			<line fill="none" stroke="#00BAFF" stroke-width="0.2" x1="104.918" y1="75.612" x2="119.923" y2="90.618"/>
			<line fill="none" stroke="#00BAFF" stroke-width="0.2" x1="104.918" y1="74.165" x2="119.923" y2="89.168"/>
		</g>
	</g>
</g>
<line fill="none" stroke="#00BAFF" stroke-width="0.3" x1="108.983" y1="90.14" x2="108.983" y2="152.14"/>
<line fill="none" stroke="#00BAFF" stroke-width="0.3" x1="115.859" y1="90.14" x2="115.859" y2="152.14"/>
<g>
	<g>
		<defs>
			<rect id="SVGID_3_" x="141.493" y="90.14" width="3.474" height="62"/>
		</defs>
		<clipPath id="SVGID_4_">
			<use xlink:href="#SVGID_3_"  overflow="visible"/>
		</clipPath>
		<g opacity="0.5" clip-path="url(#SVGID_4_)">
			<line fill="none" stroke="#00BAFF" stroke-width="0.2" x1="135.727" y1="156.902" x2="150.732" y2="171.907"/>
			<line fill="none" stroke="#00BAFF" stroke-width="0.2" x1="135.727" y1="155.454" x2="150.731" y2="170.458"/>
			<line fill="none" stroke="#00BAFF" stroke-width="0.2" x1="135.727" y1="154.004" x2="150.732" y2="169.01"/>
			<line fill="none" stroke="#00BAFF" stroke-width="0.2" x1="135.727" y1="152.557" x2="150.731" y2="167.562"/>
			<line fill="none" stroke="#00BAFF" stroke-width="0.2" x1="135.727" y1="151.11" x2="150.732" y2="166.116"/>
			<line fill="none" stroke="#00BAFF" stroke-width="0.2" x1="135.727" y1="149.663" x2="150.732" y2="164.667"/>
			<line fill="none" stroke="#00BAFF" stroke-width="0.2" x1="135.726" y1="148.213" x2="150.732" y2="163.217"/>
			<line fill="none" stroke="#00BAFF" stroke-width="0.2" x1="135.727" y1="146.765" x2="150.732" y2="161.77"/>
			<line fill="none" stroke="#00BAFF" stroke-width="0.2" x1="135.727" y1="145.318" x2="150.732" y2="160.323"/>
			<line fill="none" stroke="#00BAFF" stroke-width="0.2" x1="135.727" y1="143.87" x2="150.732" y2="158.874"/>
			<line fill="none" stroke="#00BAFF" stroke-width="0.2" x1="135.727" y1="142.42" x2="150.732" y2="157.426"/>
			<line fill="none" stroke="#00BAFF" stroke-width="0.2" x1="135.727" y1="140.973" x2="150.732" y2="155.978"/>
			<line fill="none" stroke="#00BAFF" stroke-width="0.2" x1="135.726" y1="139.525" x2="150.731" y2="154.53"/>
			<line fill="none" stroke="#00BAFF" stroke-width="0.2" x1="135.727" y1="138.077" x2="150.732" y2="153.083"/>
			<line fill="none" stroke="#00BAFF" stroke-width="0.2" x1="135.727" y1="136.627" x2="150.732" y2="151.633"/>
			<line fill="none" stroke="#00BAFF" stroke-width="0.2" x1="135.727" y1="135.18" x2="150.732" y2="150.185"/>
			<line fill="none" stroke="#00BAFF" stroke-width="0.2" x1="135.727" y1="133.733" x2="150.732" y2="148.738"/>
			<line fill="none" stroke="#00BAFF" stroke-width="0.2" x1="135.726" y1="132.284" x2="150.731" y2="147.29"/>
			<line fill="none" stroke="#00BAFF" stroke-width="0.2" x1="135.727" y1="130.836" x2="150.732" y2="145.84"/>
			<line fill="none" stroke="#00BAFF" stroke-width="0.2" x1="135.727" y1="129.388" x2="150.732" y2="144.393"/>
			<line fill="none" stroke="#00BAFF" stroke-width="0.2" x1="135.727" y1="127.941" x2="150.732" y2="142.945"/>
			<line fill="none" stroke="#00BAFF" stroke-width="0.2" x1="135.727" y1="126.493" x2="150.732" y2="141.497"/>
			<line fill="none" stroke="#00BAFF" stroke-width="0.2" x1="135.726" y1="125.043" x2="150.731" y2="140.047"/>
			<line fill="none" stroke="#00BAFF" stroke-width="0.2" x1="135.727" y1="123.596" x2="150.732" y2="138.601"/>
			<line fill="none" stroke="#00BAFF" stroke-width="0.2" x1="135.727" y1="122.148" x2="150.732" y2="137.153"/>
			<line fill="none" stroke="#00BAFF" stroke-width="0.2" x1="135.727" y1="120.7" x2="150.732" y2="135.706"/>
			<line fill="none" stroke="#00BAFF" stroke-width="0.2" x1="135.726" y1="119.25" x2="150.731" y2="134.256"/>
			<line fill="none" stroke="#00BAFF" stroke-width="0.2" x1="135.726" y1="117.803" x2="150.732" y2="132.808"/>
			<line fill="none" stroke="#00BAFF" stroke-width="0.2" x1="135.727" y1="116.356" x2="150.732" y2="131.361"/>
			<line fill="none" stroke="#00BAFF" stroke-width="0.2" x1="135.727" y1="114.907" x2="150.731" y2="129.913"/>
			<line fill="none" stroke="#00BAFF" stroke-width="0.2" x1="135.726" y1="113.459" x2="150.731" y2="128.463"/>
			<line fill="none" stroke="#00BAFF" stroke-width="0.2" x1="135.727" y1="112.01" x2="150.732" y2="127.016"/>
			<line fill="none" stroke="#00BAFF" stroke-width="0.2" x1="135.727" y1="110.563" x2="150.731" y2="125.569"/>
			<line fill="none" stroke="#00BAFF" stroke-width="0.2" x1="135.726" y1="109.116" x2="150.732" y2="124.12"/>
			<line fill="none" stroke="#00BAFF" stroke-width="0.2" x1="135.727" y1="107.667" x2="150.731" y2="122.672"/>
			<line fill="none" stroke="#00BAFF" stroke-width="0.2" x1="135.727" y1="106.219" x2="150.732" y2="121.224"/>
			<line fill="none" stroke="#00BAFF" stroke-width="0.2" x1="135.727" y1="104.771" x2="150.732" y2="119.776"/>
			<line fill="none" stroke="#00BAFF" stroke-width="0.2" x1="135.727" y1="103.323" x2="150.732" y2="118.329"/>
			<line fill="none" stroke="#00BAFF" stroke-width="0.2" x1="135.726" y1="101.875" x2="150.732" y2="116.879"/>
			<line fill="none" stroke="#00BAFF" stroke-width="0.2" x1="135.726" y1="100.426" x2="150.731" y2="115.431"/>
			<line fill="none" stroke="#00BAFF" stroke-width="0.2" x1="135.727" y1="98.979" x2="150.732" y2="113.983"/>
			<line fill="none" stroke="#00BAFF" stroke-width="0.2" x1="135.727" y1="97.53" x2="150.731" y2="112.536"/>
			<line fill="none" stroke="#00BAFF" stroke-width="0.2" x1="135.727" y1="96.083" x2="150.732" y2="111.086"/>
			<line fill="none" stroke="#00BAFF" stroke-width="0.2" x1="135.726" y1="94.633" x2="150.732" y2="109.639"/>
			<line fill="none" stroke="#00BAFF" stroke-width="0.2" x1="135.726" y1="93.186" x2="150.732" y2="108.191"/>
			<line fill="none" stroke="#00BAFF" stroke-width="0.2" x1="135.727" y1="91.739" x2="150.732" y2="106.743"/>
			<line fill="none" stroke="#00BAFF" stroke-width="0.2" x1="135.727" y1="90.29" x2="150.732" y2="105.295"/>
			<line fill="none" stroke="#00BAFF" stroke-width="0.2" x1="135.727" y1="88.842" x2="150.732" y2="103.847"/>
			<line fill="none" stroke="#00BAFF" stroke-width="0.2" x1="135.727" y1="87.394" x2="150.732" y2="102.399"/>
			<line fill="none" stroke="#00BAFF" stroke-width="0.2" x1="135.727" y1="85.946" x2="150.732" y2="100.952"/>
			<line fill="none" stroke="#00BAFF" stroke-width="0.2" x1="135.727" y1="84.498" x2="150.732" y2="99.502"/>
			<line fill="none" stroke="#00BAFF" stroke-width="0.2" x1="135.727" y1="83.049" x2="150.732" y2="98.054"/>
			<line fill="none" stroke="#00BAFF" stroke-width="0.2" x1="135.727" y1="81.602" x2="150.732" y2="96.607"/>
			<line fill="none" stroke="#00BAFF" stroke-width="0.2" x1="135.727" y1="80.153" x2="150.731" y2="95.159"/>
			<line fill="none" stroke="#00BAFF" stroke-width="0.2" x1="135.727" y1="78.706" x2="150.732" y2="93.709"/>
			<line fill="none" stroke="#00BAFF" stroke-width="0.2" x1="135.727" y1="77.257" x2="150.732" y2="92.262"/>
			<line fill="none" stroke="#00BAFF" stroke-width="0.2" x1="135.727" y1="75.809" x2="150.732" y2="90.814"/>
			<line fill="none" stroke="#00BAFF" stroke-width="0.2" x1="135.727" y1="74.361" x2="150.732" y2="89.368"/>
			<line fill="none" stroke="#00BAFF" stroke-width="0.2" x1="135.727" y1="72.913" x2="150.732" y2="87.918"/>
			<line fill="none" stroke="#00BAFF" stroke-width="0.2" x1="135.727" y1="71.465" x2="150.732" y2="86.469"/>
			<line fill="none" stroke="#00BAFF" stroke-width="0.2" x1="135.727" y1="70.017" x2="150.732" y2="85.022"/>
			<line fill="none" stroke="#00BAFF" stroke-width="0.2" x1="135.727" y1="68.569" x2="150.732" y2="83.574"/>
		</g>
	</g>
</g>
<line fill="none" stroke="#00BAFF" stroke-width="0.3" x1="141.493" y1="90.14" x2="141.493" y2="152.14"/>
<line fill="none" stroke="#00BAFF" stroke-width="0.3" x1="144.967" y1="90.14" x2="144.967" y2="152.14"/>
<g>
	<g>
		<defs>
			<rect id="SVGID_5_" x="164.133" y="90.14" width="4.807" height="62"/>
		</defs>
		<clipPath id="SVGID_6_">
			<use xlink:href="#SVGID_5_"  overflow="visible"/>
		</clipPath>
		<g opacity="0.5" clip-path="url(#SVGID_6_)">
			<line fill="none" stroke="#00BAFF" stroke-width="0.2" x1="159.033" y1="161.758" x2="174.038" y2="176.764"/>
			<line fill="none" stroke="#00BAFF" stroke-width="0.2" x1="159.033" y1="160.311" x2="174.038" y2="175.316"/>
			<line fill="none" stroke="#00BAFF" stroke-width="0.2" x1="159.033" y1="158.864" x2="174.038" y2="173.868"/>
			<line fill="none" stroke="#00BAFF" stroke-width="0.2" x1="159.033" y1="157.415" x2="174.038" y2="172.42"/>
			<line fill="none" stroke="#00BAFF" stroke-width="0.2" x1="159.033" y1="155.967" x2="174.038" y2="170.972"/>
			<line fill="none" stroke="#00BAFF" stroke-width="0.2" x1="159.033" y1="154.519" x2="174.038" y2="169.524"/>
			<line fill="none" stroke="#00BAFF" stroke-width="0.2" x1="159.033" y1="153.071" x2="174.038" y2="168.077"/>
			<line fill="none" stroke="#00BAFF" stroke-width="0.2" x1="159.033" y1="151.624" x2="174.038" y2="166.627"/>
			<line fill="none" stroke="#00BAFF" stroke-width="0.2" x1="159.033" y1="150.174" x2="174.038" y2="165.179"/>
			<line fill="none" stroke="#00BAFF" stroke-width="0.2" x1="159.033" y1="148.727" x2="174.038" y2="163.731"/>
			<line fill="none" stroke="#00BAFF" stroke-width="0.2" x1="159.033" y1="147.279" x2="174.038" y2="162.284"/>
			<line fill="none" stroke="#00BAFF" stroke-width="0.2" x1="159.033" y1="145.831" x2="174.038" y2="160.834"/>
			<line fill="none" stroke="#00BAFF" stroke-width="0.2" x1="159.033" y1="144.381" x2="174.038" y2="159.387"/>
			<line fill="none" stroke="#00BAFF" stroke-width="0.2" x1="159.033" y1="142.934" x2="174.038" y2="157.939"/>
			<line fill="none" stroke="#00BAFF" stroke-width="0.2" x1="159.033" y1="141.486" x2="174.038" y2="156.491"/>
			<line fill="none" stroke="#00BAFF" stroke-width="0.2" x1="159.033" y1="140.04" x2="174.038" y2="155.043"/>
			<line fill="none" stroke="#00BAFF" stroke-width="0.2" x1="159.033" y1="138.59" x2="174.038" y2="153.595"/>
			<line fill="none" stroke="#00BAFF" stroke-width="0.2" x1="159.033" y1="137.142" x2="174.038" y2="152.147"/>
			<line fill="none" stroke="#00BAFF" stroke-width="0.2" x1="159.033" y1="135.694" x2="174.038" y2="150.7"/>
			<line fill="none" stroke="#00BAFF" stroke-width="0.2" x1="159.033" y1="134.247" x2="174.038" y2="149.25"/>
			<line fill="none" stroke="#00BAFF" stroke-width="0.2" x1="159.033" y1="132.797" x2="174.038" y2="147.803"/>
			<line fill="none" stroke="#00BAFF" stroke-width="0.2" x1="159.033" y1="131.349" x2="174.038" y2="146.354"/>
			<line fill="none" stroke="#00BAFF" stroke-width="0.2" x1="159.033" y1="129.901" x2="174.038" y2="144.907"/>
			<line fill="none" stroke="#00BAFF" stroke-width="0.2" x1="159.033" y1="128.454" x2="174.038" y2="143.458"/>
			<line fill="none" stroke="#00BAFF" stroke-width="0.2" x1="159.033" y1="127.004" x2="174.038" y2="142.01"/>
			<line fill="none" stroke="#00BAFF" stroke-width="0.2" x1="159.033" y1="125.557" x2="174.038" y2="140.562"/>
			<line fill="none" stroke="#00BAFF" stroke-width="0.2" x1="159.033" y1="124.109" x2="174.038" y2="139.114"/>
			<line fill="none" stroke="#00BAFF" stroke-width="0.2" x1="159.033" y1="122.661" x2="174.038" y2="137.667"/>
			<line fill="none" stroke="#00BAFF" stroke-width="0.2" x1="159.033" y1="121.213" x2="174.038" y2="136.217"/>
			<line fill="none" stroke="#00BAFF" stroke-width="0.2" x1="159.033" y1="119.765" x2="174.038" y2="134.77"/>
			<line fill="none" stroke="#00BAFF" stroke-width="0.2" x1="159.033" y1="118.317" x2="174.038" y2="133.321"/>
			<line fill="none" stroke="#00BAFF" stroke-width="0.2" x1="159.033" y1="116.87" x2="174.038" y2="131.874"/>
			<line fill="none" stroke="#00BAFF" stroke-width="0.2" x1="159.033" y1="115.42" x2="174.038" y2="130.424"/>
			<line fill="none" stroke="#00BAFF" stroke-width="0.2" x1="159.033" y1="113.973" x2="174.038" y2="128.977"/>
			<line fill="none" stroke="#00BAFF" stroke-width="0.2" x1="159.033" y1="112.525" x2="174.038" y2="127.53"/>
			<line fill="none" stroke="#00BAFF" stroke-width="0.2" x1="159.033" y1="111.077" x2="174.038" y2="126.083"/>
			<line fill="none" stroke="#00BAFF" stroke-width="0.2" x1="159.033" y1="109.627" x2="174.038" y2="124.633"/>
			<line fill="none" stroke="#00BAFF" stroke-width="0.2" x1="159.033" y1="108.18" x2="174.038" y2="123.185"/>
			<line fill="none" stroke="#00BAFF" stroke-width="0.2" x1="159.033" y1="106.733" x2="174.038" y2="121.737"/>
			<line fill="none" stroke="#00BAFF" stroke-width="0.2" x1="159.033" y1="105.284" x2="174.038" y2="120.29"/>
			<line fill="none" stroke="#00BAFF" stroke-width="0.2" x1="159.033" y1="103.836" x2="174.038" y2="118.84"/>
			<line fill="none" stroke="#00BAFF" stroke-width="0.2" x1="159.033" y1="102.388" x2="174.038" y2="117.393"/>
			<line fill="none" stroke="#00BAFF" stroke-width="0.2" x1="159.033" y1="100.94" x2="174.038" y2="115.945"/>
			<line fill="none" stroke="#00BAFF" stroke-width="0.2" x1="159.033" y1="99.493" x2="174.038" y2="114.497"/>
			<line fill="none" stroke="#00BAFF" stroke-width="0.2" x1="159.033" y1="98.043" x2="174.038" y2="113.047"/>
			<line fill="none" stroke="#00BAFF" stroke-width="0.2" x1="159.033" y1="96.596" x2="174.038" y2="111.6"/>
			<line fill="none" stroke="#00BAFF" stroke-width="0.2" x1="159.033" y1="95.148" x2="174.038" y2="110.152"/>
			<line fill="none" stroke="#00BAFF" stroke-width="0.2" x1="159.033" y1="93.7" x2="174.038" y2="108.706"/>
			<line fill="none" stroke="#00BAFF" stroke-width="0.2" x1="159.033" y1="92.25" x2="174.038" y2="107.256"/>
			<line fill="none" stroke="#00BAFF" stroke-width="0.2" x1="159.033" y1="90.803" x2="174.038" y2="105.808"/>
			<line fill="none" stroke="#00BAFF" stroke-width="0.2" x1="159.033" y1="89.355" x2="174.038" y2="104.36"/>
			<line fill="none" stroke="#00BAFF" stroke-width="0.2" x1="159.033" y1="87.907" x2="174.038" y2="102.913"/>
			<line fill="none" stroke="#00BAFF" stroke-width="0.2" x1="159.033" y1="86.459" x2="174.038" y2="101.463"/>
			<line fill="none" stroke="#00BAFF" stroke-width="0.2" x1="159.033" y1="85.011" x2="174.038" y2="100.016"/>
			<line fill="none" stroke="#00BAFF" stroke-width="0.2" x1="159.033" y1="83.563" x2="174.038" y2="98.568"/>
			<line fill="none" stroke="#00BAFF" stroke-width="0.2" x1="159.033" y1="82.115" x2="174.038" y2="97.12"/>
			<line fill="none" stroke="#00BAFF" stroke-width="0.2" x1="159.033" y1="80.667" x2="174.038" y2="95.67"/>
			<line fill="none" stroke="#00BAFF" stroke-width="0.2" x1="159.033" y1="79.219" x2="174.038" y2="94.223"/>
			<line fill="none" stroke="#00BAFF" stroke-width="0.2" x1="159.033" y1="77.771" x2="174.038" y2="92.775"/>
			<line fill="none" stroke="#00BAFF" stroke-width="0.2" x1="159.033" y1="76.322" x2="174.038" y2="91.329"/>
			<line fill="none" stroke="#00BAFF" stroke-width="0.2" x1="159.033" y1="74.875" x2="174.038" y2="89.877"/>
			<line fill="none" stroke="#00BAFF" stroke-width="0.2" x1="159.033" y1="73.426" x2="174.038" y2="88.431"/>
		</g>
	</g>
</g>
<line fill="none" stroke="#00BAFF" stroke-width="0.3" x1="164.133" y1="90.14" x2="164.133" y2="152.14"/>
<line fill="none" stroke="#00BAFF" stroke-width="0.3" x1="168.939" y1="90.14" x2="168.939" y2="152.14"/>
<g>
	<g>
		<defs>
			<rect id="SVGID_7_" x="207.271" y="90.14" width="3.121" height="62"/>
		</defs>
		<clipPath id="SVGID_8_">
			<use xlink:href="#SVGID_7_"  overflow="visible"/>
		</clipPath>
		<g opacity="0.5" clip-path="url(#SVGID_8_)">
			<line fill="none" stroke="#00BAFF" stroke-width="0.2" x1="202.144" y1="157.804" x2="217.15" y2="172.809"/>
			<line fill="none" stroke="#00BAFF" stroke-width="0.2" x1="202.144" y1="156.356" x2="217.15" y2="171.361"/>
			<line fill="none" stroke="#00BAFF" stroke-width="0.2" x1="202.144" y1="154.909" x2="217.15" y2="169.913"/>
			<line fill="none" stroke="#00BAFF" stroke-width="0.2" x1="202.144" y1="153.459" x2="217.15" y2="168.465"/>
			<line fill="none" stroke="#00BAFF" stroke-width="0.2" x1="202.144" y1="152.012" x2="217.15" y2="167.017"/>
			<line fill="none" stroke="#00BAFF" stroke-width="0.2" x1="202.144" y1="150.564" x2="217.15" y2="165.569"/>
			<line fill="none" stroke="#00BAFF" stroke-width="0.2" x1="202.144" y1="149.116" x2="217.15" y2="164.122"/>
			<line fill="none" stroke="#00BAFF" stroke-width="0.2" x1="202.144" y1="147.667" x2="217.15" y2="162.672"/>
			<line fill="none" stroke="#00BAFF" stroke-width="0.2" x1="202.144" y1="146.219" x2="217.15" y2="161.224"/>
			<line fill="none" stroke="#00BAFF" stroke-width="0.2" x1="202.144" y1="144.772" x2="217.15" y2="159.776"/>
			<line fill="none" stroke="#00BAFF" stroke-width="0.2" x1="202.144" y1="143.325" x2="217.15" y2="158.329"/>
			<line fill="none" stroke="#00BAFF" stroke-width="0.2" x1="202.144" y1="141.875" x2="217.15" y2="156.879"/>
			<line fill="none" stroke="#00BAFF" stroke-width="0.2" x1="202.144" y1="140.426" x2="217.15" y2="155.432"/>
			<line fill="none" stroke="#00BAFF" stroke-width="0.2" x1="202.144" y1="138.979" x2="217.15" y2="153.984"/>
			<line fill="none" stroke="#00BAFF" stroke-width="0.2" x1="202.144" y1="137.532" x2="217.15" y2="152.536"/>
			<line fill="none" stroke="#00BAFF" stroke-width="0.2" x1="202.144" y1="136.083" x2="217.15" y2="151.088"/>
			<line fill="none" stroke="#00BAFF" stroke-width="0.2" x1="202.144" y1="134.635" x2="217.15" y2="149.64"/>
			<line fill="none" stroke="#00BAFF" stroke-width="0.2" x1="202.144" y1="133.187" x2="217.15" y2="148.192"/>
			<line fill="none" stroke="#00BAFF" stroke-width="0.2" x1="202.144" y1="131.739" x2="217.15" y2="146.745"/>
			<line fill="none" stroke="#00BAFF" stroke-width="0.2" x1="202.144" y1="130.292" x2="217.15" y2="145.295"/>
			<line fill="none" stroke="#00BAFF" stroke-width="0.2" x1="202.144" y1="128.842" x2="217.15" y2="143.848"/>
			<line fill="none" stroke="#00BAFF" stroke-width="0.2" x1="202.144" y1="127.394" x2="217.15" y2="142.399"/>
			<line fill="none" stroke="#00BAFF" stroke-width="0.2" x1="202.144" y1="125.946" x2="217.15" y2="140.952"/>
			<line fill="none" stroke="#00BAFF" stroke-width="0.2" x1="202.144" y1="124.499" x2="217.15" y2="139.502"/>
			<line fill="none" stroke="#00BAFF" stroke-width="0.2" x1="202.144" y1="123.049" x2="217.15" y2="138.055"/>
			<line fill="none" stroke="#00BAFF" stroke-width="0.2" x1="202.144" y1="121.602" x2="217.15" y2="136.607"/>
			<line fill="none" stroke="#00BAFF" stroke-width="0.2" x1="202.144" y1="120.154" x2="217.15" y2="135.159"/>
			<line fill="none" stroke="#00BAFF" stroke-width="0.2" x1="202.144" y1="118.706" x2="217.15" y2="133.711"/>
			<line fill="none" stroke="#00BAFF" stroke-width="0.2" x1="202.144" y1="117.258" x2="217.15" y2="132.263"/>
			<line fill="none" stroke="#00BAFF" stroke-width="0.2" x1="202.144" y1="115.81" x2="217.15" y2="130.815"/>
			<line fill="none" stroke="#00BAFF" stroke-width="0.2" x1="202.144" y1="114.362" x2="217.15" y2="129.366"/>
			<line fill="none" stroke="#00BAFF" stroke-width="0.2" x1="202.144" y1="112.915" x2="217.15" y2="127.918"/>
			<line fill="none" stroke="#00BAFF" stroke-width="0.2" x1="202.144" y1="111.465" x2="217.15" y2="126.47"/>
			<line fill="none" stroke="#00BAFF" stroke-width="0.2" x1="202.144" y1="110.018" x2="217.15" y2="125.022"/>
			<line fill="none" stroke="#00BAFF" stroke-width="0.2" x1="202.144" y1="108.57" x2="217.15" y2="123.575"/>
			<line fill="none" stroke="#00BAFF" stroke-width="0.2" x1="202.144" y1="107.122" x2="217.15" y2="122.125"/>
			<line fill="none" stroke="#00BAFF" stroke-width="0.2" x1="202.144" y1="105.672" x2="217.15" y2="120.678"/>
			<line fill="none" stroke="#00BAFF" stroke-width="0.2" x1="202.144" y1="104.225" x2="217.15" y2="119.23"/>
			<line fill="none" stroke="#00BAFF" stroke-width="0.2" x1="202.144" y1="102.778" x2="217.15" y2="117.782"/>
			<line fill="none" stroke="#00BAFF" stroke-width="0.2" x1="202.144" y1="101.329" x2="217.15" y2="116.334"/>
			<line fill="none" stroke="#00BAFF" stroke-width="0.2" x1="202.144" y1="99.881" x2="217.15" y2="114.885"/>
			<line fill="none" stroke="#00BAFF" stroke-width="0.2" x1="202.144" y1="98.433" x2="217.15" y2="113.438"/>
			<line fill="none" stroke="#00BAFF" stroke-width="0.2" x1="202.144" y1="96.985" x2="217.15" y2="111.991"/>
			<line fill="none" stroke="#00BAFF" stroke-width="0.2" x1="202.144" y1="95.538" x2="217.15" y2="110.542"/>
			<line fill="none" stroke="#00BAFF" stroke-width="0.2" x1="202.144" y1="94.088" x2="217.15" y2="109.092"/>
			<line fill="none" stroke="#00BAFF" stroke-width="0.2" x1="202.144" y1="92.641" x2="217.15" y2="107.645"/>
			<line fill="none" stroke="#00BAFF" stroke-width="0.2" x1="202.144" y1="91.193" x2="217.15" y2="106.197"/>
			<line fill="none" stroke="#00BAFF" stroke-width="0.2" x1="202.144" y1="89.745" x2="217.15" y2="104.75"/>
			<line fill="none" stroke="#00BAFF" stroke-width="0.2" x1="202.144" y1="88.295" x2="217.15" y2="103.301"/>
			<line fill="none" stroke="#00BAFF" stroke-width="0.2" x1="202.144" y1="86.848" x2="217.15" y2="101.853"/>
			<line fill="none" stroke="#00BAFF" stroke-width="0.2" x1="202.144" y1="85.4" x2="217.15" y2="100.405"/>
			<line fill="none" stroke="#00BAFF" stroke-width="0.2" x1="202.144" y1="83.952" x2="217.15" y2="98.958"/>
			<line fill="none" stroke="#00BAFF" stroke-width="0.2" x1="202.144" y1="82.504" x2="217.15" y2="97.508"/>
			<line fill="none" stroke="#00BAFF" stroke-width="0.2" x1="202.144" y1="81.056" x2="217.15" y2="96.061"/>
			<line fill="none" stroke="#00BAFF" stroke-width="0.2" x1="202.144" y1="79.608" x2="217.15" y2="94.613"/>
			<line fill="none" stroke="#00BAFF" stroke-width="0.2" x1="202.144" y1="78.16" x2="217.15" y2="93.165"/>
			<line fill="none" stroke="#00BAFF" stroke-width="0.2" x1="202.144" y1="76.711" x2="217.15" y2="91.715"/>
			<line fill="none" stroke="#00BAFF" stroke-width="0.2" x1="202.144" y1="75.264" x2="217.15" y2="90.268"/>
			<line fill="none" stroke="#00BAFF" stroke-width="0.2" x1="202.144" y1="73.815" x2="217.15" y2="88.821"/>
			<line fill="none" stroke="#00BAFF" stroke-width="0.2" x1="202.144" y1="72.367" x2="217.15" y2="87.372"/>
			<line fill="none" stroke="#00BAFF" stroke-width="0.2" x1="202.144" y1="70.919" x2="217.15" y2="85.924"/>
			<line fill="none" stroke="#00BAFF" stroke-width="0.2" x1="202.144" y1="69.471" x2="217.15" y2="84.476"/>
		</g>
	</g>
</g>
<line fill="none" stroke="#00BAFF" stroke-width="0.3" x1="207.271" y1="90.14" x2="207.271" y2="152.14"/>
<line fill="none" stroke="#00BAFF" stroke-width="0.3" x1="210.392" y1="90.14" x2="210.392" y2="152.14"/>
<g>
	<path fill="#666666" d="M11.98,144.057h8.865V89.434H11.98v-1.118h14.854c0.745,0,1.49-0.012,2.235-0.04
		c0.745-0.025,1.49-0.066,2.236-0.119c0.745,0,1.49-0.013,2.236-0.041c0.745-0.025,1.49-0.039,2.235-0.039
		c1.598,0,3.021,0.026,4.272,0.08c1.25,0.053,2.422,0.146,3.514,0.279c1.091,0.133,2.129,0.318,3.115,0.559
		c0.984,0.239,2.036,0.547,3.154,0.918c3.247,1.065,6.056,2.489,8.425,4.272c2.368,1.784,4.312,3.847,5.83,6.188
		c1.517,2.344,2.635,4.898,3.354,7.666c0.72,2.77,1.078,5.67,1.078,8.705c0,3.514-0.427,6.668-1.277,9.463
		c-0.853,2.795-2.024,5.271-3.515,7.428c-1.491,2.154-3.233,4.02-5.23,5.59c-1.996,1.57-4.141,2.835-6.429,3.793
		c-1.277,0.587-2.489,1.038-3.634,1.357c-1.146,0.318-2.315,0.56-3.514,0.719c-1.198,0.16-2.517,0.266-3.953,0.318
		c-1.438,0.053-3.088,0.08-4.951,0.08c-0.798,0-1.65-0.014-2.556-0.039c-0.906-0.027-1.812-0.068-2.715-0.119
		c-0.906-0.055-1.797-0.094-2.676-0.121c-0.878-0.026-1.717-0.039-2.516-0.039H11.98V144.057z M28.83,144.057
		c0.903,0.107,1.957,0.188,3.153,0.238c1.198,0.055,2.517,0.08,3.953,0.08c1.811,0,3.606-0.092,5.392-0.278
		c1.782-0.187,3.485-0.585,5.11-1.198c1.624-0.611,3.142-1.488,4.553-2.635c1.409-1.145,2.675-2.648,3.793-4.512
		c1.702-2.875,2.888-5.816,3.554-8.826c0.665-3.006,0.999-6.295,0.999-9.861c0-4.205-0.399-8.025-1.198-11.46
		c-0.798-3.435-2.116-6.36-3.953-8.784c-1.837-2.422-4.271-4.299-7.307-5.63c-3.035-1.33-6.788-1.997-11.26-1.997
		c-1.331,0-2.543,0.028-3.634,0.08c-1.092,0.055-2.144,0.107-3.153,0.16v54.623H28.83z"/>
	<path fill="#666666" d="M84.386,125.372c0,0.531-0.014,1.078-0.04,1.637c-0.028,0.56-0.04,1.266-0.04,2.115
		c0,1.758,0.106,3.594,0.319,5.512c0.212,1.916,0.679,3.646,1.396,5.189c0.72,1.545,1.783,2.822,3.194,3.834
		c1.41,1.012,3.287,1.518,5.63,1.518c2.342,0,4.272-0.346,5.79-1.038c1.517-0.69,2.715-1.53,3.593-2.517
		c0.879-0.983,1.53-1.981,1.957-2.994c0.426-1.012,0.745-1.836,0.958-2.477l1.198,0.24c-0.16,0.586-0.466,1.425-0.918,2.516
		c-0.453,1.092-1.171,2.184-2.156,3.273c-0.985,1.092-2.315,2.051-3.993,2.875c-1.677,0.824-3.847,1.238-6.508,1.238
		c-2.663,0-5.125-0.428-7.387-1.278c-2.263-0.851-4.22-2.076-5.87-3.673c-1.65-1.598-2.928-3.5-3.833-5.711
		c-0.906-2.209-1.357-4.672-1.357-7.387c0-2.343,0.466-4.617,1.397-6.828c0.931-2.209,2.208-4.164,3.833-5.869
		c1.624-1.703,3.526-3.074,5.71-4.112c2.183-1.038,4.524-1.558,7.027-1.558c1.489,0,3.087,0.268,4.792,0.799
		c1.704,0.533,3.287,1.396,4.752,2.596c1.463,1.198,2.688,2.782,3.673,4.752c0.983,1.971,1.478,4.419,1.478,7.348H84.386
		L84.386,125.372z M100.838,124.252c0.105-0.746,0.16-1.438,0.16-2.076c0-0.639,0-1.305,0-1.997c0-1.81-0.174-3.3-0.52-4.472
		c-0.347-1.17-0.826-2.104-1.438-2.795c-0.613-0.691-1.358-1.186-2.236-1.479c-0.878-0.292-1.824-0.439-2.835-0.439
		c-1.811,0-3.301,0.359-4.472,1.078s-2.104,1.691-2.795,2.915c-0.692,1.226-1.211,2.636-1.558,4.232
		c-0.347,1.598-0.572,3.274-0.679,5.03h16.371V124.252z"/>
	<path fill="#666666" d="M115.859,133.997h0.878c0.372,1.276,0.852,2.567,1.438,3.873c0.585,1.305,1.37,2.502,2.354,3.592
		c0.985,1.093,2.196,1.984,3.635,2.677c1.438,0.692,3.167,1.038,5.19,1.038c1.703,0,3.221-0.52,4.553-1.559
		c1.329-1.037,1.996-2.728,1.996-5.07c0-2.022-0.519-3.445-1.557-4.271c-1.039-0.824-2.25-1.479-3.634-1.957l-6.229-2.156
		c-0.798-0.266-1.665-0.599-2.595-0.998c-0.932-0.398-1.797-0.957-2.596-1.677c-0.798-0.719-1.451-1.638-1.957-2.755
		s-0.758-2.557-0.758-4.312c0-1.489,0.292-2.875,0.878-4.152c0.585-1.277,1.384-2.396,2.396-3.354
		c1.011-0.959,2.224-1.703,3.634-2.236c1.41-0.531,2.941-0.799,4.593-0.799c1.17,0,2.115,0.094,2.835,0.279
		c0.719,0.186,1.344,0.373,1.876,0.559c0.531,0.188,1.011,0.373,1.438,0.561c0.426,0.188,0.932,0.279,1.519,0.279
		c0.585,0,1.011-0.213,1.277-0.639h0.878v9.104h-0.878c-0.374-1.171-0.799-2.303-1.277-3.395c-0.479-1.09-1.053-2.062-1.718-2.914
		c-0.666-0.853-1.49-1.519-2.476-1.998c-0.985-0.479-2.144-0.719-3.474-0.719c-2.557,0-4.54,0.573-5.95,1.717
		c-1.411,1.146-2.116,2.677-2.116,4.594c0,1.703,0.599,2.994,1.797,3.873c1.198,0.878,2.967,1.689,5.312,2.436l5.83,1.916
		c2.502,0.854,4.552,2.024,6.148,3.514c1.597,1.492,2.396,3.463,2.396,5.91c0,1.438-0.279,2.85-0.838,4.232
		c-0.56,1.385-1.386,2.596-2.477,3.634c-1.092,1.038-2.423,1.876-3.993,2.517c-1.57,0.639-3.368,0.957-5.391,0.957
		c-1.172,0-2.25-0.119-3.234-0.358c-0.985-0.239-1.89-0.493-2.715-0.759c-0.826-0.266-1.584-0.52-2.275-0.76
		c-0.692-0.238-1.331-0.358-1.918-0.358c-0.586,0-1.012,0.12-1.277,0.358c-0.268,0.24-0.479,0.494-0.64,0.76h-0.878L115.859,133.997
		L115.859,133.997z"/>
	<path fill="#666666" d="M144.967,144.057h6.148v-32.023h-6.148v-1.117h13.018v33.142h6.148v1.118h-19.166V144.057z M150.158,92.309
		c0-1.17,0.411-2.168,1.237-2.995c0.824-0.825,1.822-1.237,2.994-1.237c1.17,0,2.168,0.412,2.994,1.237
		c0.824,0.827,1.238,1.825,1.238,2.995c0,1.172-0.414,2.17-1.238,2.994c-0.826,0.826-1.824,1.238-2.994,1.238
		c-1.172,0-2.17-0.412-2.994-1.238C150.57,94.479,150.158,93.481,150.158,92.309z"/>
	<path fill="#666666" d="M168.939,139.985c0-1.438,0.267-2.676,0.799-3.714c0.531-1.038,1.185-1.942,1.957-2.715
		c0.771-0.771,1.599-1.397,2.476-1.877c0.879-0.479,1.664-0.878,2.356-1.198c-3.09-2.128-4.633-5.003-4.633-8.624
		c0-1.862,0.451-3.54,1.357-5.03c0.903-1.49,2.049-2.756,3.434-3.793c1.385-1.039,2.916-1.824,4.592-2.357
		c1.679-0.53,3.287-0.799,4.832-0.799c2.396,0,4.459,0.479,6.189,1.438c1.729,0.959,2.994,1.837,3.793,2.636
		c0.586-1.011,1.449-1.941,2.596-2.795c1.146-0.852,2.568-1.277,4.271-1.277c1.063,0,2.049,0.228,2.955,0.68
		c0.903,0.452,1.356,1.425,1.356,2.914c0,0.959-0.307,1.678-0.918,2.156c-0.613,0.479-1.238,0.719-1.877,0.719
		c-0.746,0-1.276-0.212-1.598-0.639c-0.318-0.426-0.599-0.879-0.838-1.357c-0.24-0.479-0.492-0.932-0.759-1.357
		c-0.268-0.426-0.665-0.64-1.198-0.64c-0.531,0-1.078,0.228-1.638,0.681c-0.559,0.451-1.051,0.971-1.477,1.557
		c0.479,0.533,1.09,1.438,1.836,2.716c0.746,1.276,1.119,2.874,1.119,4.791c0,1.599-0.4,3.062-1.199,4.394
		c-0.799,1.33-1.85,2.502-3.154,3.514s-2.821,1.797-4.551,2.354c-1.729,0.56-3.502,0.839-5.311,0.839
		c-1.865,0-3.488-0.252-4.871-0.759c-1.387-0.506-2.451-0.944-3.195-1.317c-0.586,0.268-1.211,0.56-1.877,0.879
		c-0.666,0.318-1.277,0.719-1.836,1.197c-0.559,0.479-1.025,1.053-1.398,1.717c-0.372,0.666-0.559,1.426-0.559,2.276
		c0,0.798,0.16,1.466,0.479,1.996c0.319,0.532,0.731,0.933,1.237,1.198s1.078,0.451,1.717,0.559c0.64,0.107,1.306,0.159,1.996,0.159
		h12.619c3.726,0,6.693,0.894,8.904,2.677c2.207,1.782,3.312,4.592,3.312,8.424c0,2.344-0.506,4.474-1.516,6.39
		c-1.014,1.917-2.357,3.579-4.033,4.991c-1.678,1.41-3.606,2.502-5.791,3.273c-2.184,0.771-4.42,1.158-6.707,1.158
		c-2.076,0-3.979-0.24-5.711-0.719c-1.729-0.479-3.233-1.133-4.512-1.957c-1.277-0.826-2.275-1.824-2.994-2.994
		c-0.719-1.172-1.078-2.477-1.078-3.913c0-1.386,0.279-2.649,0.838-3.794c0.56-1.146,1.277-2.156,2.156-3.034
		c0.879-0.879,1.877-1.638,2.996-2.276c1.117-0.639,2.234-1.17,3.354-1.597v-0.159c-3.514,0-6.108-0.572-7.786-1.718
		C169.779,144.709,168.939,142.752,168.939,139.985z M180.918,147.571c-0.691,0.426-1.396,0.865-2.115,1.318
		c-0.719,0.451-1.357,1.023-1.916,1.717c-0.561,0.691-1.014,1.503-1.357,2.436c-0.348,0.932-0.52,2.09-0.52,3.475
		c0,1.917,0.332,3.5,0.998,4.752c0.664,1.25,1.518,2.262,2.555,3.033c1.039,0.771,2.197,1.318,3.476,1.638
		c1.276,0.319,2.526,0.479,3.754,0.479c1.916,0,3.658-0.293,5.229-0.879c1.568-0.586,2.927-1.371,4.072-2.355
		s2.023-2.116,2.635-3.395c0.611-1.277,0.918-2.608,0.918-3.992c0-2.982-0.811-5.1-2.436-6.35c-1.623-1.252-3.846-1.877-6.668-1.877
		H180.918z M193.855,121.618c0-1.225-0.08-2.463-0.237-3.714c-0.16-1.25-0.494-2.396-1-3.434c-0.507-1.039-1.277-1.878-2.314-2.517
		c-1.039-0.64-2.436-0.959-4.193-0.959c-2.715,0-4.766,0.826-6.147,2.477c-1.385,1.65-2.076,4.365-2.076,8.146
		c0,1.598,0.119,3.034,0.359,4.312c0.237,1.278,0.678,2.384,1.315,3.313c0.64,0.932,1.49,1.637,2.558,2.116
		c1.063,0.479,2.422,0.72,4.071,0.72c2.769,0,4.738-0.865,5.91-2.597C193.269,127.752,193.855,125.129,193.855,121.618z"/>
	<path fill="#666666" d="M210.392,144.057h6.15v-32.023h-6.15v-1.117h12.857v8.545h0.16c0.319-0.69,0.784-1.569,1.397-2.635
		c0.611-1.064,1.449-2.104,2.517-3.115c1.063-1.01,2.395-1.877,3.991-2.596c1.598-0.719,3.539-1.078,5.83-1.078
		c3.515,0,6.375,0.854,8.584,2.557s3.314,4.42,3.314,8.146v23.317h6.147v1.118h-19.166v-1.118h6.15v-25.794
		c0-2.076-0.494-3.779-1.479-5.111c-0.983-1.33-2.516-1.996-4.592-1.996c-1.703,0-3.328,0.373-4.871,1.118
		c-1.545,0.746-2.901,1.784-4.071,3.114c-1.173,1.331-2.091,2.902-2.757,4.712c-0.666,1.812-0.997,3.78-0.997,5.909v18.048h6.147
		v1.118h-19.166v-1.119H210.392z"/>
</g>
<g>
	<g>
		<defs>
			<rect id="SVGID_9_" x="68.52" y="90.14" width="7.801" height="62"/>
		</defs>
		<clipPath id="SVGID_10_">
			<use xlink:href="#SVGID_9_"  overflow="visible"/>
		</clipPath>
		<g opacity="0.5" clip-path="url(#SVGID_10_)">
			<line fill="none" stroke="#00BAFF" stroke-width="0.2" x1="65.849" y1="160.2" x2="80.854" y2="175.204"/>
			<line fill="none" stroke="#00BAFF" stroke-width="0.2" x1="65.849" y1="158.75" x2="80.854" y2="173.754"/>
			<line fill="none" stroke="#00BAFF" stroke-width="0.2" x1="65.849" y1="157.301" x2="80.854" y2="172.308"/>
			<line fill="none" stroke="#00BAFF" stroke-width="0.2" x1="65.848" y1="155.854" x2="80.854" y2="170.859"/>
			<line fill="none" stroke="#00BAFF" stroke-width="0.2" x1="65.849" y1="154.407" x2="80.854" y2="169.413"/>
			<line fill="none" stroke="#00BAFF" stroke-width="0.2" x1="65.849" y1="152.958" x2="80.854" y2="167.963"/>
			<line fill="none" stroke="#00BAFF" stroke-width="0.2" x1="65.849" y1="151.51" x2="80.854" y2="166.515"/>
			<line fill="none" stroke="#00BAFF" stroke-width="0.2" x1="65.849" y1="150.062" x2="80.854" y2="165.067"/>
			<line fill="none" stroke="#00BAFF" stroke-width="0.2" x1="65.849" y1="148.616" x2="80.854" y2="163.62"/>
			<line fill="none" stroke="#00BAFF" stroke-width="0.2" x1="65.849" y1="147.167" x2="80.854" y2="162.17"/>
			<line fill="none" stroke="#00BAFF" stroke-width="0.2" x1="65.849" y1="145.717" x2="80.854" y2="160.722"/>
			<line fill="none" stroke="#00BAFF" stroke-width="0.2" x1="65.849" y1="144.27" x2="80.854" y2="159.275"/>
			<line fill="none" stroke="#00BAFF" stroke-width="0.2" x1="65.849" y1="142.823" x2="80.853" y2="157.827"/>
			<line fill="none" stroke="#00BAFF" stroke-width="0.2" x1="65.849" y1="141.374" x2="80.854" y2="156.377"/>
			<line fill="none" stroke="#00BAFF" stroke-width="0.2" x1="65.849" y1="139.924" x2="80.854" y2="154.93"/>
			<line fill="none" stroke="#00BAFF" stroke-width="0.2" x1="65.849" y1="138.478" x2="80.854" y2="153.482"/>
			<line fill="none" stroke="#00BAFF" stroke-width="0.2" x1="65.849" y1="137.03" x2="80.854" y2="152.036"/>
			<line fill="none" stroke="#00BAFF" stroke-width="0.2" x1="65.849" y1="135.583" x2="80.854" y2="150.586"/>
			<line fill="none" stroke="#00BAFF" stroke-width="0.2" x1="65.848" y1="134.133" x2="80.853" y2="149.138"/>
			<line fill="none" stroke="#00BAFF" stroke-width="0.2" x1="65.849" y1="132.685" x2="80.854" y2="147.69"/>
			<line fill="none" stroke="#00BAFF" stroke-width="0.2" x1="65.849" y1="131.237" x2="80.854" y2="146.243"/>
			<line fill="none" stroke="#00BAFF" stroke-width="0.2" x1="65.849" y1="129.79" x2="80.854" y2="144.793"/>
			<line fill="none" stroke="#00BAFF" stroke-width="0.2" x1="65.849" y1="128.34" x2="80.854" y2="143.345"/>
			<line fill="none" stroke="#00BAFF" stroke-width="0.2" x1="65.849" y1="126.892" x2="80.854" y2="141.898"/>
			<line fill="none" stroke="#00BAFF" stroke-width="0.2" x1="65.849" y1="125.445" x2="80.854" y2="140.45"/>
			<line fill="none" stroke="#00BAFF" stroke-width="0.2" x1="65.849" y1="123.997" x2="80.854" y2="139"/>
			<line fill="none" stroke="#00BAFF" stroke-width="0.2" x1="65.849" y1="122.547" x2="80.854" y2="137.553"/>
			<line fill="none" stroke="#00BAFF" stroke-width="0.2" x1="65.849" y1="121.1" x2="80.854" y2="136.105"/>
			<line fill="none" stroke="#00BAFF" stroke-width="0.2" x1="65.849" y1="119.653" x2="80.854" y2="134.659"/>
			<line fill="none" stroke="#00BAFF" stroke-width="0.2" x1="65.849" y1="118.206" x2="80.854" y2="133.208"/>
			<line fill="none" stroke="#00BAFF" stroke-width="0.2" x1="65.849" y1="116.754" x2="80.854" y2="131.76"/>
			<line fill="none" stroke="#00BAFF" stroke-width="0.2" x1="65.849" y1="115.308" x2="80.854" y2="130.313"/>
			<line fill="none" stroke="#00BAFF" stroke-width="0.2" x1="65.849" y1="113.861" x2="80.854" y2="128.866"/>
			<line fill="none" stroke="#00BAFF" stroke-width="0.2" x1="65.849" y1="112.413" x2="80.854" y2="127.417"/>
			<line fill="none" stroke="#00BAFF" stroke-width="0.2" x1="65.849" y1="110.963" x2="80.854" y2="125.967"/>
			<line fill="none" stroke="#00BAFF" stroke-width="0.2" x1="65.849" y1="109.515" x2="80.854" y2="124.521"/>
			<line fill="none" stroke="#00BAFF" stroke-width="0.2" x1="65.849" y1="108.068" x2="80.854" y2="123.073"/>
			<line fill="none" stroke="#00BAFF" stroke-width="0.2" x1="65.849" y1="106.62" x2="80.854" y2="121.625"/>
			<line fill="none" stroke="#00BAFF" stroke-width="0.2" x1="65.849" y1="105.17" x2="80.854" y2="120.176"/>
			<line fill="none" stroke="#00BAFF" stroke-width="0.2" x1="65.849" y1="103.724" x2="80.854" y2="118.728"/>
			<line fill="none" stroke="#00BAFF" stroke-width="0.2" x1="65.849" y1="102.275" x2="80.854" y2="117.282"/>
			<line fill="none" stroke="#00BAFF" stroke-width="0.2" x1="65.849" y1="100.829" x2="80.854" y2="115.833"/>
			<line fill="none" stroke="#00BAFF" stroke-width="0.2" x1="65.849" y1="99.379" x2="80.854" y2="114.383"/>
			<line fill="none" stroke="#00BAFF" stroke-width="0.2" x1="65.849" y1="97.931" x2="80.854" y2="112.936"/>
			<line fill="none" stroke="#00BAFF" stroke-width="0.2" x1="65.849" y1="96.483" x2="80.854" y2="111.488"/>
			<line fill="none" stroke="#00BAFF" stroke-width="0.2" x1="65.849" y1="95.036" x2="80.854" y2="110.04"/>
			<line fill="none" stroke="#00BAFF" stroke-width="0.2" x1="65.849" y1="93.586" x2="80.854" y2="108.59"/>
			<line fill="none" stroke="#00BAFF" stroke-width="0.2" x1="65.849" y1="92.139" x2="80.854" y2="107.144"/>
			<line fill="none" stroke="#00BAFF" stroke-width="0.2" x1="65.849" y1="90.691" x2="80.854" y2="105.696"/>
			<line fill="none" stroke="#00BAFF" stroke-width="0.2" x1="65.849" y1="89.243" x2="80.854" y2="104.249"/>
			<line fill="none" stroke="#00BAFF" stroke-width="0.2" x1="65.849" y1="87.793" x2="80.854" y2="102.799"/>
			<line fill="none" stroke="#00BAFF" stroke-width="0.2" x1="65.849" y1="86.346" x2="80.854" y2="101.351"/>
			<line fill="none" stroke="#00BAFF" stroke-width="0.2" x1="65.849" y1="84.899" x2="80.854" y2="99.904"/>
			<line fill="none" stroke="#00BAFF" stroke-width="0.2" x1="65.849" y1="83.451" x2="80.854" y2="98.456"/>
			<line fill="none" stroke="#00BAFF" stroke-width="0.2" x1="65.849" y1="82.002" x2="80.854" y2="97.006"/>
			<line fill="none" stroke="#00BAFF" stroke-width="0.2" x1="65.849" y1="80.554" x2="80.854" y2="95.559"/>
			<line fill="none" stroke="#00BAFF" stroke-width="0.2" x1="65.849" y1="79.106" x2="80.854" y2="94.111"/>
			<line fill="none" stroke="#00BAFF" stroke-width="0.2" x1="65.849" y1="77.659" x2="80.854" y2="92.665"/>
			<line fill="none" stroke="#00BAFF" stroke-width="0.2" x1="65.849" y1="76.209" x2="80.854" y2="91.215"/>
			<line fill="none" stroke="#00BAFF" stroke-width="0.2" x1="65.849" y1="74.762" x2="80.854" y2="89.767"/>
			<line fill="none" stroke="#00BAFF" stroke-width="0.2" x1="65.849" y1="73.314" x2="80.854" y2="88.319"/>
			<line fill="none" stroke="#00BAFF" stroke-width="0.2" x1="65.849" y1="71.866" x2="80.854" y2="86.872"/>
		</g>
	</g>
</g>
</svg>
