<?xml version="1.0" encoding="utf-8"?>
<!-- Generator: Adobe Illustrator 15.0.0, SVG Export Plug-In . SVG Version: 6.00 Build 0)  -->
<!DOCTYPE svg PUBLIC "-//W3C//DTD SVG 1.1//EN" "http://www.w3.org/Graphics/SVG/1.1/DTD/svg11.dtd">
<svg version="1.1" id="Layer_1" xmlns="http://www.w3.org/2000/svg" xmlns:xlink="http://www.w3.org/1999/xlink" x="0px" y="0px"
	 width="287.93px" height="170.879px" viewBox="0 0 287.93 170.879" enable-background="new 0 0 287.93 170.879"
	 xml:space="preserve">
<g display="none">
	<path display="inline" d="M23.663,59.621h9.331v-57.5h-4.875c-1.122,0-2.386,0.099-3.783,0.294
		c-1.401,0.197-2.815,0.743-4.246,1.639c-1.429,0.897-2.803,2.312-4.118,4.245c-1.317,1.934-2.452,4.61-3.404,8.028h-0.925V0.945
		h51.109v15.383h-0.924c-0.954-3.417-2.088-6.094-3.405-8.028c-1.316-1.934-2.689-3.348-4.118-4.245
		c-1.43-0.896-2.846-1.442-4.245-1.639c-1.398-0.196-2.663-0.294-3.783-0.294H41.4v57.5h9.331v1.177H23.663V59.621z"/>
	<path display="inline" d="M55.707,24.735h20.597v1.177h-7.062l10.844,26.396l11.35-26.396h-6.979v-1.177h12.859v1.177h-4.539
		L78.909,58.36c-1.065,2.411-2.074,4.834-3.026,7.271c-0.953,2.438-1.905,4.889-2.857,7.355c-0.784,2.018-1.567,3.783-2.354,5.296
		c-0.786,1.513-1.611,2.745-2.479,3.699c-0.868,0.952-1.808,1.667-2.813,2.144c-1.009,0.476-2.188,0.714-3.53,0.714
		c-1.627,0-2.93-0.252-3.909-0.756c-0.979-0.504-1.752-1.093-2.312-1.766c-0.562-0.672-0.926-1.374-1.094-2.102
		c-0.168-0.729-0.254-1.345-0.254-1.849c0-1.401,0.396-2.452,1.18-3.152c0.783-0.702,1.733-1.051,2.855-1.051
		c0.395,0,0.812,0.042,1.264,0.126c0.445,0.084,0.865,0.238,1.261,0.462c0.393,0.223,0.729,0.532,1.01,0.925
		c0.279,0.391,0.42,0.868,0.42,1.429c0,0.784-0.239,1.526-0.716,2.228c-0.478,0.7-0.714,1.471-0.714,2.312
		c0,0.728,0.195,1.205,0.588,1.429c0.393,0.223,0.926,0.336,1.598,0.336c0.896,0,1.727-0.21,2.479-0.631
		c0.756-0.421,1.499-1.107,2.229-2.06c0.729-0.954,1.457-2.2,2.188-3.741c0.729-1.542,1.541-3.434,2.438-5.674l3.698-9.415
		L61.507,25.912h-5.8V24.735z"/>
	<path display="inline" d="M100.562,83.159h6.476V25.912h-6.476v-1.177h13.534v7.061h0.168c0.841-2.354,2.229-4.3,4.16-5.842
		c1.935-1.541,4.441-2.312,7.521-2.312c2.408,0,4.681,0.519,6.811,1.555c2.13,1.038,4.007,2.41,5.633,4.119
		c1.625,1.71,2.914,3.713,3.866,6.011c0.952,2.299,1.43,4.708,1.43,7.229c0,2.578-0.491,5.031-1.472,7.355
		c-0.98,2.326-2.312,4.386-3.992,6.179c-1.682,1.794-3.63,3.223-5.843,4.287c-2.215,1.064-4.554,1.597-7.021,1.597
		c-1.903,0-3.519-0.323-4.833-0.967s-2.396-1.4-3.233-2.27c-0.843-0.868-1.485-1.765-1.937-2.69
		c-0.448-0.925-0.756-1.667-0.925-2.228h-0.168v29.338h6.473v1.177H100.56L100.562,83.159L100.562,83.159z M135.28,41.547
		c0-2.577-0.141-4.889-0.42-6.935c-0.278-2.045-0.771-3.796-1.471-5.254c-0.702-1.457-1.683-2.577-2.942-3.363
		c-1.261-0.784-2.87-1.177-4.83-1.177c-2.074,0-3.783,0.365-5.131,1.093c-1.345,0.729-2.438,1.654-3.275,2.774
		c-0.618,0.786-1.106,1.626-1.474,2.522c-0.362,0.897-0.657,1.962-0.883,3.194c-0.226,1.233-0.378,2.648-0.462,4.245
		s-0.126,3.489-0.126,5.674c0,1.85,0.139,3.755,0.42,5.716c0.279,1.962,0.812,3.741,1.6,5.338c0.781,1.597,1.891,2.9,3.317,3.909
		c1.432,1.009,3.32,1.513,5.674,1.513c2.3,0,4.119-0.448,5.467-1.345c1.345-0.896,2.354-2.186,3.023-3.867
		c0.673-1.681,1.093-3.712,1.261-6.095C135.196,47.11,135.28,44.462,135.28,41.547z"/>
	<path display="inline" d="M158.801,39.95c0,0.561-0.015,1.135-0.042,1.723c-0.028,0.588-0.042,1.332-0.042,2.228
		c0,1.85,0.112,3.783,0.336,5.801c0.224,2.018,0.715,3.839,1.472,5.464c0.756,1.626,1.877,2.971,3.361,4.035
		c1.484,1.065,3.461,1.597,5.928,1.597c2.465,0,4.497-0.364,6.098-1.093c1.597-0.728,2.855-1.61,3.78-2.648
		c0.928-1.037,1.609-2.087,2.062-3.152c0.448-1.064,0.784-1.934,1.009-2.606l1.262,0.252c-0.168,0.618-0.489,1.5-0.967,2.648
		c-0.478,1.149-1.231,2.299-2.271,3.447c-1.038,1.149-2.438,2.158-4.203,3.026c-1.769,0.868-4.051,1.303-6.854,1.303
		c-2.804,0-5.396-0.449-7.773-1.345c-2.386-0.896-4.441-2.186-6.182-3.867c-1.735-1.681-3.083-3.684-4.032-6.01
		c-0.954-2.325-1.432-4.918-1.432-7.776c0-2.465,0.489-4.861,1.474-7.188c0.979-2.325,2.322-4.384,4.032-6.179
		c1.709-1.793,3.712-3.236,6.013-4.329c2.297-1.093,4.763-1.639,7.396-1.639c1.567,0,3.25,0.281,5.043,0.84
		c1.793,0.561,3.46,1.471,5.002,2.732c1.541,1.261,2.829,2.929,3.867,5.002c1.036,2.074,1.555,4.652,1.555,7.734H158.801z
		 M176.118,38.773c0.109-0.784,0.168-1.513,0.168-2.186c0-0.672,0-1.373,0-2.102c0-1.904-0.186-3.474-0.546-4.708
		c-0.365-1.232-0.87-2.213-1.516-2.942c-0.646-0.728-1.43-1.247-2.354-1.555c-0.927-0.308-1.92-0.462-2.983-0.462
		c-1.906,0-3.477,0.378-4.708,1.135c-1.23,0.756-2.215,1.78-2.939,3.068c-0.729,1.29-1.275,2.774-1.642,4.455
		c-0.365,1.682-0.604,3.447-0.715,5.296L176.118,38.773L176.118,38.773z"/>
	<path display="inline" d="M10.97,150.622h9.33V93.124h-9.33v-1.179h15.636c0.784,0,1.567-0.014,2.354-0.043
		c0.784-0.026,1.565-0.067,2.354-0.125c0.784,0,1.567-0.014,2.354-0.043c0.784-0.024,1.565-0.041,2.354-0.041
		c1.684,0,3.183,0.029,4.498,0.084c1.315,0.058,2.549,0.154,3.698,0.293c1.148,0.144,2.241,0.339,3.278,0.591
		s2.145,0.573,3.318,0.967c3.417,1.121,6.374,2.621,8.869,4.498c2.493,1.877,4.539,4.049,6.137,6.517
		c1.599,2.467,2.773,5.153,3.53,8.067s1.135,5.97,1.135,9.162c0,3.698-0.446,7.021-1.345,9.963c-0.896,2.94-2.13,5.547-3.699,7.815
		c-1.567,2.271-3.402,4.23-5.506,5.886c-2.103,1.653-4.355,2.983-6.768,3.993c-1.345,0.617-2.621,1.093-3.824,1.429
		c-1.206,0.338-2.438,0.59-3.699,0.758c-1.261,0.168-2.646,0.279-4.161,0.336c-1.513,0.058-3.251,0.084-5.212,0.084
		c-0.841,0-1.735-0.014-2.688-0.041c-0.954-0.028-1.905-0.069-2.857-0.127c-0.954-0.057-1.893-0.098-2.813-0.127
		c-0.927-0.026-1.81-0.041-2.647-0.041H10.97V150.622z M28.707,150.622c0.952,0.112,2.061,0.196,3.317,0.252
		c1.264,0.06,2.647,0.084,4.161,0.084c1.904,0,3.796-0.099,5.674-0.293c1.877-0.195,3.673-0.617,5.383-1.263
		c1.708-0.646,3.306-1.567,4.792-2.772c1.481-1.205,2.813-2.787,3.99-4.75c1.792-3.024,3.039-6.121,3.741-9.289
		c0.699-3.166,1.051-6.627,1.051-10.381c0-4.428-0.42-8.449-1.261-12.062c-0.841-3.613-2.229-6.695-4.161-9.248
		c-1.934-2.549-4.497-4.523-7.688-5.926c-3.194-1.398-7.146-2.103-11.854-2.103c-1.399,0-2.678,0.026-3.825,0.084
		c-1.146,0.055-2.256,0.11-3.317,0.168L28.707,150.622L28.707,150.622z"/>
	<path display="inline" d="M87.189,130.952c0,0.562-0.016,1.135-0.042,1.723c-0.026,0.591-0.042,1.332-0.042,2.229
		c0,1.851,0.111,3.783,0.336,5.802c0.226,2.021,0.714,3.84,1.474,5.465c0.756,1.625,1.877,2.972,3.359,4.035
		c1.483,1.063,3.46,1.599,5.93,1.599c2.465,0,4.497-0.363,6.095-1.095c1.598-0.729,2.855-1.608,3.783-2.646
		c0.925-1.037,1.607-2.088,2.061-3.15c0.447-1.062,0.783-1.936,1.009-2.605l1.264,0.252c-0.168,0.619-0.491,1.5-0.97,2.646
		c-0.478,1.148-1.23,2.299-2.271,3.445c-1.04,1.147-2.438,2.158-4.202,3.025c-1.767,0.868-4.051,1.303-6.852,1.303
		c-2.806,0-5.396-0.447-7.776-1.344c-2.383-0.896-4.441-2.188-6.179-3.867c-1.738-1.683-3.083-3.687-4.035-6.013
		c-0.954-2.323-1.429-4.918-1.429-7.774c0-2.465,0.487-4.859,1.471-7.188c0.979-2.322,2.325-4.385,4.035-6.178
		c1.709-1.793,3.712-3.236,6.01-4.33s4.764-1.641,7.396-1.641c1.568,0,3.25,0.281,5.046,0.84c1.793,0.562,3.46,1.473,5.002,2.731
		c1.541,1.263,2.826,2.931,3.864,5.003c1.037,2.073,1.558,4.651,1.558,7.733H87.189V130.952z M104.506,129.773
		c0.112-0.782,0.168-1.516,0.168-2.188s0-1.373,0-2.104c0-1.902-0.183-3.478-0.546-4.707c-0.364-1.23-0.87-2.213-1.513-2.941
		c-0.646-0.729-1.432-1.246-2.354-1.557c-0.926-0.307-1.921-0.463-2.984-0.463c-1.903,0-3.477,0.379-4.708,1.137
		c-1.23,0.758-2.214,1.779-2.939,3.066c-0.729,1.291-1.274,2.772-1.642,4.455c-0.364,1.684-0.604,3.444-0.714,5.297L104.506,129.773
		L104.506,129.773z"/>
	<path display="inline" d="M120.318,140.029h0.928c0.391,1.347,0.896,2.705,1.513,4.076c0.616,1.375,1.442,2.638,2.479,3.783
		c1.036,1.148,2.312,2.09,3.825,2.814c1.516,0.729,3.333,1.094,5.464,1.094c1.793,0,3.393-0.547,4.792-1.641s2.104-2.871,2.104-5.34
		c0-2.129-0.546-3.627-1.643-4.496c-1.093-0.867-2.365-1.557-3.822-2.062l-6.56-2.271c-0.841-0.278-1.752-0.631-2.729-1.051
		c-0.98-0.42-1.894-1.008-2.731-1.768c-0.842-0.756-1.524-1.723-2.061-2.898c-0.534-1.176-0.798-2.688-0.798-4.539
		c0-1.567,0.307-3.024,0.924-4.371c0.616-1.346,1.457-2.521,2.521-3.528c1.063-1.01,2.339-1.793,3.825-2.354
		c1.483-0.562,3.096-0.84,4.834-0.84c1.231,0,2.229,0.102,2.983,0.295c0.756,0.194,1.415,0.395,1.976,0.588
		c0.562,0.196,1.063,0.396,1.513,0.588c0.448,0.197,0.979,0.299,1.6,0.299c0.616,0,1.062-0.227,1.346-0.676h0.925v9.582h-0.925
		c-0.394-1.229-0.842-2.424-1.346-3.568c-0.504-1.148-1.106-2.172-1.81-3.068c-0.7-0.896-1.567-1.598-2.604-2.102
		c-1.038-0.508-2.257-0.76-3.656-0.76c-2.688,0-4.779,0.604-6.264,1.811c-1.485,1.205-2.229,2.812-2.229,4.834
		c0,1.793,0.631,3.148,1.895,4.076c1.261,0.924,3.124,1.775,5.59,2.562l6.138,2.021c2.633,0.896,4.792,2.129,6.476,3.694
		c1.681,1.566,2.521,3.646,2.521,6.224c0,1.514-0.295,3-0.884,4.457s-1.458,2.729-2.605,3.821c-1.146,1.095-2.551,1.978-4.202,2.646
		c-1.652,0.672-3.546,1.011-5.675,1.011c-1.23,0-2.367-0.125-3.401-0.38c-1.038-0.252-1.99-0.521-2.858-0.799
		c-0.869-0.276-1.668-0.547-2.396-0.799c-0.729-0.252-1.401-0.379-2.02-0.379s-1.063,0.127-1.346,0.379s-0.504,0.521-0.672,0.799
		h-0.927L120.318,140.029L120.318,140.029z"/>
	<path display="inline" d="M153.254,146.333c0-1.515,0.28-2.813,0.842-3.908c0.562-1.094,1.246-2.045,2.062-2.856
		c0.812-0.812,1.682-1.471,2.604-1.978c0.925-0.504,1.752-0.926,2.479-1.262c-3.25-2.24-4.875-5.269-4.875-9.078
		c0-1.961,0.476-3.728,1.429-5.297c0.952-1.568,2.157-2.897,3.615-3.992c1.457-1.094,3.065-1.92,4.833-2.479
		c1.765-0.561,3.46-0.84,5.086-0.84c2.521,0,4.69,0.504,6.515,1.515c1.821,1.01,3.152,1.936,3.993,2.772
		c0.616-1.062,1.523-2.047,2.729-2.941c1.205-0.896,2.703-1.346,4.498-1.346c1.121,0,2.157,0.236,3.109,0.715
		c0.952,0.479,1.43,1.5,1.43,3.066c0,1.01-0.32,1.768-0.967,2.271c-0.646,0.506-1.304,0.758-1.977,0.758
		c-0.786,0-1.348-0.225-1.684-0.674c-0.336-0.445-0.63-0.926-0.883-1.43s-0.52-0.979-0.799-1.433
		c-0.28-0.444-0.701-0.672-1.261-0.672c-0.562,0-1.138,0.237-1.726,0.715c-0.588,0.479-1.104,1.022-1.556,1.642
		c0.505,0.562,1.146,1.516,1.935,2.856c0.784,1.347,1.18,3.024,1.18,5.043c0,1.685-0.421,3.226-1.264,4.623
		c-0.84,1.401-1.945,2.635-3.317,3.699c-1.374,1.063-2.974,1.891-4.792,2.479c-1.822,0.589-3.688,0.884-5.592,0.884
		c-1.963,0-3.672-0.268-5.128-0.799c-1.458-0.533-2.577-0.994-3.36-1.389c-0.618,0.281-1.274,0.588-1.979,0.924
		s-1.345,0.758-1.935,1.264c-0.588,0.504-1.08,1.105-1.472,1.808c-0.395,0.7-0.589,1.5-0.589,2.396c0,0.84,0.168,1.541,0.505,2.104
		c0.336,0.562,0.771,0.979,1.304,1.26c0.531,0.281,1.136,0.479,1.808,0.588c0.673,0.113,1.373,0.171,2.104,0.171h13.28
		c3.923,0,7.048,0.938,9.372,2.813c2.325,1.875,3.489,4.834,3.489,8.866c0,2.468-0.534,4.709-1.599,6.728
		c-1.065,2.021-2.479,3.771-4.245,5.254c-1.767,1.484-3.797,2.636-6.095,3.447c-2.3,0.812-4.651,1.219-7.062,1.219
		c-2.187,0-4.188-0.252-6.012-0.756c-1.821-0.504-3.403-1.19-4.75-2.062c-1.346-0.871-2.396-1.922-3.151-3.151
		c-0.756-1.231-1.136-2.604-1.136-4.119c0-1.457,0.295-2.787,0.884-3.992c0.589-1.204,1.346-2.27,2.271-3.192
		c0.925-0.924,1.977-1.726,3.149-2.396c1.179-0.674,2.354-1.232,3.531-1.684v-0.168c-3.699,0-6.432-0.604-8.196-1.81
		C154.135,151.307,153.254,149.25,153.254,146.333z M165.863,154.32c-0.729,0.447-1.471,0.91-2.229,1.388
		c-0.756,0.478-1.429,1.078-2.018,1.81c-0.591,0.729-1.065,1.584-1.432,2.562c-0.365,0.979-0.546,2.197-0.546,3.656
		c0,2.02,0.353,3.686,1.051,5.002c0.7,1.313,1.6,2.383,2.689,3.193c1.093,0.812,2.312,1.387,3.657,1.724
		c1.345,0.339,2.66,0.507,3.949,0.507c2.02,0,3.854-0.311,5.508-0.928c1.649-0.615,3.082-1.441,4.286-2.479s2.13-2.229,2.772-3.57
		c0.645-1.346,0.967-2.746,0.967-4.203c0-3.141-0.854-5.366-2.562-6.684c-1.71-1.316-4.049-1.979-7.021-1.979H165.863
		L165.863,154.32z M179.482,127c0-1.289-0.084-2.592-0.252-3.908s-0.52-2.521-1.051-3.613c-0.533-1.096-1.346-1.979-2.438-2.647
		c-1.096-0.674-2.564-1.011-4.413-1.011c-2.857,0-5.019,0.871-6.476,2.605c-1.458,1.738-2.187,4.598-2.187,8.574
		c0,1.684,0.126,3.191,0.378,4.539c0.252,1.346,0.714,2.51,1.388,3.486c0.672,0.979,1.567,1.727,2.689,2.229
		c1.12,0.504,2.549,0.758,4.287,0.758c2.914,0,4.984-0.91,6.221-2.729C178.865,133.458,179.482,130.7,179.482,127z"/>
	<path display="inline" d="M197,150.622h6.474v-33.709H197v-1.179h13.702v34.888h6.473v1.178H197V150.622z M202.464,96.148
		c0-1.231,0.435-2.282,1.304-3.151c0.867-0.867,1.919-1.304,3.151-1.304c1.229,0,2.283,0.437,3.149,1.304
		c0.868,0.871,1.306,1.92,1.306,3.151c0,1.23-0.438,2.283-1.306,3.15c-0.867,0.869-1.92,1.305-3.149,1.305
		c-1.232,0-2.284-0.436-3.151-1.305C202.898,98.432,202.464,97.379,202.464,96.148z"/>
	<path display="inline" d="M221.706,150.622h6.474v-33.709h-6.474v-1.179h13.534v8.996h0.168c0.336-0.729,0.823-1.651,1.471-2.772
		c0.645-1.121,1.523-2.215,2.646-3.278c1.121-1.062,2.521-1.978,4.203-2.73c1.685-0.756,3.729-1.135,6.14-1.135
		c3.696,0,6.711,0.896,9.034,2.688c2.325,1.795,3.488,4.65,3.488,8.576v24.545h6.473v1.178H248.69v-1.178h6.476v-27.152
		c0-2.188-0.521-3.979-1.558-5.381c-1.038-1.398-2.646-2.104-4.833-2.104c-1.794,0-3.503,0.395-5.128,1.178
		c-1.626,0.785-3.056,1.879-4.287,3.277c-1.23,1.399-2.197,3.057-2.897,4.959c-0.701,1.906-1.051,3.979-1.051,6.223v18.998h6.473
		v1.178h-20.175L221.706,150.622L221.706,150.622z"/>
</g>
<rect x="10.001" y="10.001" display="none" fill="#EDEDED" width="267.928" height="150.877"/>
<g>
	<g>
		<line fill="none" stroke="#FBB03B" stroke-width="0.3" stroke-miterlimit="10" x1="270.131" y1="33.94" x2="287.93" y2="33.94"/>
		<line fill="none" x1="270.131" y1="33.94" x2="287.93" y2="33.94"/>
	</g>
	<g>
		
			<line fill="none" stroke="#FBB03B" stroke-width="0.3" stroke-miterlimit="10" x1="270.131" y1="36.133" x2="287.93" y2="36.133"/>
		<line fill="none" x1="270.131" y1="36.133" x2="287.93" y2="36.133"/>
	</g>
	<g>
		
			<line fill="none" stroke="#FBB03B" stroke-width="0.3" stroke-miterlimit="10" x1="270.131" y1="38.326" x2="287.93" y2="38.326"/>
		<line fill="none" x1="270.131" y1="38.326" x2="287.93" y2="38.326"/>
	</g>
	<g>
		
			<line fill="none" stroke="#FBB03B" stroke-width="0.3" stroke-miterlimit="10" x1="270.131" y1="40.519" x2="287.93" y2="40.519"/>
		<line fill="none" x1="270.131" y1="40.519" x2="287.93" y2="40.519"/>
	</g>
	<g>
		
			<line fill="none" stroke="#FBB03B" stroke-width="0.3" stroke-miterlimit="10" x1="270.131" y1="42.712" x2="287.93" y2="42.712"/>
		<line fill="none" x1="270.131" y1="42.712" x2="287.93" y2="42.712"/>
	</g>
	<g>
		
			<line fill="none" stroke="#FBB03B" stroke-width="0.3" stroke-miterlimit="10" x1="270.131" y1="44.905" x2="287.93" y2="44.905"/>
		<line fill="none" x1="270.131" y1="44.905" x2="287.93" y2="44.905"/>
	</g>
	<g>
		
			<line fill="none" stroke="#FBB03B" stroke-width="0.3" stroke-miterlimit="10" x1="270.131" y1="47.098" x2="287.93" y2="47.098"/>
		<line fill="none" x1="270.131" y1="47.098" x2="287.93" y2="47.098"/>
	</g>
	<g>
		
			<line fill="none" stroke="#FBB03B" stroke-width="0.3" stroke-miterlimit="10" x1="270.131" y1="49.291" x2="287.93" y2="49.291"/>
		<line fill="none" x1="270.131" y1="49.291" x2="287.93" y2="49.291"/>
	</g>
	<g>
		
			<line fill="none" stroke="#FBB03B" stroke-width="0.3" stroke-miterlimit="10" x1="270.131" y1="51.484" x2="287.93" y2="51.484"/>
		<line fill="none" x1="270.131" y1="51.484" x2="287.93" y2="51.484"/>
	</g>
	<g>
		
			<line fill="none" stroke="#FBB03B" stroke-width="0.3" stroke-miterlimit="10" x1="270.131" y1="53.676" x2="287.93" y2="53.676"/>
		<line fill="none" x1="270.131" y1="53.676" x2="287.93" y2="53.676"/>
	</g>
	<g>
		<line fill="none" stroke="#FBB03B" stroke-width="0.3" stroke-miterlimit="10" x1="270.131" y1="55.87" x2="287.93" y2="55.87"/>
		<line fill="none" x1="270.131" y1="55.87" x2="287.93" y2="55.87"/>
	</g>
	<g>
		
			<line fill="none" stroke="#FBB03B" stroke-width="0.3" stroke-miterlimit="10" x1="270.131" y1="58.063" x2="287.93" y2="58.063"/>
		<line fill="none" x1="270.131" y1="58.063" x2="287.93" y2="58.063"/>
	</g>
	<g>
		
			<line fill="none" stroke="#FBB03B" stroke-width="0.3" stroke-miterlimit="10" x1="270.131" y1="60.255" x2="287.93" y2="60.255"/>
		<line fill="none" x1="270.131" y1="60.255" x2="287.93" y2="60.255"/>
	</g>
	<g>
		
			<line fill="none" stroke="#FBB03B" stroke-width="0.3" stroke-miterlimit="10" x1="270.131" y1="62.449" x2="287.93" y2="62.449"/>
		<line fill="none" x1="270.131" y1="62.449" x2="287.93" y2="62.449"/>
	</g>
	<g>
		
			<line fill="none" stroke="#FBB03B" stroke-width="0.3" stroke-miterlimit="10" x1="270.131" y1="64.641" x2="287.93" y2="64.641"/>
		<line fill="none" x1="270.131" y1="64.641" x2="287.93" y2="64.641"/>
	</g>
	<g>
		
			<line fill="none" stroke="#FBB03B" stroke-width="0.3" stroke-miterlimit="10" x1="270.131" y1="66.834" x2="287.93" y2="66.834"/>
		<line fill="none" x1="270.131" y1="66.834" x2="287.93" y2="66.834"/>
	</g>
	<g>
		
			<line fill="none" stroke="#FBB03B" stroke-width="0.3" stroke-miterlimit="10" x1="270.131" y1="69.028" x2="287.93" y2="69.028"/>
		<line fill="none" x1="270.131" y1="69.028" x2="287.93" y2="69.028"/>
	</g>
	<g>
		
			<line fill="none" stroke="#FBB03B" stroke-width="0.3" stroke-miterlimit="10" x1="270.131" y1="71.221" x2="287.93" y2="71.221"/>
		<line fill="none" x1="270.131" y1="71.221" x2="287.93" y2="71.221"/>
	</g>
	<g>
		
			<line fill="none" stroke="#FBB03B" stroke-width="0.3" stroke-miterlimit="10" x1="270.131" y1="73.414" x2="287.93" y2="73.414"/>
		<line fill="none" x1="270.131" y1="73.414" x2="287.93" y2="73.414"/>
	</g>
	<g>
		
			<line fill="none" stroke="#FBB03B" stroke-width="0.3" stroke-miterlimit="10" x1="270.131" y1="75.606" x2="287.93" y2="75.606"/>
		<line fill="none" x1="270.131" y1="75.606" x2="287.93" y2="75.606"/>
	</g>
</g>
<line fill="none" stroke="#FBB03B" stroke-width="0.3" stroke-miterlimit="10" x1="36.847" y1="0" x2="36.847" y2="170.879"/>
<line fill="none" stroke="#FBB03B" stroke-width="0.3" stroke-miterlimit="10" x1="41.847" y1="170.879" x2="41.847" y2="0"/>
<line fill="none" stroke="#FBB03B" stroke-width="0.3" stroke-miterlimit="10" x1="78.695" y1="0" x2="78.695" y2="170.879"/>
<line fill="none" stroke="#FBB03B" stroke-width="0.3" stroke-miterlimit="10" x1="120.542" y1="0" x2="120.542" y2="170.879"/>
<line fill="none" stroke="#FBB03B" stroke-width="0.3" stroke-miterlimit="10" x1="83.695" y1="170.879" x2="83.695" y2="0"/>
<line fill="none" stroke="#FBB03B" stroke-width="0.3" stroke-miterlimit="10" x1="125.542" y1="170.879" x2="125.542" y2="0"/>
<line fill="none" stroke="#FBB03B" stroke-width="0.3" stroke-miterlimit="10" x1="162.389" y1="0" x2="162.389" y2="170.879"/>
<line fill="none" stroke="#FBB03B" stroke-width="0.3" stroke-miterlimit="10" x1="204.237" y1="0" x2="204.237" y2="170.879"/>
<line fill="none" stroke="#FBB03B" stroke-width="0.3" stroke-miterlimit="10" x1="167.389" y1="170.879" x2="167.389" y2="0"/>
<line fill="none" stroke="#FBB03B" stroke-width="0.3" stroke-miterlimit="10" x1="209.237" y1="170.879" x2="209.237" y2="0"/>
<line fill="none" stroke="#FBB03B" stroke-width="0.3" stroke-miterlimit="10" x1="246.083" y1="0" x2="246.083" y2="170.879"/>
<line fill="none" stroke="#FBB03B" stroke-width="0.3" stroke-miterlimit="10" x1="251.083" y1="170.879" x2="251.083" y2="0"/>
<text transform="matrix(1 0 0 1 83.6951 77.1074)" font-family="'Knockout-HTF30-JuniorWelterwt'" font-size="39.413">Typography</text>
<rect x="41.847" y="19.273" fill="#808080" width="36.847" height="3.333"/>
<rect x="41.847" y="25.273" fill="#808080" width="36.847" height="3.333"/>
<rect x="83.695" y="19.273" fill="#808080" width="36.848" height="3.333"/>
<rect x="83.695" y="25.273" fill="#808080" width="36.848" height="3.333"/>
<rect x="83.695" y="31.273" fill="#808080" width="36.848" height="3.333"/>
<rect x="83.695" y="37.273" fill="#808080" width="36.848" height="3.333"/>
<rect x="125.542" y="19.273" fill="#808080" width="36.847" height="3.333"/>
<rect x="125.542" y="25.273" fill="#808080" width="36.847" height="3.333"/>
<rect x="125.542" y="31.273" fill="#808080" width="36.847" height="3.333"/>
<rect x="125.542" y="37.273" fill="#808080" width="36.847" height="3.333"/>
<rect x="125.542" y="94.939" fill="#808080" width="78.694" height="3.334"/>
<rect x="125.542" y="100.939" fill="#808080" width="78.694" height="3.334"/>
<rect x="125.542" y="106.939" fill="#808080" width="78.694" height="3.334"/>
<rect x="125.542" y="112.939" fill="#808080" width="78.694" height="3.334"/>
<rect x="125.542" y="118.939" fill="#808080" width="78.694" height="3.334"/>
<rect x="125.542" y="124.939" fill="#808080" width="78.694" height="3.334"/>
<rect x="125.542" y="130.939" fill="#808080" width="78.694" height="3.334"/>
<rect x="209.237" y="112.939" fill="#808080" width="55.897" height="3.334"/>
<rect x="209.237" y="118.939" fill="#808080" width="55.897" height="3.334"/>
<rect x="209.237" y="124.939" fill="#808080" width="55.897" height="3.334"/>
<rect x="209.237" y="130.939" fill="#808080" width="55.897" height="3.334"/>
<rect x="167.389" y="136.939" fill="#808080" width="97.745" height="3.334"/>
<rect x="167.389" y="142.939" fill="#808080" width="97.745" height="3.334"/>
<rect x="167.389" y="148.939" fill="#808080" width="97.745" height="3.334"/>
</svg>
