<?xml version="1.0" encoding="utf-8"?>
<!-- Generator: Adobe Illustrator 15.0.0, SVG Export Plug-In . SVG Version: 6.00 Build 0)  -->
<!DOCTYPE svg PUBLIC "-//W3C//DTD SVG 1.1//EN" "http://www.w3.org/Graphics/SVG/1.1/DTD/svg11.dtd">
<svg version="1.1" id="Layer_1" xmlns="http://www.w3.org/2000/svg" xmlns:xlink="http://www.w3.org/1999/xlink" x="0px" y="0px"
	 width="287.93px" height="170.879px" viewBox="0 0 287.93 170.879" enable-background="new 0 0 287.93 170.879"
	 xml:space="preserve">
<g display="none">
	<path display="inline" d="M23.663,59.621h9.331v-57.5h-4.875c-1.122,0-2.387,0.099-3.783,0.294
		c-1.401,0.197-2.815,0.743-4.246,1.639c-1.429,0.897-2.803,2.312-4.118,4.245c-1.317,1.934-2.452,4.61-3.404,8.028h-0.925V0.945
		h51.109v15.383h-0.924c-0.954-3.417-2.088-6.094-3.405-8.028c-1.316-1.934-2.689-3.348-4.118-4.245
		c-1.43-0.896-2.846-1.442-4.245-1.639c-1.397-0.196-2.663-0.294-3.783-0.294H41.4v57.5h9.331v1.177H23.663V59.621z"/>
	<path display="inline" d="M55.707,24.735h20.597v1.177h-7.062l10.844,26.396l11.35-26.396h-6.979v-1.177h12.858v1.177h-4.539
		L78.909,58.36c-1.065,2.411-2.074,4.834-3.026,7.271c-0.953,2.438-1.905,4.889-2.857,7.355c-0.783,2.018-1.566,3.783-2.354,5.296
		c-0.786,1.513-1.611,2.745-2.479,3.699c-0.867,0.952-1.808,1.667-2.812,2.144c-1.009,0.476-2.188,0.714-3.53,0.714
		c-1.627,0-2.93-0.252-3.909-0.756c-0.979-0.504-1.752-1.093-2.312-1.766c-0.562-0.672-0.926-1.374-1.094-2.102
		c-0.168-0.729-0.255-1.345-0.255-1.849c0-1.401,0.396-2.452,1.181-3.152c0.783-0.702,1.732-1.051,2.854-1.051
		c0.396,0,0.812,0.042,1.265,0.126c0.444,0.084,0.864,0.238,1.261,0.462c0.393,0.223,0.729,0.532,1.01,0.925
		c0.279,0.391,0.42,0.868,0.42,1.429c0,0.784-0.238,1.526-0.716,2.228c-0.478,0.7-0.714,1.471-0.714,2.312
		c0,0.728,0.195,1.205,0.588,1.429c0.393,0.223,0.926,0.336,1.598,0.336c0.896,0,1.728-0.21,2.479-0.631
		c0.756-0.421,1.499-1.107,2.229-2.06c0.729-0.954,1.457-2.2,2.188-3.741c0.729-1.542,1.541-3.434,2.438-5.674l3.698-9.415
		L61.507,25.912h-5.8V24.735z"/>
	<path display="inline" d="M100.562,83.159h6.477V25.912h-6.477v-1.177h13.534v7.061h0.168c0.841-2.354,2.229-4.3,4.16-5.842
		c1.935-1.541,4.441-2.312,7.521-2.312c2.408,0,4.682,0.519,6.812,1.555c2.13,1.038,4.007,2.41,5.633,4.119
		c1.625,1.71,2.914,3.713,3.866,6.011c0.952,2.299,1.43,4.708,1.43,7.229c0,2.578-0.491,5.031-1.472,7.355
		c-0.98,2.326-2.312,4.386-3.992,6.179c-1.682,1.794-3.63,3.223-5.843,4.287c-2.215,1.064-4.554,1.597-7.021,1.597
		c-1.902,0-3.519-0.323-4.833-0.967c-1.313-0.644-2.396-1.4-3.232-2.27c-0.844-0.868-1.485-1.765-1.938-2.69
		c-0.448-0.925-0.756-1.667-0.925-2.228h-0.168v29.338h6.473v1.177H100.56L100.562,83.159L100.562,83.159z M135.28,41.547
		c0-2.577-0.141-4.889-0.42-6.935c-0.277-2.045-0.771-3.796-1.471-5.254c-0.702-1.457-1.683-2.577-2.942-3.363
		c-1.261-0.784-2.869-1.177-4.829-1.177c-2.074,0-3.783,0.365-5.132,1.093c-1.345,0.729-2.438,1.654-3.274,2.774
		c-0.618,0.786-1.106,1.626-1.475,2.522c-0.361,0.897-0.656,1.962-0.883,3.194c-0.226,1.233-0.378,2.648-0.462,4.245
		s-0.126,3.489-0.126,5.674c0,1.85,0.139,3.755,0.42,5.716c0.279,1.962,0.812,3.741,1.601,5.338c0.78,1.597,1.891,2.9,3.316,3.909
		c1.433,1.009,3.32,1.513,5.674,1.513c2.301,0,4.119-0.448,5.468-1.345c1.345-0.896,2.354-2.186,3.022-3.867
		c0.673-1.681,1.093-3.712,1.261-6.095C135.196,47.11,135.28,44.462,135.28,41.547z"/>
	<path display="inline" d="M158.801,39.95c0,0.561-0.015,1.135-0.042,1.723c-0.028,0.588-0.042,1.332-0.042,2.228
		c0,1.85,0.112,3.783,0.336,5.801c0.224,2.018,0.715,3.839,1.472,5.464c0.756,1.626,1.877,2.971,3.361,4.035
		c1.484,1.065,3.461,1.597,5.928,1.597c2.465,0,4.497-0.364,6.099-1.093c1.597-0.728,2.854-1.61,3.779-2.648
		c0.929-1.037,1.609-2.087,2.062-3.152c0.448-1.064,0.784-1.934,1.009-2.606l1.262,0.252c-0.168,0.618-0.488,1.5-0.967,2.648
		c-0.478,1.149-1.23,2.299-2.271,3.447c-1.038,1.149-2.438,2.158-4.203,3.026c-1.77,0.868-4.051,1.303-6.854,1.303
		s-5.396-0.449-7.772-1.345c-2.387-0.896-4.441-2.186-6.183-3.867c-1.734-1.681-3.083-3.684-4.031-6.01
		c-0.954-2.325-1.433-4.918-1.433-7.776c0-2.465,0.489-4.861,1.475-7.188c0.979-2.325,2.321-4.384,4.031-6.179
		c1.709-1.793,3.712-3.236,6.014-4.329c2.297-1.093,4.763-1.639,7.396-1.639c1.567,0,3.25,0.281,5.043,0.84
		c1.793,0.561,3.46,1.471,5.002,2.732c1.541,1.261,2.829,2.929,3.867,5.002c1.036,2.074,1.555,4.652,1.555,7.734H158.801z
		 M176.118,38.773c0.108-0.784,0.168-1.513,0.168-2.186c0-0.672,0-1.373,0-2.102c0-1.904-0.187-3.474-0.546-4.708
		c-0.365-1.232-0.87-2.213-1.517-2.942c-0.646-0.728-1.43-1.247-2.354-1.555c-0.928-0.308-1.92-0.462-2.983-0.462
		c-1.906,0-3.477,0.378-4.708,1.135c-1.229,0.756-2.215,1.78-2.938,3.068c-0.729,1.29-1.275,2.774-1.643,4.455
		c-0.365,1.682-0.604,3.447-0.715,5.296L176.118,38.773L176.118,38.773z"/>
	<path display="inline" d="M10.97,150.622h9.33V93.124h-9.33v-1.179h15.636c0.784,0,1.567-0.014,2.354-0.043
		c0.784-0.026,1.564-0.067,2.354-0.125c0.784,0,1.567-0.014,2.354-0.043c0.784-0.024,1.564-0.041,2.354-0.041
		c1.685,0,3.184,0.029,4.498,0.084c1.315,0.058,2.549,0.154,3.698,0.293c1.148,0.144,2.241,0.339,3.278,0.591
		s2.145,0.573,3.317,0.967c3.417,1.121,6.374,2.621,8.869,4.498c2.493,1.877,4.539,4.049,6.137,6.517
		c1.6,2.467,2.773,5.153,3.53,8.067s1.135,5.97,1.135,9.162c0,3.698-0.445,7.021-1.345,9.963c-0.896,2.94-2.13,5.547-3.699,7.815
		c-1.566,2.271-3.401,4.229-5.506,5.886c-2.103,1.653-4.354,2.983-6.768,3.993c-1.346,0.617-2.621,1.093-3.824,1.429
		c-1.206,0.338-2.438,0.59-3.699,0.758s-2.646,0.279-4.161,0.336c-1.513,0.058-3.251,0.084-5.212,0.084
		c-0.841,0-1.734-0.014-2.688-0.04c-0.954-0.029-1.905-0.07-2.857-0.128c-0.954-0.057-1.893-0.098-2.812-0.127
		c-0.928-0.026-1.811-0.041-2.647-0.041H10.97V150.622z M28.707,150.622c0.952,0.112,2.061,0.196,3.316,0.252
		c1.265,0.06,2.647,0.084,4.161,0.084c1.904,0,3.796-0.099,5.674-0.293c1.877-0.195,3.674-0.617,5.384-1.263
		c1.708-0.646,3.306-1.567,4.792-2.772c1.48-1.205,2.812-2.787,3.989-4.75c1.792-3.024,3.039-6.121,3.741-9.289
		c0.699-3.166,1.051-6.627,1.051-10.381c0-4.428-0.42-8.449-1.261-12.062c-0.841-3.613-2.229-6.695-4.161-9.248
		c-1.934-2.549-4.497-4.523-7.688-5.926c-3.194-1.398-7.146-2.104-11.854-2.104c-1.398,0-2.678,0.025-3.825,0.084
		c-1.146,0.055-2.256,0.109-3.316,0.168L28.707,150.622L28.707,150.622z"/>
	<path display="inline" d="M87.189,130.952c0,0.562-0.016,1.135-0.042,1.723c-0.025,0.591-0.042,1.332-0.042,2.229
		c0,1.851,0.111,3.783,0.336,5.802c0.227,2.021,0.714,3.84,1.475,5.465c0.756,1.625,1.877,2.972,3.358,4.035
		c1.483,1.063,3.46,1.599,5.931,1.599c2.465,0,4.497-0.363,6.095-1.095c1.598-0.729,2.854-1.608,3.783-2.646
		c0.925-1.037,1.606-2.088,2.061-3.15c0.447-1.062,0.783-1.936,1.009-2.605l1.265,0.252c-0.168,0.619-0.491,1.5-0.971,2.646
		c-0.478,1.148-1.229,2.299-2.271,3.445c-1.04,1.146-2.438,2.158-4.202,3.024c-1.767,0.868-4.051,1.304-6.852,1.304
		c-2.807,0-5.396-0.447-7.776-1.344c-2.383-0.896-4.441-2.188-6.179-3.867c-1.738-1.684-3.083-3.688-4.035-6.014
		c-0.954-2.322-1.429-4.918-1.429-7.773c0-2.465,0.486-4.859,1.471-7.188c0.979-2.321,2.325-4.385,4.035-6.178
		c1.709-1.793,3.712-3.236,6.01-4.33c2.298-1.095,4.764-1.642,7.396-1.642c1.568,0,3.25,0.281,5.047,0.84
		c1.793,0.562,3.46,1.474,5.002,2.731c1.541,1.263,2.825,2.931,3.863,5.003c1.037,2.073,1.559,4.651,1.559,7.733H87.189
		L87.189,130.952z M104.506,129.773c0.112-0.782,0.168-1.517,0.168-2.188s0-1.373,0-2.104c0-1.901-0.183-3.478-0.546-4.707
		c-0.364-1.229-0.87-2.213-1.513-2.94c-0.646-0.729-1.433-1.246-2.354-1.558c-0.926-0.307-1.921-0.463-2.984-0.463
		c-1.902,0-3.477,0.379-4.708,1.138c-1.229,0.758-2.214,1.778-2.938,3.065c-0.729,1.291-1.274,2.772-1.643,4.455
		c-0.363,1.684-0.604,3.444-0.714,5.297L104.506,129.773L104.506,129.773z"/>
	<path display="inline" d="M120.318,140.029h0.929c0.391,1.347,0.896,2.705,1.513,4.076c0.616,1.375,1.442,2.638,2.479,3.783
		c1.036,1.147,2.312,2.09,3.825,2.813c1.517,0.729,3.333,1.094,5.464,1.094c1.793,0,3.394-0.547,4.792-1.642
		c1.399-1.094,2.104-2.87,2.104-5.34c0-2.129-0.546-3.627-1.644-4.496c-1.093-0.866-2.364-1.557-3.821-2.062l-6.561-2.271
		c-0.841-0.278-1.752-0.631-2.729-1.051c-0.98-0.42-1.895-1.009-2.731-1.769c-0.842-0.756-1.523-1.724-2.061-2.897
		c-0.534-1.177-0.798-2.688-0.798-4.539c0-1.567,0.307-3.024,0.924-4.371c0.616-1.346,1.457-2.521,2.521-3.528
		c1.063-1.011,2.339-1.793,3.825-2.354c1.483-0.562,3.096-0.84,4.834-0.84c1.231,0,2.229,0.103,2.983,0.295
		c0.756,0.194,1.415,0.396,1.976,0.588c0.562,0.196,1.063,0.396,1.513,0.588c0.448,0.197,0.979,0.3,1.601,0.3
		c0.616,0,1.062-0.228,1.346-0.677h0.925v9.582h-0.925c-0.394-1.229-0.842-2.424-1.346-3.567c-0.504-1.147-1.106-2.172-1.811-3.068
		c-0.699-0.896-1.566-1.598-2.604-2.102c-1.038-0.509-2.257-0.761-3.656-0.761c-2.688,0-4.779,0.604-6.264,1.812
		c-1.485,1.205-2.229,2.812-2.229,4.834c0,1.793,0.632,3.147,1.896,4.076c1.261,0.924,3.124,1.774,5.59,2.562l6.138,2.021
		c2.634,0.896,4.792,2.129,6.477,3.693c1.681,1.566,2.521,3.646,2.521,6.225c0,1.514-0.295,3-0.884,4.457s-1.458,2.729-2.604,3.82
		c-1.146,1.096-2.552,1.979-4.202,2.646c-1.652,0.672-3.546,1.012-5.676,1.012c-1.229,0-2.366-0.125-3.4-0.381
		c-1.038-0.252-1.99-0.521-2.858-0.799c-0.869-0.275-1.668-0.547-2.396-0.799c-0.729-0.252-1.401-0.379-2.021-0.379
		s-1.062,0.127-1.346,0.379s-0.504,0.521-0.672,0.799h-0.927L120.318,140.029L120.318,140.029z"/>
	<path display="inline" d="M153.254,146.333c0-1.515,0.28-2.813,0.842-3.908c0.562-1.094,1.246-2.045,2.062-2.856
		c0.812-0.812,1.682-1.471,2.604-1.978c0.925-0.504,1.752-0.926,2.479-1.262c-3.25-2.24-4.875-5.269-4.875-9.078
		c0-1.961,0.476-3.728,1.429-5.297c0.952-1.568,2.157-2.897,3.615-3.992c1.457-1.094,3.064-1.92,4.833-2.479
		c1.765-0.561,3.46-0.84,5.086-0.84c2.521,0,4.689,0.504,6.515,1.516c1.821,1.01,3.152,1.936,3.993,2.771
		c0.616-1.062,1.522-2.047,2.729-2.94c1.205-0.896,2.703-1.347,4.498-1.347c1.121,0,2.157,0.236,3.109,0.715
		c0.952,0.479,1.43,1.5,1.43,3.066c0,1.01-0.319,1.768-0.967,2.271c-0.646,0.506-1.304,0.758-1.977,0.758
		c-0.786,0-1.349-0.225-1.685-0.674c-0.336-0.445-0.63-0.926-0.883-1.43s-0.521-0.979-0.799-1.434
		c-0.28-0.443-0.701-0.672-1.261-0.672c-0.562,0-1.139,0.236-1.727,0.715s-1.104,1.021-1.556,1.643
		c0.505,0.562,1.146,1.516,1.935,2.855c0.784,1.348,1.181,3.023,1.181,5.043c0,1.686-0.422,3.227-1.265,4.623
		c-0.84,1.4-1.945,2.635-3.316,3.699c-1.374,1.062-2.975,1.891-4.792,2.479c-1.822,0.59-3.688,0.885-5.593,0.885
		c-1.963,0-3.672-0.269-5.128-0.799c-1.458-0.533-2.577-0.994-3.359-1.39c-0.618,0.28-1.274,0.588-1.979,0.924
		s-1.345,0.759-1.935,1.265c-0.588,0.504-1.08,1.104-1.473,1.808c-0.395,0.7-0.589,1.5-0.589,2.396c0,0.84,0.168,1.541,0.505,2.104
		c0.336,0.562,0.771,0.979,1.305,1.26c0.53,0.281,1.136,0.479,1.808,0.588c0.673,0.113,1.373,0.171,2.104,0.171h13.279
		c3.923,0,7.048,0.938,9.372,2.813c2.325,1.875,3.489,4.834,3.489,8.866c0,2.468-0.534,4.709-1.599,6.728
		c-1.065,2.021-2.479,3.771-4.245,5.254c-1.768,1.484-3.797,2.636-6.096,3.447c-2.3,0.812-4.65,1.219-7.062,1.219
		c-2.188,0-4.188-0.252-6.012-0.756c-1.821-0.504-3.403-1.19-4.75-2.062s-2.396-1.922-3.151-3.151
		c-0.756-1.231-1.136-2.604-1.136-4.119c0-1.457,0.295-2.787,0.884-3.992c0.589-1.204,1.346-2.27,2.271-3.192
		c0.926-0.924,1.978-1.726,3.149-2.396c1.179-0.674,2.354-1.231,3.531-1.685v-0.168c-3.699,0-6.433-0.604-8.196-1.81
		C154.135,151.307,153.254,149.25,153.254,146.333z M165.863,154.32c-0.729,0.447-1.471,0.91-2.229,1.388
		c-0.756,0.478-1.429,1.078-2.018,1.81c-0.592,0.729-1.065,1.584-1.433,2.562c-0.365,0.979-0.546,2.197-0.546,3.656
		c0,2.02,0.354,3.686,1.051,5.002c0.7,1.312,1.601,2.383,2.689,3.193c1.093,0.812,2.312,1.387,3.657,1.723
		c1.345,0.34,2.659,0.508,3.948,0.508c2.021,0,3.854-0.311,5.509-0.928c1.648-0.615,3.082-1.441,4.285-2.479
		c1.204-1.038,2.131-2.229,2.772-3.569c0.645-1.347,0.967-2.746,0.967-4.203c0-3.142-0.854-5.366-2.562-6.685
		c-1.71-1.315-4.05-1.979-7.021-1.979h-9.071V154.32z M179.482,127c0-1.289-0.084-2.592-0.252-3.908s-0.52-2.521-1.051-3.613
		c-0.533-1.096-1.346-1.979-2.438-2.646c-1.097-0.674-2.564-1.012-4.413-1.012c-2.857,0-5.02,0.871-6.477,2.605
		c-1.458,1.738-2.187,4.598-2.187,8.574c0,1.684,0.126,3.191,0.378,4.539c0.252,1.346,0.714,2.51,1.388,3.486
		c0.672,0.979,1.567,1.727,2.689,2.229c1.12,0.504,2.549,0.758,4.287,0.758c2.913,0,4.983-0.91,6.221-2.729
		C178.865,133.458,179.482,130.7,179.482,127z"/>
	<path display="inline" d="M197,150.622h6.474v-33.709H197v-1.179h13.702v34.888h6.473v1.178H197V150.622z M202.464,96.148
		c0-1.231,0.435-2.282,1.304-3.151c0.867-0.867,1.919-1.304,3.151-1.304c1.229,0,2.283,0.437,3.148,1.304
		c0.868,0.871,1.307,1.92,1.307,3.151c0,1.229-0.438,2.283-1.307,3.149c-0.866,0.869-1.92,1.306-3.148,1.306
		c-1.232,0-2.284-0.437-3.151-1.306C202.898,98.432,202.464,97.379,202.464,96.148z"/>
	<path display="inline" d="M221.706,150.622h6.474v-33.709h-6.474v-1.179h13.534v8.996h0.168c0.336-0.729,0.822-1.651,1.471-2.772
		c0.645-1.121,1.522-2.215,2.646-3.278c1.121-1.062,2.521-1.978,4.203-2.729c1.686-0.757,3.729-1.136,6.141-1.136
		c3.695,0,6.711,0.896,9.033,2.688c2.325,1.795,3.488,4.649,3.488,8.576v24.545h6.473v1.178H248.69v-1.178h6.477v-27.151
		c0-2.188-0.521-3.979-1.559-5.382c-1.038-1.397-2.646-2.104-4.833-2.104c-1.794,0-3.503,0.396-5.128,1.179
		c-1.626,0.785-3.056,1.879-4.287,3.276c-1.229,1.399-2.196,3.058-2.896,4.959c-0.701,1.906-1.051,3.979-1.051,6.224v18.998h6.473
		v1.178H221.71L221.706,150.622L221.706,150.622z"/>
</g>
<rect x="10.001" y="10.001" display="none" fill="#EDEDED" width="267.928" height="150.877"/>
<g>
	<g>
		<line fill="none" stroke="#FBB03B" stroke-width="0.3" stroke-miterlimit="10" x1="270.131" y1="33.94" x2="287.93" y2="33.94"/>
		<line fill="none" x1="270.131" y1="33.94" x2="287.93" y2="33.94"/>
	</g>
	<g>
		
			<line fill="none" stroke="#FBB03B" stroke-width="0.3" stroke-miterlimit="10" x1="270.131" y1="36.133" x2="287.93" y2="36.133"/>
		<line fill="none" x1="270.131" y1="36.133" x2="287.93" y2="36.133"/>
	</g>
	<g>
		
			<line fill="none" stroke="#FBB03B" stroke-width="0.3" stroke-miterlimit="10" x1="270.131" y1="38.326" x2="287.93" y2="38.326"/>
		<line fill="none" x1="270.131" y1="38.326" x2="287.93" y2="38.326"/>
	</g>
	<g>
		
			<line fill="none" stroke="#FBB03B" stroke-width="0.3" stroke-miterlimit="10" x1="270.131" y1="40.519" x2="287.93" y2="40.519"/>
		<line fill="none" x1="270.131" y1="40.519" x2="287.93" y2="40.519"/>
	</g>
	<g>
		
			<line fill="none" stroke="#FBB03B" stroke-width="0.3" stroke-miterlimit="10" x1="270.131" y1="42.712" x2="287.93" y2="42.712"/>
		<line fill="none" x1="270.131" y1="42.712" x2="287.93" y2="42.712"/>
	</g>
	<g>
		
			<line fill="none" stroke="#FBB03B" stroke-width="0.3" stroke-miterlimit="10" x1="270.131" y1="44.905" x2="287.93" y2="44.905"/>
		<line fill="none" x1="270.131" y1="44.905" x2="287.93" y2="44.905"/>
	</g>
	<g>
		
			<line fill="none" stroke="#FBB03B" stroke-width="0.3" stroke-miterlimit="10" x1="270.131" y1="47.098" x2="287.93" y2="47.098"/>
		<line fill="none" x1="270.131" y1="47.098" x2="287.93" y2="47.098"/>
	</g>
	<g>
		
			<line fill="none" stroke="#FBB03B" stroke-width="0.3" stroke-miterlimit="10" x1="270.131" y1="49.291" x2="287.93" y2="49.291"/>
		<line fill="none" x1="270.131" y1="49.291" x2="287.93" y2="49.291"/>
	</g>
	<g>
		
			<line fill="none" stroke="#FBB03B" stroke-width="0.3" stroke-miterlimit="10" x1="270.131" y1="51.484" x2="287.93" y2="51.484"/>
		<line fill="none" x1="270.131" y1="51.484" x2="287.93" y2="51.484"/>
	</g>
	<g>
		
			<line fill="none" stroke="#FBB03B" stroke-width="0.3" stroke-miterlimit="10" x1="270.131" y1="53.676" x2="287.93" y2="53.676"/>
		<line fill="none" x1="270.131" y1="53.676" x2="287.93" y2="53.676"/>
	</g>
	<g>
		<line fill="none" stroke="#FBB03B" stroke-width="0.3" stroke-miterlimit="10" x1="270.131" y1="55.87" x2="287.93" y2="55.87"/>
		<line fill="none" x1="270.131" y1="55.87" x2="287.93" y2="55.87"/>
	</g>
	<g>
		
			<line fill="none" stroke="#FBB03B" stroke-width="0.3" stroke-miterlimit="10" x1="270.131" y1="58.063" x2="287.93" y2="58.063"/>
		<line fill="none" x1="270.131" y1="58.063" x2="287.93" y2="58.063"/>
	</g>
	<g>
		
			<line fill="none" stroke="#FBB03B" stroke-width="0.3" stroke-miterlimit="10" x1="270.131" y1="60.255" x2="287.93" y2="60.255"/>
		<line fill="none" x1="270.131" y1="60.255" x2="287.93" y2="60.255"/>
	</g>
	<g>
		
			<line fill="none" stroke="#FBB03B" stroke-width="0.3" stroke-miterlimit="10" x1="270.131" y1="62.449" x2="287.93" y2="62.449"/>
		<line fill="none" x1="270.131" y1="62.449" x2="287.93" y2="62.449"/>
	</g>
	<g>
		
			<line fill="none" stroke="#FBB03B" stroke-width="0.3" stroke-miterlimit="10" x1="270.131" y1="64.641" x2="287.93" y2="64.641"/>
		<line fill="none" x1="270.131" y1="64.641" x2="287.93" y2="64.641"/>
	</g>
	<g>
		
			<line fill="none" stroke="#FBB03B" stroke-width="0.3" stroke-miterlimit="10" x1="270.131" y1="66.834" x2="287.93" y2="66.834"/>
		<line fill="none" x1="270.131" y1="66.834" x2="287.93" y2="66.834"/>
	</g>
	<g>
		
			<line fill="none" stroke="#FBB03B" stroke-width="0.3" stroke-miterlimit="10" x1="270.131" y1="69.028" x2="287.93" y2="69.028"/>
		<line fill="none" x1="270.131" y1="69.028" x2="287.93" y2="69.028"/>
	</g>
	<g>
		
			<line fill="none" stroke="#FBB03B" stroke-width="0.3" stroke-miterlimit="10" x1="270.131" y1="71.221" x2="287.93" y2="71.221"/>
		<line fill="none" x1="270.131" y1="71.221" x2="287.93" y2="71.221"/>
	</g>
	<g>
		
			<line fill="none" stroke="#FBB03B" stroke-width="0.3" stroke-miterlimit="10" x1="270.131" y1="73.414" x2="287.93" y2="73.414"/>
		<line fill="none" x1="270.131" y1="73.414" x2="287.93" y2="73.414"/>
	</g>
	<g>
		
			<line fill="none" stroke="#FBB03B" stroke-width="0.3" stroke-miterlimit="10" x1="270.131" y1="75.606" x2="287.93" y2="75.606"/>
		<line fill="none" x1="270.131" y1="75.606" x2="287.93" y2="75.606"/>
	</g>
</g>
<line fill="none" stroke="#FBB03B" stroke-width="0.3" stroke-miterlimit="10" x1="36.847" y1="0" x2="36.847" y2="170.879"/>
<line fill="none" stroke="#FBB03B" stroke-width="0.3" stroke-miterlimit="10" x1="41.847" y1="170.879" x2="41.847" y2="0"/>
<line fill="none" stroke="#FBB03B" stroke-width="0.3" stroke-miterlimit="10" x1="78.695" y1="0" x2="78.695" y2="170.879"/>
<line fill="none" stroke="#FBB03B" stroke-width="0.3" stroke-miterlimit="10" x1="120.542" y1="0" x2="120.542" y2="170.879"/>
<line fill="none" stroke="#FBB03B" stroke-width="0.3" stroke-miterlimit="10" x1="83.695" y1="170.879" x2="83.695" y2="0"/>
<line fill="none" stroke="#FBB03B" stroke-width="0.3" stroke-miterlimit="10" x1="125.542" y1="170.879" x2="125.542" y2="0"/>
<line fill="none" stroke="#FBB03B" stroke-width="0.3" stroke-miterlimit="10" x1="162.389" y1="0" x2="162.389" y2="170.879"/>
<line fill="none" stroke="#FBB03B" stroke-width="0.3" stroke-miterlimit="10" x1="204.237" y1="0" x2="204.237" y2="170.879"/>
<line fill="none" stroke="#FBB03B" stroke-width="0.3" stroke-miterlimit="10" x1="167.389" y1="170.879" x2="167.389" y2="0"/>
<line fill="none" stroke="#FBB03B" stroke-width="0.3" stroke-miterlimit="10" x1="209.237" y1="170.879" x2="209.237" y2="0"/>
<line fill="none" stroke="#FBB03B" stroke-width="0.3" stroke-miterlimit="10" x1="246.083" y1="0" x2="246.083" y2="170.879"/>
<line fill="none" stroke="#FBB03B" stroke-width="0.3" stroke-miterlimit="10" x1="251.083" y1="170.879" x2="251.083" y2="0"/>
<g enable-background="new    ">
	<path d="M94.771,54.642v22.466h-4.178V54.642h-6.385v-3.783h16.948v3.783H94.771z"/>
	<path d="M108.132,78.014c-0.985,3.271-1.892,5.439-5.636,5.439h-1.576v-2.799h1.182c1.931,0,2.286-0.552,2.68-1.812l0.276-0.985
		l-5.833-19.194h3.744l2.68,10.169l0.985,4.178l0.985-4.178l2.641-10.169h3.744L108.132,78.014z"/>
	<path d="M125.198,77.462c-2.286,0-3.587-0.591-4.927-2.246v8.119h-3.744V58.662h2.68l0.237,2.838
		c0.946-2.365,3.114-3.153,5.045-3.153c3.35,0,5.597,2.364,5.597,6.148v7.213C130.085,75.058,127.878,77.462,125.198,77.462z
		 M126.419,64.968c0-2.641-1.064-3.823-3.035-3.823c-1.577,0-3.114,1.183-3.114,3.627v6.029c0,2.247,1.182,3.587,3.114,3.587
		c1.971,0,3.035-1.143,3.035-3.823V64.968z"/>
	<path d="M140.45,77.423c-4.178,0-6.7-2.562-6.7-6.779v-5.518c0-4.178,2.522-6.818,6.7-6.818c4.138,0,6.662,2.641,6.662,6.818v5.518
		C147.112,74.861,144.588,77.423,140.45,77.423z M143.446,64.456c0-1.853-1.064-3.153-2.996-3.153c-1.971,0-3.035,1.301-3.035,3.153
		v6.818c0,1.892,1.064,3.153,3.035,3.153c1.931,0,2.996-1.262,2.996-3.153V64.456z"/>
	<path d="M163.625,60.633c-0.473,0-1.025,0.039-1.576-0.315c1.3,1.064,1.931,2.443,1.931,3.862v0.354
		c0,3.39-2.562,5.755-6.503,5.755c-0.395,0-1.616-0.158-1.932-0.236c-1.064,0-1.812,0.906-1.812,1.537
		c0,0.945,0.984,1.615,4.809,1.615c4.65,0,6.66,1.774,6.66,4.336v0.395c0,3.034-2.838,5.754-7.449,5.754
		c-4.178,0-7.606-1.853-7.606-4.611v-0.236c0-1.655,1.063-2.838,3.547-3.39c-2.089-0.473-3.074-1.695-3.074-2.956
		c0-1.38,1.419-2.838,3.153-3.113c-1.773-0.946-2.76-2.76-2.76-4.967v-0.118c0-3.35,2.878-5.99,6.465-5.99
		c1.773,0,2.68,0.512,3.074,0.512c1.892,0,2.404-1.024,2.404-2.325h2.562c0.157,0.906,0.157,1.301,0.157,1.695
		C165.674,59.963,164.571,60.633,163.625,60.633z M161.773,78.014c0-1.222-0.788-2.01-4.06-2.01c-2.956,0-4.257,0.906-4.257,2.128
		v0.237c0,1.222,1.301,2.364,4.257,2.364c2.955,0,4.06-1.261,4.06-2.483V78.014z M160.59,64.259c0-1.734-1.183-3.232-3.113-3.232
		c-1.932,0-3.114,1.498-3.114,3.232v0.157c0,1.734,1.183,3.232,3.114,3.232c1.931,0,3.113-1.498,3.113-3.232V64.259z"/>
	<path d="M171.783,64.534v12.573H168V58.662h3.074l0.314,3.744c1.104-3.587,2.996-4.454,5.834-3.862v3.626
		C173.201,61.578,171.783,62.761,171.783,64.534z"/>
	<path d="M192.475,77.423c-1.498,0-2.76-0.631-2.721-2.562c-1.261,1.615-3.231,2.562-5.398,2.562c-3.154,0-5.282-1.892-5.282-4.966
		V72.22c0-4.729,4.888-5.715,9.735-6.03v-2.325c0-1.576-0.867-2.482-2.68-2.482c-2.129,0-2.641,0.827-2.641,2.68v0.552h-3.627v-0.67
		c0-3.074,1.932-5.636,6.228-5.636c4.769,0,6.267,2.798,6.267,6.424v8.829c0,0.709,0.395,1.063,1.301,1.063v2.799H192.475z
		 M188.809,68.476c-4.217,0.315-6.188,1.301-6.188,3.626v0.118c0,1.223,0.827,2.286,2.404,2.286c1.852,0,3.783-1.182,3.783-2.995
		V68.476z"/>
	<path d="M205.56,77.462c-2.286,0-3.587-0.591-4.927-2.246v8.119h-3.744V58.662h2.68l0.236,2.838
		c0.946-2.365,3.114-3.153,5.045-3.153c3.351,0,5.598,2.364,5.598,6.148v7.213C210.448,75.058,208.24,77.462,205.56,77.462z
		 M206.781,64.968c0-2.641-1.064-3.823-3.035-3.823c-1.576,0-3.113,1.183-3.113,3.627v6.029c0,2.247,1.182,3.587,3.113,3.587
		c1.971,0,3.035-1.143,3.035-3.823V64.968z"/>
	<path d="M224.399,77.107V64.141c0-1.853-1.024-2.956-2.602-2.956c-2.285,0-3.547,3.429-3.547,4.809v11.114h-3.783V50.858h3.783
		v11.391c0.985-2.72,3.153-3.902,5.084-3.902c2.996,0,4.849,2.325,4.849,5.754v13.007H224.399z"/>
	<path d="M239.453,78.014c-0.984,3.271-1.891,5.439-5.636,5.439h-1.576v-2.799h1.183c1.931,0,2.285-0.552,2.68-1.812l0.275-0.985
		l-5.832-19.194h3.744l2.68,10.169l0.985,4.178l0.985-4.178l2.641-10.169h3.744L239.453,78.014z"/>
</g>
<g>
	<circle fill="#FBB03B" cx="48.874" cy="121.455" r="46.261"/>
	<polygon fill="#FBB03B" points="48.814,121.416 34.578,103.376 64.653,94.28 94.73,85.187 78.888,112.322 63.046,139.457 	"/>
	<g enable-background="new    ">
		<path fill="#FFFFFF" d="M16.083,103.67v6.836h-1.271v-6.836h-1.943v-1.151h5.157v1.151H16.083z"/>
		<path fill="#FFFFFF" d="M21.866,110.506v-3.946c0-0.563-0.312-0.899-0.792-0.899c-0.696,0-1.08,1.044-1.08,1.464v3.382h-1.151
			v-7.987h1.151v3.466c0.3-0.827,0.959-1.188,1.547-1.188c0.911,0,1.475,0.708,1.475,1.751v3.958H21.866z"/>
		<path fill="#FFFFFF" d="M26.223,110.602c-1.271,0-2.027-0.779-2.027-2.062v-1.68c0-1.271,0.755-2.074,2.027-2.074
			s1.931,0.804,1.931,2.074v0.864H25.3v1.007c0,0.576,0.324,0.96,0.923,0.96s0.923-0.384,0.923-0.96v-0.228h1.008v0.072
			C28.154,109.847,27.494,110.602,26.223,110.602z M27.146,106.656c0-0.564-0.324-0.96-0.923-0.96s-0.923,0.396-0.923,0.96v0.479
			h1.847V106.656z"/>
		<path fill="#FFFFFF" d="M33.47,110.602c-1.271,0-2.039-0.779-2.039-2.062v-1.68c0-1.271,0.768-2.074,2.039-2.074
			c1.26,0,2.027,0.804,2.027,2.074v1.68C35.498,109.822,34.73,110.602,33.47,110.602z M34.382,106.656
			c0-0.564-0.324-0.96-0.912-0.96c-0.6,0-0.923,0.396-0.923,0.96v2.074c0,0.576,0.324,0.96,0.923,0.96
			c0.588,0,0.912-0.384,0.912-0.96V106.656z"/>
		<path fill="#FFFFFF" d="M37.875,106.68v3.826h-1.151v-5.613h0.936l0.096,1.14c0.336-1.091,0.912-1.355,1.775-1.175v1.103
			C38.307,105.78,37.875,106.141,37.875,106.68z"/>
		<path fill="#FFFFFF" d="M44.09,105.492c-0.144,0-0.312,0.013-0.479-0.096c0.396,0.324,0.587,0.744,0.587,1.176v0.107
			c0,1.031-0.779,1.751-1.979,1.751c-0.12,0-0.492-0.048-0.587-0.071c-0.324,0-0.552,0.275-0.552,0.468
			c0,0.287,0.3,0.491,1.463,0.491c1.415,0,2.027,0.54,2.027,1.319v0.12c0,0.924-0.864,1.751-2.267,1.751
			c-1.271,0-2.314-0.563-2.314-1.403v-0.072c0-0.503,0.324-0.863,1.079-1.031c-0.635-0.144-0.935-0.516-0.935-0.899
			c0-0.42,0.432-0.863,0.959-0.947c-0.54-0.288-0.84-0.84-0.84-1.512v-0.035c0-1.02,0.875-1.823,1.967-1.823
			c0.54,0,0.816,0.156,0.936,0.156c0.576,0,0.732-0.312,0.732-0.708h0.779c0.048,0.275,0.048,0.396,0.048,0.516
			C44.714,105.289,44.378,105.492,44.09,105.492z M43.526,110.781c0-0.371-0.24-0.611-1.235-0.611c-0.899,0-1.295,0.276-1.295,0.647
			v0.072c0,0.372,0.396,0.72,1.295,0.72s1.235-0.384,1.235-0.756V110.781z M43.166,106.596c0-0.527-0.36-0.983-0.948-0.983
			c-0.587,0-0.947,0.456-0.947,0.983v0.048c0,0.528,0.36,0.983,0.947,0.983c0.588,0,0.948-0.455,0.948-0.983V106.596z"/>
		<path fill="#FFFFFF" d="M49.13,110.602c-0.456,0-0.839-0.191-0.827-0.779c-0.384,0.492-0.984,0.779-1.644,0.779
			c-0.959,0-1.607-0.575-1.607-1.511v-0.072c0-1.439,1.487-1.739,2.962-1.835v-0.707c0-0.48-0.264-0.756-0.815-0.756
			c-0.648,0-0.804,0.252-0.804,0.815v0.168h-1.104V106.5c0-0.936,0.588-1.715,1.895-1.715c1.451,0,1.907,0.852,1.907,1.955v2.687
			c0,0.216,0.12,0.323,0.396,0.323v0.852H49.13z M48.014,107.879c-1.283,0.097-1.883,0.396-1.883,1.104v0.036
			c0,0.372,0.252,0.695,0.731,0.695c0.563,0,1.151-0.359,1.151-0.911V107.879z"/>
		<path fill="#FFFFFF" d="M53.498,110.506v-3.946c0-0.563-0.312-0.899-0.792-0.899c-0.708,0-1.08,1.044-1.08,1.464v3.382h-1.151
			v-5.613h0.936l0.084,1.296c0.372-0.983,0.875-1.392,1.559-1.392c1.055,0,1.595,0.708,1.595,1.751v3.958H53.498z"/>
		<path fill="#FFFFFF" d="M55.948,110.506v-5.613h1.151v5.613H55.948z M55.984,103.922v-1.14h1.079v1.14H55.984z"/>
		<path fill="#FFFFFF" d="M59.319,109.618h2.495v0.888h-3.718v-0.72l2.603-4.006h-2.483v-0.888h3.67v0.72L59.319,109.618z"/>
		<path fill="#FFFFFF" d="M66.673,110.602c-0.456,0-0.839-0.191-0.827-0.779c-0.384,0.492-0.984,0.779-1.643,0.779
			c-0.96,0-1.607-0.575-1.607-1.511v-0.072c0-1.439,1.487-1.739,2.962-1.835v-0.707c0-0.48-0.264-0.756-0.815-0.756
			c-0.648,0-0.804,0.252-0.804,0.815v0.168h-1.104V106.5c0-0.936,0.588-1.715,1.895-1.715c1.451,0,1.907,0.852,1.907,1.955v2.687
			c0,0.216,0.12,0.323,0.396,0.323v0.852H66.673z M65.558,107.879c-1.283,0.097-1.883,0.396-1.883,1.104v0.036
			c0,0.372,0.252,0.695,0.731,0.695c0.564,0,1.151-0.359,1.151-0.911V107.879z"/>
		<path fill="#FFFFFF" d="M69.518,105.889v2.771c0,0.743,0.084,1.319,0.384,1.847h-1.211c-0.251-0.479-0.324-0.995-0.324-1.847
			v-2.771h-0.755v-0.924h0.815v-1.056l1.091-0.348v1.403h0.912v0.924H69.518z"/>
		<path fill="#FFFFFF" d="M71.367,110.506v-5.613h1.151v5.613H71.367z M71.404,103.922v-1.14h1.079v1.14H71.404z"/>
		<path fill="#FFFFFF" d="M75.77,110.602c-1.271,0-2.039-0.779-2.039-2.062v-1.68c0-1.271,0.768-2.074,2.039-2.074
			c1.259,0,2.027,0.804,2.027,2.074v1.68C77.797,109.822,77.03,110.602,75.77,110.602z M76.681,106.656
			c0-0.564-0.324-0.96-0.911-0.96c-0.6,0-0.924,0.396-0.924,0.96v2.074c0,0.576,0.324,0.96,0.924,0.96
			c0.587,0,0.911-0.384,0.911-0.96V106.656z"/>
		<path fill="#FFFFFF" d="M82.046,110.506v-3.946c0-0.563-0.312-0.899-0.792-0.899c-0.708,0-1.08,1.044-1.08,1.464v3.382h-1.151
			v-5.613h0.936l0.084,1.296c0.372-0.983,0.875-1.392,1.559-1.392c1.055,0,1.595,0.708,1.595,1.751v3.958H82.046z"/>
	</g>
	<g enable-background="new    ">
		<path fill="#FFFFFF" d="M17.198,125c-0.456,0-0.839-0.191-0.827-0.779c-0.384,0.492-0.984,0.779-1.644,0.779
			c-0.959,0-1.607-0.575-1.607-1.511v-0.072c0-1.439,1.487-1.739,2.962-1.835v-0.707c0-0.48-0.264-0.756-0.815-0.756
			c-0.648,0-0.804,0.252-0.804,0.815v0.168H13.36v-0.204c0-0.936,0.588-1.715,1.895-1.715c1.451,0,1.907,0.852,1.907,1.955v2.687
			c0,0.216,0.12,0.323,0.396,0.323V125H17.198z M16.083,122.277c-1.283,0.097-1.883,0.396-1.883,1.104v0.036
			c0,0.372,0.252,0.695,0.731,0.695c0.563,0,1.151-0.359,1.151-0.911V122.277z"/>
		<path fill="#FFFFFF" d="M21.567,124.904v-3.946c0-0.563-0.312-0.899-0.792-0.899c-0.708,0-1.08,1.044-1.08,1.464v3.382h-1.151
			v-5.613h0.936l0.084,1.296c0.372-0.983,0.875-1.392,1.559-1.392c1.055,0,1.595,0.708,1.595,1.751v3.958H21.567z"/>
		<path fill="#FFFFFF" d="M27.231,124.904l-0.072-0.863c-0.288,0.72-0.947,0.959-1.535,0.959c-1.019,0-1.715-0.72-1.715-1.871
			v-1.979c0-1.199,0.684-1.967,1.595-1.967c0.695,0,1.043,0.228,1.403,0.684v-2.95h1.139v7.987H27.231z M26.907,121.175
			c0-0.685-0.372-1.092-0.96-1.092c-0.587,0-0.923,0.348-0.923,1.163v1.739c0,0.815,0.336,1.163,0.923,1.163
			c0.492,0,0.96-0.359,0.96-1.091V121.175z"/>
		<path fill="#FFFFFF" d="M34.263,125.013c-0.696,0-1.091-0.181-1.5-0.685v2.471h-1.139v-7.508h0.815l0.072,0.864
			c0.288-0.72,0.947-0.96,1.535-0.96c1.019,0,1.703,0.72,1.703,1.871v2.194C35.75,124.28,35.078,125.013,34.263,125.013z
			 M34.635,121.21c0-0.803-0.324-1.163-0.923-1.163c-0.48,0-0.948,0.36-0.948,1.104v1.835c0,0.684,0.36,1.092,0.948,1.092
			c0.6,0,0.923-0.349,0.923-1.164V121.21z"/>
		<path fill="#FFFFFF" d="M36.976,124.904v-7.987h1.151v7.987H36.976z"/>
		<path fill="#FFFFFF" d="M43.274,125c-0.456,0-0.839-0.191-0.827-0.779c-0.384,0.492-0.984,0.779-1.643,0.779
			c-0.96,0-1.607-0.575-1.607-1.511v-0.072c0-1.439,1.487-1.739,2.962-1.835v-0.707c0-0.48-0.264-0.756-0.815-0.756
			c-0.648,0-0.804,0.252-0.804,0.815v0.168h-1.104v-0.204c0-0.936,0.588-1.715,1.895-1.715c1.451,0,1.907,0.852,1.907,1.955v2.687
			c0,0.216,0.12,0.323,0.396,0.323V125H43.274z M42.158,122.277c-1.283,0.097-1.883,0.396-1.883,1.104v0.036
			c0,0.372,0.252,0.695,0.731,0.695c0.564,0,1.151-0.359,1.151-0.911V122.277z"/>
		<path fill="#FFFFFF" d="M46.539,125c-1.271,0-2.027-0.779-2.027-2.062v-1.68c0-1.271,0.755-2.074,2.027-2.074
			s1.931,0.768,1.931,2.039v0.06h-1.007v-0.228c0-0.564-0.324-0.96-0.923-0.96s-0.923,0.372-0.923,1.031v1.932
			c0,0.671,0.324,1.031,0.923,1.031s0.923-0.384,0.923-0.96v-0.228h1.007v0.072C48.469,124.245,47.81,125,46.539,125z"/>
		<path fill="#FFFFFF" d="M51.507,125c-1.271,0-2.027-0.779-2.027-2.062v-1.68c0-1.271,0.755-2.074,2.027-2.074
			s1.931,0.804,1.931,2.074v0.864h-2.854v1.007c0,0.576,0.324,0.96,0.923,0.96s0.923-0.384,0.923-0.96v-0.228h1.007v0.072
			C53.437,124.245,52.778,125,51.507,125z M52.43,121.055c0-0.564-0.324-0.96-0.923-0.96s-0.923,0.396-0.923,0.96v0.479h1.847
			V121.055z"/>
		<path fill="#FFFFFF" d="M59.773,124.904v-4.09c0-0.456-0.192-0.756-0.6-0.756c-0.708,0-0.852,1.044-0.852,1.464v3.382H57.17v-4.09
			c0-0.456-0.18-0.756-0.588-0.756c-0.708,0-0.863,1.044-0.863,1.464v3.382h-1.151v-5.613h0.947l0.072,1.092
			c0.335-0.888,0.863-1.188,1.463-1.188c0.636,0,1.02,0.384,1.2,1.02c0.335-0.756,0.755-1.02,1.391-1.02
			c0.815,0,1.271,0.6,1.271,1.607v4.102H59.773z"/>
		<path fill="#FFFFFF" d="M64.131,125c-1.271,0-2.027-0.779-2.027-2.062v-1.68c0-1.271,0.755-2.074,2.027-2.074
			s1.931,0.804,1.931,2.074v0.864h-2.854v1.007c0,0.576,0.324,0.96,0.923,0.96s0.923-0.384,0.923-0.96v-0.228h1.007v0.072
			C66.061,124.245,65.402,125,64.131,125z M65.054,121.055c0-0.564-0.324-0.96-0.923-0.96s-0.923,0.396-0.923,0.96v0.479h1.847
			V121.055z"/>
		<path fill="#FFFFFF" d="M70.214,124.904v-3.946c0-0.563-0.312-0.899-0.792-0.899c-0.708,0-1.08,1.044-1.08,1.464v3.382h-1.151
			v-5.613h0.936l0.084,1.296c0.372-0.983,0.875-1.392,1.559-1.392c1.055,0,1.595,0.708,1.595,1.751v3.958H70.214z"/>
		<path fill="#FFFFFF" d="M74.162,120.287v2.771c0,0.743,0.084,1.319,0.384,1.847h-1.211c-0.251-0.479-0.324-0.995-0.324-1.847
			v-2.771h-0.755v-0.924h0.815v-1.056l1.091-0.348v1.403h0.912v0.924H74.162z"/>
	</g>
	<g enable-background="new    ">
		<path fill="#FFFFFF" d="M15.303,139.401c-1.271,0-2.039-0.779-2.039-2.062v-1.68c0-1.271,0.768-2.074,2.039-2.074
			c1.259,0,2.027,0.804,2.027,2.074v1.68C17.33,138.622,16.563,139.401,15.303,139.401z M16.215,135.456
			c0-0.564-0.324-0.96-0.911-0.96c-0.6,0-0.924,0.396-0.924,0.96v2.074c0,0.576,0.324,0.96,0.924,0.96
			c0.587,0,0.911-0.384,0.911-0.96V135.456z"/>
		<path fill="#FFFFFF" d="M20.079,134.688v4.617h-1.151v-4.617h-0.755v-0.924h0.755v-0.468c0-1.199,0.564-1.979,1.667-1.979h0.503
			v0.923h-0.324c-0.563,0-0.755,0.348-0.755,0.899v0.624h0.971v0.924H20.079z"/>
		<path fill="#FFFFFF" d="M25.575,134.688v2.771c0,0.743,0.084,1.319,0.384,1.847h-1.211c-0.251-0.479-0.324-0.995-0.324-1.847
			v-2.771h-0.755v-0.924h0.815v-1.056l1.091-0.348v1.403h0.912v0.924H25.575z"/>
		<path fill="#FFFFFF" d="M29.571,139.581c-0.3,0.996-0.576,1.655-1.715,1.655h-0.479v-0.852h0.36c0.587,0,0.695-0.168,0.815-0.552
			l0.084-0.3l-1.775-5.841H28l0.815,3.095l0.3,1.271l0.3-1.271l0.804-3.095h1.139L29.571,139.581z"/>
		<path fill="#FFFFFF" d="M34.766,139.414c-0.696,0-1.092-0.181-1.5-0.685v2.471h-1.139v-7.508h0.815l0.072,0.864
			c0.288-0.72,0.947-0.96,1.535-0.96c1.019,0,1.703,0.72,1.703,1.871v2.194C36.253,138.682,35.582,139.414,34.766,139.414z
			 M35.138,135.611c0-0.803-0.324-1.163-0.923-1.163c-0.48,0-0.948,0.36-0.948,1.104v1.835c0,0.684,0.36,1.092,0.948,1.092
			c0.6,0,0.923-0.349,0.923-1.164V135.611z"/>
		<path fill="#FFFFFF" d="M39.399,139.401c-1.271,0-2.027-0.779-2.027-2.062v-1.68c0-1.271,0.755-2.074,2.027-2.074
			s1.931,0.804,1.931,2.074v0.864h-2.854v1.007c0,0.576,0.324,0.96,0.923,0.96s0.923-0.384,0.923-0.96v-0.228h1.008v0.072
			C41.33,138.646,40.67,139.401,39.399,139.401z M40.322,135.456c0-0.564-0.324-0.96-0.923-0.96s-0.923,0.396-0.923,0.96v0.479
			h1.847V135.456z"/>
		<path fill="#FFFFFF" d="M46.646,139.401c-1.271,0-2.039-0.779-2.039-2.062v-1.68c0-1.271,0.768-2.074,2.039-2.074
			c1.26,0,2.027,0.804,2.027,2.074v1.68C48.674,138.622,47.906,139.401,46.646,139.401z M47.558,135.456
			c0-0.564-0.324-0.96-0.912-0.96c-0.6,0-0.923,0.396-0.923,0.96v2.074c0,0.576,0.324,0.96,0.923,0.96
			c0.588,0,0.912-0.384,0.912-0.96V135.456z"/>
		<path fill="#FFFFFF" d="M52.922,139.306v-3.946c0-0.563-0.312-0.899-0.792-0.899c-0.708,0-1.08,1.044-1.08,1.464v3.382H49.9
			v-5.613h0.936l0.084,1.296c0.372-0.983,0.875-1.392,1.559-1.392c1.055,0,1.595,0.708,1.595,1.751v3.958H52.922z"/>
		<path fill="#FFFFFF" d="M61.453,139.401c-0.456,0-0.839-0.191-0.827-0.779c-0.384,0.492-0.984,0.779-1.644,0.779
			c-0.959,0-1.607-0.575-1.607-1.511v-0.072c0-1.439,1.487-1.739,2.962-1.835v-0.707c0-0.48-0.264-0.756-0.815-0.756
			c-0.648,0-0.804,0.252-0.804,0.815v0.168h-1.104V135.3c0-0.936,0.588-1.715,1.895-1.715c1.451,0,1.907,0.852,1.907,1.955v2.687
			c0,0.216,0.12,0.323,0.396,0.323v0.852H61.453z M60.338,136.679c-1.283,0.097-1.883,0.396-1.883,1.104v0.036
			c0,0.372,0.252,0.695,0.731,0.695c0.563,0,1.151-0.359,1.151-0.911V136.679z"/>
		<path fill="#FFFFFF" d="M67.694,139.414c-0.696,0-1.091-0.181-1.5-0.685v2.471h-1.139v-7.508h0.815l0.072,0.864
			c0.288-0.72,0.947-0.96,1.535-0.96c1.019,0,1.703,0.72,1.703,1.871v2.194C69.18,138.682,68.509,139.414,67.694,139.414z
			 M68.065,135.611c0-0.803-0.324-1.163-0.923-1.163c-0.48,0-0.948,0.36-0.948,1.104v1.835c0,0.684,0.36,1.092,0.948,1.092
			c0.6,0,0.923-0.349,0.923-1.164V135.611z"/>
		<path fill="#FFFFFF" d="M74.233,139.401c-0.456,0-0.839-0.191-0.827-0.779c-0.384,0.492-0.984,0.779-1.643,0.779
			c-0.96,0-1.607-0.575-1.607-1.511v-0.072c0-1.439,1.487-1.739,2.962-1.835v-0.707c0-0.48-0.264-0.756-0.815-0.756
			c-0.648,0-0.804,0.252-0.804,0.815v0.168h-1.104V135.3c0-0.936,0.588-1.715,1.895-1.715c1.451,0,1.907,0.852,1.907,1.955v2.687
			c0,0.216,0.12,0.323,0.396,0.323v0.852H74.233z M73.117,136.679c-1.283,0.097-1.883,0.396-1.883,1.104v0.036
			c0,0.372,0.252,0.695,0.731,0.695c0.564,0,1.151-0.359,1.151-0.911V136.679z"/>
		<path fill="#FFFFFF" d="M79.381,134.292c-0.144,0-0.312,0.013-0.479-0.096c0.396,0.324,0.587,0.744,0.587,1.176v0.107
			c0,1.031-0.779,1.751-1.979,1.751c-0.12,0-0.492-0.048-0.588-0.071c-0.324,0-0.552,0.275-0.552,0.468
			c0,0.287,0.3,0.491,1.463,0.491c1.415,0,2.027,0.54,2.027,1.319v0.12c0,0.924-0.864,1.751-2.267,1.751
			c-1.271,0-2.314-0.563-2.314-1.403v-0.072c0-0.503,0.324-0.863,1.08-1.031c-0.636-0.144-0.936-0.516-0.936-0.899
			c0-0.42,0.432-0.863,0.959-0.947c-0.54-0.288-0.84-0.84-0.84-1.512v-0.035c0-1.02,0.875-1.823,1.967-1.823
			c0.54,0,0.815,0.156,0.935,0.156c0.576,0,0.732-0.312,0.732-0.708h0.779c0.048,0.275,0.048,0.396,0.048,0.516
			C80.005,134.089,79.669,134.292,79.381,134.292z M78.818,139.581c0-0.371-0.24-0.611-1.235-0.611
			c-0.899,0-1.295,0.276-1.295,0.647v0.072c0,0.372,0.396,0.72,1.295,0.72s1.235-0.384,1.235-0.756V139.581z M78.458,135.396
			c0-0.527-0.36-0.983-0.947-0.983c-0.588,0-0.948,0.456-0.948,0.983v0.048c0,0.528,0.36,0.983,0.948,0.983
			c0.587,0,0.947-0.455,0.947-0.983V135.396z"/>
		<path fill="#FFFFFF" d="M82.634,139.401c-1.271,0-2.027-0.779-2.027-2.062v-1.68c0-1.271,0.755-2.074,2.027-2.074
			s1.931,0.804,1.931,2.074v0.864h-2.854v1.007c0,0.576,0.324,0.96,0.923,0.96s0.923-0.384,0.923-0.96v-0.228h1.008v0.072
			C84.565,138.646,83.906,139.401,82.634,139.401z M83.557,135.456c0-0.564-0.324-0.96-0.923-0.96s-0.923,0.396-0.923,0.96v0.479
			h1.847V135.456z"/>
	</g>
</g>
<rect x="41.847" y="19.273" fill="#808080" width="36.847" height="3.333"/>
<rect x="41.847" y="25.273" fill="#808080" width="36.847" height="3.333"/>
<rect x="83.695" y="19.273" fill="#808080" width="36.849" height="3.333"/>
<rect x="83.695" y="25.273" fill="#808080" width="36.849" height="3.333"/>
<rect x="83.695" y="31.273" fill="#808080" width="36.849" height="3.333"/>
<rect x="83.695" y="37.273" fill="#808080" width="36.849" height="3.333"/>
<rect x="125.542" y="19.273" fill="#808080" width="36.847" height="3.333"/>
<rect x="125.542" y="25.273" fill="#808080" width="36.847" height="3.333"/>
<rect x="125.542" y="31.273" fill="#808080" width="36.847" height="3.333"/>
<rect x="125.542" y="37.273" fill="#808080" width="36.847" height="3.333"/>
<rect x="125.542" y="94.939" fill="#808080" width="78.693" height="3.334"/>
<rect x="125.542" y="100.939" fill="#808080" width="78.693" height="3.334"/>
<rect x="125.542" y="106.939" fill="#808080" width="78.693" height="3.334"/>
<rect x="125.542" y="112.939" fill="#808080" width="78.693" height="3.334"/>
<rect x="125.542" y="118.939" fill="#808080" width="78.693" height="3.334"/>
<rect x="125.542" y="124.939" fill="#808080" width="78.693" height="3.334"/>
<rect x="125.542" y="130.939" fill="#808080" width="78.693" height="3.334"/>
<rect x="209.237" y="112.939" fill="#808080" width="55.897" height="3.334"/>
<rect x="209.237" y="118.939" fill="#808080" width="55.897" height="3.334"/>
<rect x="209.237" y="124.939" fill="#808080" width="55.897" height="3.334"/>
<rect x="209.237" y="130.939" fill="#808080" width="55.897" height="3.334"/>
<rect x="167.389" y="136.939" fill="#808080" width="97.745" height="3.334"/>
<rect x="167.389" y="142.939" fill="#808080" width="97.745" height="3.334"/>
<rect x="167.389" y="148.939" fill="#808080" width="97.745" height="3.334"/>
</svg>
